<?xml version="1.0" encoding="UTF-8" standalone="yes"?><svg xmlns="http://www.w3.org/2000/svg" xmlns:xlink="http://www.w3.org/1999/xlink" height="706pt" style="width:3908px;height:706px;" version="1.1" viewBox="0 0 3908 706" width="3908pt"><defs><filter height="300%" id="f1" width="300%" x="-1" y="-1"><feGaussianBlur result="blurOut" stdDeviation="2"/><feColorMatrix in="blurOut" result="blurOut2" type="matrix" values="0 0 0 0 0 0 0 0 0 0 0 0 0 0 0 0 0 0 .4 0"/><feOffset dx="4" dy="4" in="blurOut2" result="blurOut3"/><feBlend in="SourceGraphic" in2="blurOut3" mode="normal"/></filter></defs><g><polygon fill="#FFFFFF" filter="url(#f1)" points="770.133,257,969.133,257,976.133,280.6094,980.133,280.6094,980.133,466,770.133,466,770.133,257" style="stroke: #000000; stroke-width: 2.0;"/><line style="stroke: #000000; stroke-width: 2.0;" x1="770.133" x2="976.133" y1="280.6094" y2="280.6094"/><text fill="#000000" font-size="14" font-weight="bold" lengthAdjust="spacingAndGlyphs" textLength="193" x="773.133" y="274">EA_Model.Class_Model.atm</text><polygon fill="#FFFFFF" filter="url(#f1)" points="1249.13,257,1495.13,257,1502.13,280.6094,2476.13,280.6094,2476.13,591,1249.13,591,1249.13,257" style="stroke: #000000; stroke-width: 2.0;"/><line style="stroke: #000000; stroke-width: 2.0;" x1="1249.13" x2="1502.13" y1="280.6094" y2="280.6094"/><text fill="#000000" font-size="14" font-weight="bold" lengthAdjust="spacingAndGlyphs" textLength="240" x="1252.13" y="274">EA_Model.Class_Model.simulation</text><polygon fill="#FFFFFF" filter="url(#f1)" points="34.1327,490,294.1327,490,301.1327,513.6094,1225.13,513.6094,1225.13,699,34.1327,699,34.1327,490" style="stroke: #000000; stroke-width: 2.0;"/><line style="stroke: #000000; stroke-width: 2.0;" x1="34.1327" x2="301.1327" y1="513.6094" y2="513.6094"/><text fill="#000000" font-size="14" font-weight="bold" lengthAdjust="spacingAndGlyphs" textLength="254" x="37.1327" y="507">EA_Model.Class_Model.atm.physical</text><polygon fill="#FFFFFF" filter="url(#f1)" points="2500.13,490,2730.13,490,2737.13,513.6094,3119.13,513.6094,3119.13,699,2500.13,699,2500.13,490" style="stroke: #000000; stroke-width: 2.0;"/><line style="stroke: #000000; stroke-width: 2.0;" x1="2500.13" x2="2737.13" y1="513.6094" y2="513.6094"/><text fill="#000000" font-size="14" font-weight="bold" lengthAdjust="spacingAndGlyphs" textLength="224" x="2503.13" y="507">EA_Model.Class_Model.banking</text><polygon fill="#FFFFFF" filter="url(#f1)" points="2880.13,24,3162.13,24,3169.13,47.6094,3477.13,47.6094,3477.13,233,2880.13,233,2880.13,24" style="stroke: #000000; stroke-width: 2.0;"/><line style="stroke: #000000; stroke-width: 2.0;" x1="2880.13" x2="3169.13" y1="47.6094" y2="47.6094"/><text fill="#000000" font-size="14" font-weight="bold" lengthAdjust="spacingAndGlyphs" textLength="276" x="2883.13" y="41">EA_Model.Class_Model.atm.transaction</text><polygon fill="#FFFFFF" filter="url(#f1)" points="3501.13,24,3671.13,24,3678.13,47.6094,3739.13,47.6094,3739.13,125,3501.13,125,3501.13,24" style="stroke: #000000; stroke-width: 2.0;"/><line style="stroke: #000000; stroke-width: 2.0;" x1="3501.13" x2="3678.13" y1="47.6094" y2="47.6094"/><text fill="#000000" font-size="14" font-weight="bold" lengthAdjust="spacingAndGlyphs" textLength="164" x="3504.13" y="41">EA_Model.Class_Model</text><polygon fill="#FFFFFF" filter="url(#f1)" points="3763.13,24,3839.13,24,3846.13,47.6094,3901.13,47.6094,3901.13,125,3763.13,125,3763.13,24" style="stroke: #000000; stroke-width: 2.0;"/><line style="stroke: #000000; stroke-width: 2.0;" x1="3763.13" x2="3846.13" y1="47.6094" y2="47.6094"/><text fill="#000000" font-size="14" font-weight="bold" lengthAdjust="spacingAndGlyphs" textLength="70" x="3766.13" y="41">EA_Model</text><rect fill="#FFF8DC" filter="url(#f1)" height="48" style="stroke: #2E8B57; stroke-width: 1.5;" width="55" x="841.883" y="402"/><ellipse cx="856.883" cy="418" fill="#ADD1B2" rx="11" ry="11" style="stroke: #2E8B57; stroke-width: 1.0;"/><path d="M859.6486,419.5313 L862.0393,420.2813 Q861.4924,422.2656 860.2189,423.2344 Q858.9455,424.2031 856.9768,424.2031 Q854.5549,424.2031 853.0002,422.5469 Q851.4455,420.8906 851.4455,418.0156 Q851.4455,414.9844 853.008,413.3047 Q854.5705,411.625 857.133,411.625 Q859.3674,411.625 860.758,412.9375 Q861.5861,413.7188 862.008,415.1875 L859.5705,415.7656 Q859.3518,414.8125 858.6721,414.2656 Q857.9924,413.7188 857.008,413.7188 Q855.6486,413.7188 854.8127,414.6953 Q853.9768,415.6719 853.9768,417.8438 Q853.9768,420.1406 854.8049,421.125 Q855.633,422.1094 856.9611,422.1094 Q857.9455,422.1094 858.6486,421.4844 Q859.3518,420.8594 859.6486,419.5313 Z "/><text fill="#000000" font-size="12" lengthAdjust="spacingAndGlyphs" textLength="23" x="870.883" y="422.4531">ATM</text><line style="stroke: #2E8B57; stroke-width: 1.5;" x1="842.883" x2="895.883" y1="434" y2="434"/><line style="stroke: #2E8B57; stroke-width: 1.5;" x1="842.883" x2="895.883" y1="442" y2="442"/><rect fill="#FFF8DC" filter="url(#f1)" height="48" style="stroke: #2E8B57; stroke-width: 1.5;" width="78" x="836.133" y="294"/><ellipse cx="851.133" cy="310" fill="#ADD1B2" rx="11" ry="11" style="stroke: #2E8B57; stroke-width: 1.0;"/><path d="M853.8986,311.5313 L856.2893,312.2813 Q855.7424,314.2656 854.4689,315.2344 Q853.1955,316.2031 851.2268,316.2031 Q848.8049,316.2031 847.2502,314.5469 Q845.6955,312.8906 845.6955,310.0156 Q845.6955,306.9844 847.258,305.3047 Q848.8205,303.625 851.383,303.625 Q853.6174,303.625 855.008,304.9375 Q855.8361,305.7188 856.258,307.1875 L853.8205,307.7656 Q853.6018,306.8125 852.9221,306.2656 Q852.2424,305.7188 851.258,305.7188 Q849.8986,305.7188 849.0627,306.6953 Q848.2268,307.6719 848.2268,309.8438 Q848.2268,312.1406 849.0549,313.125 Q849.883,314.1094 851.2111,314.1094 Q852.1955,314.1094 852.8986,313.4844 Q853.6018,312.8594 853.8986,311.5313 Z "/><text fill="#000000" font-size="12" lengthAdjust="spacingAndGlyphs" textLength="46" x="865.133" y="314.4531">Session</text><line style="stroke: #2E8B57; stroke-width: 1.5;" x1="837.133" x2="913.133" y1="326" y2="326"/><line style="stroke: #2E8B57; stroke-width: 1.5;" x1="837.133" x2="913.133" y1="334" y2="334"/><rect fill="#FFF8DC" filter="url(#f1)" height="48" style="stroke: #2E8B57; stroke-width: 1.5;" width="91" x="1538.88" y="294"/><ellipse cx="1553.88" cy="310" fill="#ADD1B2" rx="11" ry="11" style="stroke: #2E8B57; stroke-width: 1.0;"/><path d="M1556.6456,311.5313 L1559.0363,312.2813 Q1558.4894,314.2656 1557.2159,315.2344 Q1555.9425,316.2031 1553.9738,316.2031 Q1551.5519,316.2031 1549.9972,314.5469 Q1548.4425,312.8906 1548.4425,310.0156 Q1548.4425,306.9844 1550.005,305.3047 Q1551.5675,303.625 1554.13,303.625 Q1556.3644,303.625 1557.755,304.9375 Q1558.5831,305.7188 1559.005,307.1875 L1556.5675,307.7656 Q1556.3488,306.8125 1555.6691,306.2656 Q1554.9894,305.7188 1554.005,305.7188 Q1552.6456,305.7188 1551.8097,306.6953 Q1550.9738,307.6719 1550.9738,309.8438 Q1550.9738,312.1406 1551.8019,313.125 Q1552.63,314.1094 1553.9581,314.1094 Q1554.9425,314.1094 1555.6456,313.4844 Q1556.3488,312.8594 1556.6456,311.5313 Z "/><text fill="#000000" font-size="12" lengthAdjust="spacingAndGlyphs" textLength="59" x="1567.88" y="314.4531">Simulation</text><line style="stroke: #2E8B57; stroke-width: 1.5;" x1="1539.88" x2="1628.88" y1="326" y2="326"/><line style="stroke: #2E8B57; stroke-width: 1.5;" x1="1539.88" x2="1628.88" y1="334" y2="334"/><rect fill="#FFF8DC" filter="url(#f1)" height="48" style="stroke: #2E8B57; stroke-width: 1.5;" width="70" x="2390.13" y="402"/><ellipse cx="2405.13" cy="418" fill="#ADD1B2" rx="11" ry="11" style="stroke: #2E8B57; stroke-width: 1.0;"/><path d="M2407.8956,419.5313 L2410.2863,420.2813 Q2409.7394,422.2656 2408.4659,423.2344 Q2407.1925,424.2031 2405.2238,424.2031 Q2402.8019,424.2031 2401.2472,422.5469 Q2399.6925,420.8906 2399.6925,418.0156 Q2399.6925,414.9844 2401.255,413.3047 Q2402.8175,411.625 2405.38,411.625 Q2407.6144,411.625 2409.005,412.9375 Q2409.8331,413.7188 2410.255,415.1875 L2407.8175,415.7656 Q2407.5988,414.8125 2406.9191,414.2656 Q2406.2394,413.7188 2405.255,413.7188 Q2403.8956,413.7188 2403.0597,414.6953 Q2402.2238,415.6719 2402.2238,417.8438 Q2402.2238,420.1406 2403.0519,421.125 Q2403.88,422.1094 2405.2081,422.1094 Q2406.1925,422.1094 2406.8956,421.4844 Q2407.5988,420.8594 2407.8956,419.5313 Z "/><text fill="#000000" font-size="12" lengthAdjust="spacingAndGlyphs" textLength="38" x="2419.13" y="422.4531">Failure</text><line style="stroke: #2E8B57; stroke-width: 1.5;" x1="2391.13" x2="2459.13" y1="434" y2="434"/><line style="stroke: #2E8B57; stroke-width: 1.5;" x1="2391.13" x2="2459.13" y1="442" y2="442"/><rect fill="#FFF8DC" filter="url(#f1)" height="48" style="stroke: #2E8B57; stroke-width: 1.5;" width="116" x="2062.13" y="402"/><ellipse cx="2077.13" cy="418" fill="#ADD1B2" rx="11" ry="11" style="stroke: #2E8B57; stroke-width: 1.0;"/><path d="M2079.8956,419.5313 L2082.2863,420.2813 Q2081.7394,422.2656 2080.4659,423.2344 Q2079.1925,424.2031 2077.2238,424.2031 Q2074.8019,424.2031 2073.2472,422.5469 Q2071.6925,420.8906 2071.6925,418.0156 Q2071.6925,414.9844 2073.255,413.3047 Q2074.8175,411.625 2077.38,411.625 Q2079.6144,411.625 2081.005,412.9375 Q2081.8331,413.7188 2082.255,415.1875 L2079.8175,415.7656 Q2079.5988,414.8125 2078.9191,414.2656 Q2078.2394,413.7188 2077.255,413.7188 Q2075.8956,413.7188 2075.0597,414.6953 Q2074.2238,415.6719 2074.2238,417.8438 Q2074.2238,420.1406 2075.0519,421.125 Q2075.88,422.1094 2077.2081,422.1094 Q2078.1925,422.1094 2078.8956,421.4844 Q2079.5988,420.8594 2079.8956,419.5313 Z "/><text fill="#000000" font-size="12" lengthAdjust="spacingAndGlyphs" textLength="84" x="2091.13" y="422.4531">SimulatedBank</text><line style="stroke: #2E8B57; stroke-width: 1.5;" x1="2063.13" x2="2177.13" y1="434" y2="434"/><line style="stroke: #2E8B57; stroke-width: 1.5;" x1="2063.13" x2="2177.13" y1="442" y2="442"/><rect fill="#FFF8DC" filter="url(#f1)" height="48" style="stroke: #2E8B57; stroke-width: 1.5;" width="53" x="1265.88" y="402"/><ellipse cx="1280.88" cy="418" fill="#ADD1B2" rx="11" ry="11" style="stroke: #2E8B57; stroke-width: 1.0;"/><path d="M1283.6456,419.5313 L1286.0363,420.2813 Q1285.4894,422.2656 1284.2159,423.2344 Q1282.9425,424.2031 1280.9738,424.2031 Q1278.5519,424.2031 1276.9972,422.5469 Q1275.4425,420.8906 1275.4425,418.0156 Q1275.4425,414.9844 1277.005,413.3047 Q1278.5675,411.625 1281.13,411.625 Q1283.3644,411.625 1284.755,412.9375 Q1285.5831,413.7188 1286.005,415.1875 L1283.5675,415.7656 Q1283.3488,414.8125 1282.6691,414.2656 Q1281.9894,413.7188 1281.005,413.7188 Q1279.6456,413.7188 1278.8097,414.6953 Q1277.9738,415.6719 1277.9738,417.8438 Q1277.9738,420.1406 1278.8019,421.125 Q1279.63,422.1094 1280.9581,422.1094 Q1281.9425,422.1094 1282.6456,421.4844 Q1283.3488,420.8594 1283.6456,419.5313 Z "/><text fill="#000000" font-size="12" lengthAdjust="spacingAndGlyphs" textLength="21" x="1294.88" y="422.4531">GUI</text><line style="stroke: #2E8B57; stroke-width: 1.5;" x1="1266.88" x2="1317.88" y1="434" y2="434"/><line style="stroke: #2E8B57; stroke-width: 1.5;" x1="1266.88" x2="1317.88" y1="442" y2="442"/><rect fill="#FFF8DC" filter="url(#f1)" height="48" style="stroke: #2E8B57; stroke-width: 1.5;" width="87" x="1509.88" y="527"/><ellipse cx="1524.88" cy="543" fill="#ADD1B2" rx="11" ry="11" style="stroke: #2E8B57; stroke-width: 1.0;"/><path d="M1527.6456,544.5313 L1530.0363,545.2813 Q1529.4894,547.2656 1528.2159,548.2344 Q1526.9425,549.2031 1524.9738,549.2031 Q1522.5519,549.2031 1520.9972,547.5469 Q1519.4425,545.8906 1519.4425,543.0156 Q1519.4425,539.9844 1521.005,538.3047 Q1522.5675,536.625 1525.13,536.625 Q1527.3644,536.625 1528.755,537.9375 Q1529.5831,538.7188 1530.005,540.1875 L1527.5675,540.7656 Q1527.3488,539.8125 1526.6691,539.2656 Q1525.9894,538.7188 1525.005,538.7188 Q1523.6456,538.7188 1522.8097,539.6953 Q1521.9738,540.6719 1521.9738,542.8438 Q1521.9738,545.1406 1522.8019,546.125 Q1523.63,547.1094 1524.9581,547.1094 Q1525.9425,547.1094 1526.6456,546.4844 Q1527.3488,545.8594 1527.6456,544.5313 Z "/><text fill="#000000" font-size="12" lengthAdjust="spacingAndGlyphs" textLength="55" x="1538.88" y="547.4531">ATMPanel</text><line style="stroke: #2E8B57; stroke-width: 1.5;" x1="1510.88" x2="1595.88" y1="559" y2="559"/><line style="stroke: #2E8B57; stroke-width: 1.5;" x1="1510.88" x2="1595.88" y1="567" y2="567"/><rect fill="#FFF8DC" filter="url(#f1)" height="48" style="stroke: #2E8B57; stroke-width: 1.5;" width="106" x="1391.13" y="402"/><ellipse cx="1406.13" cy="418" fill="#ADD1B2" rx="11" ry="11" style="stroke: #2E8B57; stroke-width: 1.0;"/><path d="M1408.8956,419.5313 L1411.2863,420.2813 Q1410.7394,422.2656 1409.4659,423.2344 Q1408.1925,424.2031 1406.2238,424.2031 Q1403.8019,424.2031 1402.2472,422.5469 Q1400.6925,420.8906 1400.6925,418.0156 Q1400.6925,414.9844 1402.255,413.3047 Q1403.8175,411.625 1406.38,411.625 Q1408.6144,411.625 1410.005,412.9375 Q1410.8331,413.7188 1411.255,415.1875 L1408.8175,415.7656 Q1408.5988,414.8125 1407.9191,414.2656 Q1407.2394,413.7188 1406.255,413.7188 Q1404.8956,413.7188 1404.0597,414.6953 Q1403.2238,415.6719 1403.2238,417.8438 Q1403.2238,420.1406 1404.0519,421.125 Q1404.88,422.1094 1406.2081,422.1094 Q1407.1925,422.1094 1407.8956,421.4844 Q1408.5988,420.8594 1408.8956,419.5313 Z "/><text fill="#000000" font-size="12" lengthAdjust="spacingAndGlyphs" textLength="74" x="1420.13" y="422.4531">SimKeyboard</text><line style="stroke: #2E8B57; stroke-width: 1.5;" x1="1392.13" x2="1496.13" y1="434" y2="434"/><line style="stroke: #2E8B57; stroke-width: 1.5;" x1="1392.13" x2="1496.13" y1="442" y2="442"/><rect fill="#FFF8DC" filter="url(#f1)" height="48" style="stroke: #2E8B57; stroke-width: 1.5;" width="95" x="1757.88" y="527"/><ellipse cx="1772.88" cy="543" fill="#ADD1B2" rx="11" ry="11" style="stroke: #2E8B57; stroke-width: 1.0;"/><path d="M1775.6456,544.5313 L1778.0363,545.2813 Q1777.4894,547.2656 1776.2159,548.2344 Q1774.9425,549.2031 1772.9738,549.2031 Q1770.5519,549.2031 1768.9972,547.5469 Q1767.4425,545.8906 1767.4425,543.0156 Q1767.4425,539.9844 1769.005,538.3047 Q1770.5675,536.625 1773.13,536.625 Q1775.3644,536.625 1776.755,537.9375 Q1777.5831,538.7188 1778.005,540.1875 L1775.5675,540.7656 Q1775.3488,539.8125 1774.6691,539.2656 Q1773.9894,538.7188 1773.005,538.7188 Q1771.6456,538.7188 1770.8097,539.6953 Q1769.9738,540.6719 1769.9738,542.8438 Q1769.9738,545.1406 1770.8019,546.125 Q1771.63,547.1094 1772.9581,547.1094 Q1773.9425,547.1094 1774.6456,546.4844 Q1775.3488,545.8594 1775.6456,544.5313 Z "/><text fill="#000000" font-size="12" lengthAdjust="spacingAndGlyphs" textLength="63" x="1786.88" y="547.4531">SimDisplay</text><line style="stroke: #2E8B57; stroke-width: 1.5;" x1="1758.88" x2="1851.88" y1="559" y2="559"/><line style="stroke: #2E8B57; stroke-width: 1.5;" x1="1758.88" x2="1851.88" y1="567" y2="567"/><rect fill="#FFF8DC" filter="url(#f1)" height="48" style="stroke: #2E8B57; stroke-width: 1.5;" width="80" x="2380.13" y="294"/><ellipse cx="2395.13" cy="310" fill="#ADD1B2" rx="11" ry="11" style="stroke: #2E8B57; stroke-width: 1.0;"/><path d="M2397.8956,311.5313 L2400.2863,312.2813 Q2399.7394,314.2656 2398.4659,315.2344 Q2397.1925,316.2031 2395.2238,316.2031 Q2392.8019,316.2031 2391.2472,314.5469 Q2389.6925,312.8906 2389.6925,310.0156 Q2389.6925,306.9844 2391.255,305.3047 Q2392.8175,303.625 2395.38,303.625 Q2397.6144,303.625 2399.005,304.9375 Q2399.8331,305.7188 2400.255,307.1875 L2397.8175,307.7656 Q2397.5988,306.8125 2396.9191,306.2656 Q2396.2394,305.7188 2395.255,305.7188 Q2393.8956,305.7188 2393.0597,306.6953 Q2392.2238,307.6719 2392.2238,309.8438 Q2392.2238,312.1406 2393.0519,313.125 Q2393.88,314.1094 2395.2081,314.1094 Q2396.1925,314.1094 2396.8956,313.4844 Q2397.5988,312.8594 2397.8956,311.5313 Z "/><text fill="#000000" font-size="12" lengthAdjust="spacingAndGlyphs" textLength="48" x="2409.13" y="314.4531">Success</text><line style="stroke: #2E8B57; stroke-width: 1.5;" x1="2381.13" x2="2459.13" y1="326" y2="326"/><line style="stroke: #2E8B57; stroke-width: 1.5;" x1="2381.13" x2="2459.13" y1="334" y2="334"/><rect fill="#FFF8DC" filter="url(#f1)" height="48" style="stroke: #2E8B57; stroke-width: 1.5;" width="134" x="1569.13" y="402"/><ellipse cx="1584.13" cy="418" fill="#ADD1B2" rx="11" ry="11" style="stroke: #2E8B57; stroke-width: 1.0;"/><path d="M1586.8956,419.5313 L1589.2863,420.2813 Q1588.7394,422.2656 1587.4659,423.2344 Q1586.1925,424.2031 1584.2238,424.2031 Q1581.8019,424.2031 1580.2472,422.5469 Q1578.6925,420.8906 1578.6925,418.0156 Q1578.6925,414.9844 1580.255,413.3047 Q1581.8175,411.625 1584.38,411.625 Q1586.6144,411.625 1588.005,412.9375 Q1588.8331,413.7188 1589.255,415.1875 L1586.8175,415.7656 Q1586.5988,414.8125 1585.9191,414.2656 Q1585.2394,413.7188 1584.255,413.7188 Q1582.8956,413.7188 1582.0597,414.6953 Q1581.2238,415.6719 1581.2238,417.8438 Q1581.2238,420.1406 1582.0519,421.125 Q1582.88,422.1094 1584.2081,422.1094 Q1585.1925,422.1094 1585.8956,421.4844 Q1586.5988,420.8594 1586.8956,419.5313 Z "/><text fill="#000000" font-size="12" lengthAdjust="spacingAndGlyphs" textLength="102" x="1598.13" y="422.4531">SimOperatorPanel</text><line style="stroke: #2E8B57; stroke-width: 1.5;" x1="1570.13" x2="1702.13" y1="434" y2="434"/><line style="stroke: #2E8B57; stroke-width: 1.5;" x1="1570.13" x2="1702.13" y1="442" y2="442"/><rect fill="#FFF8DC" filter="url(#f1)" height="48" style="stroke: #2E8B57; stroke-width: 1.5;" width="122" x="1738.13" y="402"/><ellipse cx="1753.13" cy="418" fill="#ADD1B2" rx="11" ry="11" style="stroke: #2E8B57; stroke-width: 1.0;"/><path d="M1755.8956,419.5313 L1758.2863,420.2813 Q1757.7394,422.2656 1756.4659,423.2344 Q1755.1925,424.2031 1753.2238,424.2031 Q1750.8019,424.2031 1749.2472,422.5469 Q1747.6925,420.8906 1747.6925,418.0156 Q1747.6925,414.9844 1749.255,413.3047 Q1750.8175,411.625 1753.38,411.625 Q1755.6144,411.625 1757.005,412.9375 Q1757.8331,413.7188 1758.255,415.1875 L1755.8175,415.7656 Q1755.5988,414.8125 1754.9191,414.2656 Q1754.2394,413.7188 1753.255,413.7188 Q1751.8956,413.7188 1751.0597,414.6953 Q1750.2238,415.6719 1750.2238,417.8438 Q1750.2238,420.1406 1751.0519,421.125 Q1751.88,422.1094 1753.2081,422.1094 Q1754.1925,422.1094 1754.8956,421.4844 Q1755.5988,420.8594 1755.8956,419.5313 Z "/><text fill="#000000" font-size="12" lengthAdjust="spacingAndGlyphs" textLength="90" x="1767.13" y="422.4531">SimCardReader</text><line style="stroke: #2E8B57; stroke-width: 1.5;" x1="1739.13" x2="1859.13" y1="434" y2="434"/><line style="stroke: #2E8B57; stroke-width: 1.5;" x1="1739.13" x2="1859.13" y1="442" y2="442"/><rect fill="#FFF8DC" filter="url(#f1)" height="48" style="stroke: #2E8B57; stroke-width: 1.5;" width="132" x="1895.13" y="402"/><ellipse cx="1910.13" cy="418" fill="#ADD1B2" rx="11" ry="11" style="stroke: #2E8B57; stroke-width: 1.0;"/><path d="M1912.8956,419.5313 L1915.2863,420.2813 Q1914.7394,422.2656 1913.4659,423.2344 Q1912.1925,424.2031 1910.2238,424.2031 Q1907.8019,424.2031 1906.2472,422.5469 Q1904.6925,420.8906 1904.6925,418.0156 Q1904.6925,414.9844 1906.255,413.3047 Q1907.8175,411.625 1910.38,411.625 Q1912.6144,411.625 1914.005,412.9375 Q1914.8331,413.7188 1915.255,415.1875 L1912.8175,415.7656 Q1912.5988,414.8125 1911.9191,414.2656 Q1911.2394,413.7188 1910.255,413.7188 Q1908.8956,413.7188 1908.0597,414.6953 Q1907.2238,415.6719 1907.2238,417.8438 Q1907.2238,420.1406 1908.0519,421.125 Q1908.88,422.1094 1910.2081,422.1094 Q1911.1925,422.1094 1911.8956,421.4844 Q1912.5988,420.8594 1912.8956,419.5313 Z "/><text fill="#000000" font-size="12" lengthAdjust="spacingAndGlyphs" textLength="100" x="1924.13" y="422.4531">SimReceiptPrinter</text><line style="stroke: #2E8B57; stroke-width: 1.5;" x1="1896.13" x2="2026.13" y1="434" y2="434"/><line style="stroke: #2E8B57; stroke-width: 1.5;" x1="1896.13" x2="2026.13" y1="442" y2="442"/><rect fill="#FFF8DC" filter="url(#f1)" height="48" style="stroke: #2E8B57; stroke-width: 1.5;" width="91" x="1631.88" y="527"/><ellipse cx="1646.88" cy="543" fill="#ADD1B2" rx="11" ry="11" style="stroke: #2E8B57; stroke-width: 1.0;"/><path d="M1649.6456,544.5313 L1652.0363,545.2813 Q1651.4894,547.2656 1650.2159,548.2344 Q1648.9425,549.2031 1646.9738,549.2031 Q1644.5519,549.2031 1642.9972,547.5469 Q1641.4425,545.8906 1641.4425,543.0156 Q1641.4425,539.9844 1643.005,538.3047 Q1644.5675,536.625 1647.13,536.625 Q1649.3644,536.625 1650.755,537.9375 Q1651.5831,538.7188 1652.005,540.1875 L1649.5675,540.7656 Q1649.3488,539.8125 1648.6691,539.2656 Q1647.9894,538.7188 1647.005,538.7188 Q1645.6456,538.7188 1644.8097,539.6953 Q1643.9738,540.6719 1643.9738,542.8438 Q1643.9738,545.1406 1644.8019,546.125 Q1645.63,547.1094 1646.9581,547.1094 Q1647.9425,547.1094 1648.6456,546.4844 Q1649.3488,545.8594 1649.6456,544.5313 Z "/><text fill="#000000" font-size="12" lengthAdjust="spacingAndGlyphs" textLength="59" x="1660.88" y="547.4531">CardPanel</text><line style="stroke: #2E8B57; stroke-width: 1.5;" x1="1632.88" x2="1721.88" y1="559" y2="559"/><line style="stroke: #2E8B57; stroke-width: 1.5;" x1="1632.88" x2="1721.88" y1="567" y2="567"/><rect fill="#FFF8DC" filter="url(#f1)" height="48" style="stroke: #2E8B57; stroke-width: 1.5;" width="152" x="1888.13" y="527"/><ellipse cx="1903.13" cy="543" fill="#ADD1B2" rx="11" ry="11" style="stroke: #2E8B57; stroke-width: 1.0;"/><path d="M1905.8956,544.5313 L1908.2863,545.2813 Q1907.7394,547.2656 1906.4659,548.2344 Q1905.1925,549.2031 1903.2238,549.2031 Q1900.8019,549.2031 1899.2472,547.5469 Q1897.6925,545.8906 1897.6925,543.0156 Q1897.6925,539.9844 1899.255,538.3047 Q1900.8175,536.625 1903.38,536.625 Q1905.6144,536.625 1907.005,537.9375 Q1907.8331,538.7188 1908.255,540.1875 L1905.8175,540.7656 Q1905.5988,539.8125 1904.9191,539.2656 Q1904.2394,538.7188 1903.255,538.7188 Q1901.8956,538.7188 1901.0597,539.6953 Q1900.2238,540.6719 1900.2238,542.8438 Q1900.2238,545.1406 1901.0519,546.125 Q1901.88,547.1094 1903.2081,547.1094 Q1904.1925,547.1094 1904.8956,546.4844 Q1905.5988,545.8594 1905.8956,544.5313 Z "/><text fill="#000000" font-size="12" lengthAdjust="spacingAndGlyphs" textLength="120" x="1917.13" y="547.4531">SimEnvelopeAcceptor</text><line style="stroke: #2E8B57; stroke-width: 1.5;" x1="1889.13" x2="2039.13" y1="559" y2="559"/><line style="stroke: #2E8B57; stroke-width: 1.5;" x1="1889.13" x2="2039.13" y1="567" y2="567"/><rect fill="#FFF8DC" filter="url(#f1)" height="48" style="stroke: #2E8B57; stroke-width: 1.5;" width="142" x="2213.13" y="402"/><ellipse cx="2228.13" cy="418" fill="#ADD1B2" rx="11" ry="11" style="stroke: #2E8B57; stroke-width: 1.0;"/><path d="M2230.8956,419.5313 L2233.2863,420.2813 Q2232.7394,422.2656 2231.4659,423.2344 Q2230.1925,424.2031 2228.2238,424.2031 Q2225.8019,424.2031 2224.2472,422.5469 Q2222.6925,420.8906 2222.6925,418.0156 Q2222.6925,414.9844 2224.255,413.3047 Q2225.8175,411.625 2228.38,411.625 Q2230.6144,411.625 2232.005,412.9375 Q2232.8331,413.7188 2233.255,415.1875 L2230.8175,415.7656 Q2230.5988,414.8125 2229.9191,414.2656 Q2229.2394,413.7188 2228.255,413.7188 Q2226.8956,413.7188 2226.0597,414.6953 Q2225.2238,415.6719 2225.2238,417.8438 Q2225.2238,420.1406 2226.0519,421.125 Q2226.88,422.1094 2228.2081,422.1094 Q2229.1925,422.1094 2229.8956,421.4844 Q2230.5988,420.8594 2230.8956,419.5313 Z "/><text fill="#000000" font-size="12" lengthAdjust="spacingAndGlyphs" textLength="110" x="2242.13" y="422.4531">SimCashDispenser</text><line style="stroke: #2E8B57; stroke-width: 1.5;" x1="2214.13" x2="2354.13" y1="434" y2="434"/><line style="stroke: #2E8B57; stroke-width: 1.5;" x1="2214.13" x2="2354.13" y1="442" y2="442"/><rect fill="#FFF8DC" filter="url(#f1)" height="48" style="stroke: #2E8B57; stroke-width: 1.5;" width="85" x="1265.88" y="527"/><ellipse cx="1280.88" cy="543" fill="#ADD1B2" rx="11" ry="11" style="stroke: #2E8B57; stroke-width: 1.0;"/><path d="M1283.6456,544.5313 L1286.0363,545.2813 Q1285.4894,547.2656 1284.2159,548.2344 Q1282.9425,549.2031 1280.9738,549.2031 Q1278.5519,549.2031 1276.9972,547.5469 Q1275.4425,545.8906 1275.4425,543.0156 Q1275.4425,539.9844 1277.005,538.3047 Q1278.5675,536.625 1281.13,536.625 Q1283.3644,536.625 1284.755,537.9375 Q1285.5831,538.7188 1286.005,540.1875 L1283.5675,540.7656 Q1283.3488,539.8125 1282.6691,539.2656 Q1281.9894,538.7188 1281.005,538.7188 Q1279.6456,538.7188 1278.8097,539.6953 Q1277.9738,540.6719 1277.9738,542.8438 Q1277.9738,545.1406 1278.8019,546.125 Q1279.63,547.1094 1280.9581,547.1094 Q1281.9425,547.1094 1282.6456,546.4844 Q1283.3488,545.8594 1283.6456,544.5313 Z "/><text fill="#000000" font-size="12" lengthAdjust="spacingAndGlyphs" textLength="53" x="1294.88" y="547.4531">LogPanel</text><line style="stroke: #2E8B57; stroke-width: 1.5;" x1="1266.88" x2="1349.88" y1="559" y2="559"/><line style="stroke: #2E8B57; stroke-width: 1.5;" x1="1266.88" x2="1349.88" y1="567" y2="567"/><rect fill="#FFF8DC" filter="url(#f1)" height="48" style="stroke: #2E8B57; stroke-width: 1.5;" width="88" x="1386.13" y="527"/><ellipse cx="1401.13" cy="543" fill="#ADD1B2" rx="11" ry="11" style="stroke: #2E8B57; stroke-width: 1.0;"/><path d="M1403.8956,544.5313 L1406.2863,545.2813 Q1405.7394,547.2656 1404.4659,548.2344 Q1403.1925,549.2031 1401.2238,549.2031 Q1398.8019,549.2031 1397.2472,547.5469 Q1395.6925,545.8906 1395.6925,543.0156 Q1395.6925,539.9844 1397.255,538.3047 Q1398.8175,536.625 1401.38,536.625 Q1403.6144,536.625 1405.005,537.9375 Q1405.8331,538.7188 1406.255,540.1875 L1403.8175,540.7656 Q1403.5988,539.8125 1402.9191,539.2656 Q1402.2394,538.7188 1401.255,538.7188 Q1399.8956,538.7188 1399.0597,539.6953 Q1398.2238,540.6719 1398.2238,542.8438 Q1398.2238,545.1406 1399.0519,546.125 Q1399.88,547.1094 1401.2081,547.1094 Q1402.1925,547.1094 1402.8956,546.4844 Q1403.5988,545.8594 1403.8956,544.5313 Z "/><text fill="#000000" font-size="12" lengthAdjust="spacingAndGlyphs" textLength="56" x="1415.13" y="547.4531">BillsPanel</text><line style="stroke: #2E8B57; stroke-width: 1.5;" x1="1387.13" x2="1473.13" y1="559" y2="559"/><line style="stroke: #2E8B57; stroke-width: 1.5;" x1="1387.13" x2="1473.13" y1="567" y2="567"/><rect fill="#FFF8DC" filter="url(#f1)" height="48" style="stroke: #2E8B57; stroke-width: 1.5;" width="87" x="2257.88" y="294"/><ellipse cx="2272.88" cy="310" fill="#ADD1B2" rx="11" ry="11" style="stroke: #2E8B57; stroke-width: 1.0;"/><path d="M2275.6456,311.5313 L2278.0363,312.2813 Q2277.4894,314.2656 2276.2159,315.2344 Q2274.9425,316.2031 2272.9738,316.2031 Q2270.5519,316.2031 2268.9972,314.5469 Q2267.4425,312.8906 2267.4425,310.0156 Q2267.4425,306.9844 2269.005,305.3047 Q2270.5675,303.625 2273.13,303.625 Q2275.3644,303.625 2276.755,304.9375 Q2277.5831,305.7188 2278.005,307.1875 L2275.5675,307.7656 Q2275.3488,306.8125 2274.6691,306.2656 Q2273.9894,305.7188 2273.005,305.7188 Q2271.6456,305.7188 2270.8097,306.6953 Q2269.9738,307.6719 2269.9738,309.8438 Q2269.9738,312.1406 2270.8019,313.125 Q2271.63,314.1094 2272.9581,314.1094 Q2273.9425,314.1094 2274.6456,313.4844 Q2275.3488,312.8594 2275.6456,311.5313 Z "/><text fill="#000000" font-size="12" lengthAdjust="spacingAndGlyphs" textLength="55" x="2286.88" y="314.4531">InvalidPIN</text><line style="stroke: #2E8B57; stroke-width: 1.5;" x1="2258.88" x2="2343.88" y1="326" y2="326"/><line style="stroke: #2E8B57; stroke-width: 1.5;" x1="2258.88" x2="2343.88" y1="334" y2="334"/><rect fill="#FFF8DC" filter="url(#f1)" height="48" style="stroke: #2E8B57; stroke-width: 1.5;" width="53" x="410.883" y="635"/><ellipse cx="425.883" cy="651" fill="#ADD1B2" rx="11" ry="11" style="stroke: #2E8B57; stroke-width: 1.0;"/><path d="M428.6486,652.5313 L431.0393,653.2813 Q430.4924,655.2656 429.2189,656.2344 Q427.9455,657.2031 425.9768,657.2031 Q423.5549,657.2031 422.0002,655.5469 Q420.4455,653.8906 420.4455,651.0156 Q420.4455,647.9844 422.008,646.3047 Q423.5705,644.625 426.133,644.625 Q428.3674,644.625 429.758,645.9375 Q430.5861,646.7188 431.008,648.1875 L428.5705,648.7656 Q428.3518,647.8125 427.6721,647.2656 Q426.9924,646.7188 426.008,646.7188 Q424.6486,646.7188 423.8127,647.6953 Q422.9768,648.6719 422.9768,650.8438 Q422.9768,653.1406 423.8049,654.125 Q424.633,655.1094 425.9611,655.1094 Q426.9455,655.1094 427.6486,654.4844 Q428.3518,653.8594 428.6486,652.5313 Z "/><text fill="#000000" font-size="12" lengthAdjust="spacingAndGlyphs" textLength="21" x="439.883" y="655.4531">Log</text><line style="stroke: #2E8B57; stroke-width: 1.5;" x1="411.883" x2="462.883" y1="667" y2="667"/><line style="stroke: #2E8B57; stroke-width: 1.5;" x1="411.883" x2="462.883" y1="675" y2="675"/><rect fill="#FFF8DC" filter="url(#f1)" height="48" style="stroke: #2E8B57; stroke-width: 1.5;" width="100" x="964.133" y="527"/><ellipse cx="979.133" cy="543" fill="#ADD1B2" rx="11" ry="11" style="stroke: #2E8B57; stroke-width: 1.0;"/><path d="M981.8986,544.5313 L984.2893,545.2813 Q983.7424,547.2656 982.4689,548.2344 Q981.1955,549.2031 979.2268,549.2031 Q976.8049,549.2031 975.2502,547.5469 Q973.6955,545.8906 973.6955,543.0156 Q973.6955,539.9844 975.258,538.3047 Q976.8205,536.625 979.383,536.625 Q981.6174,536.625 983.008,537.9375 Q983.8361,538.7188 984.258,540.1875 L981.8205,540.7656 Q981.6018,539.8125 980.9221,539.2656 Q980.2424,538.7188 979.258,538.7188 Q977.8986,538.7188 977.0627,539.6953 Q976.2268,540.6719 976.2268,542.8438 Q976.2268,545.1406 977.0549,546.125 Q977.883,547.1094 979.2111,547.1094 Q980.1955,547.1094 980.8986,546.4844 Q981.6018,545.8594 981.8986,544.5313 Z "/><text fill="#000000" font-size="12" lengthAdjust="spacingAndGlyphs" textLength="68" x="993.133" y="547.4531">CardReader</text><line style="stroke: #2E8B57; stroke-width: 1.5;" x1="965.133" x2="1063.133" y1="559" y2="559"/><line style="stroke: #2E8B57; stroke-width: 1.5;" x1="965.133" x2="1063.133" y1="567" y2="567"/><rect fill="#FFF8DC" filter="url(#f1)" height="48" style="stroke: #2E8B57; stroke-width: 1.5;" width="119" x="531.883" y="527"/><ellipse cx="546.883" cy="543" fill="#ADD1B2" rx="11" ry="11" style="stroke: #2E8B57; stroke-width: 1.0;"/><path d="M549.6486,544.5313 L552.0393,545.2813 Q551.4924,547.2656 550.2189,548.2344 Q548.9455,549.2031 546.9768,549.2031 Q544.5549,549.2031 543.0002,547.5469 Q541.4455,545.8906 541.4455,543.0156 Q541.4455,539.9844 543.008,538.3047 Q544.5705,536.625 547.133,536.625 Q549.3674,536.625 550.758,537.9375 Q551.5861,538.7188 552.008,540.1875 L549.5705,540.7656 Q549.3518,539.8125 548.6721,539.2656 Q547.9924,538.7188 547.008,538.7188 Q545.6486,538.7188 544.8127,539.6953 Q543.9768,540.6719 543.9768,542.8438 Q543.9768,545.1406 544.8049,546.125 Q545.633,547.1094 546.9611,547.1094 Q547.9455,547.1094 548.6486,546.4844 Q549.3518,545.8594 549.6486,544.5313 Z "/><text fill="#000000" font-size="12" lengthAdjust="spacingAndGlyphs" textLength="87" x="560.883" y="547.4531">NetworkToBank</text><line style="stroke: #2E8B57; stroke-width: 1.5;" x1="532.883" x2="649.883" y1="559" y2="559"/><line style="stroke: #2E8B57; stroke-width: 1.5;" x1="532.883" x2="649.883" y1="567" y2="567"/><rect fill="#FFF8DC" filter="url(#f1)" height="48" style="stroke: #2E8B57; stroke-width: 1.5;" width="120" x="809.133" y="527"/><ellipse cx="824.133" cy="543" fill="#ADD1B2" rx="11" ry="11" style="stroke: #2E8B57; stroke-width: 1.0;"/><path d="M826.8986,544.5313 L829.2893,545.2813 Q828.7424,547.2656 827.4689,548.2344 Q826.1955,549.2031 824.2268,549.2031 Q821.8049,549.2031 820.2502,547.5469 Q818.6955,545.8906 818.6955,543.0156 Q818.6955,539.9844 820.258,538.3047 Q821.8205,536.625 824.383,536.625 Q826.6174,536.625 828.008,537.9375 Q828.8361,538.7188 829.258,540.1875 L826.8205,540.7656 Q826.6018,539.8125 825.9221,539.2656 Q825.2424,538.7188 824.258,538.7188 Q822.8986,538.7188 822.0627,539.6953 Q821.2268,540.6719 821.2268,542.8438 Q821.2268,545.1406 822.0549,546.125 Q822.883,547.1094 824.2111,547.1094 Q825.1955,547.1094 825.8986,546.4844 Q826.6018,545.8594 826.8986,544.5313 Z "/><text fill="#000000" font-size="12" lengthAdjust="spacingAndGlyphs" textLength="88" x="838.133" y="547.4531">CashDispenser</text><line style="stroke: #2E8B57; stroke-width: 1.5;" x1="810.133" x2="928.133" y1="559" y2="559"/><line style="stroke: #2E8B57; stroke-width: 1.5;" x1="810.133" x2="928.133" y1="567" y2="567"/><rect fill="#FFF8DC" filter="url(#f1)" height="48" style="stroke: #2E8B57; stroke-width: 1.5;" width="88" x="686.133" y="527"/><ellipse cx="701.133" cy="543" fill="#ADD1B2" rx="11" ry="11" style="stroke: #2E8B57; stroke-width: 1.0;"/><path d="M703.8986,544.5313 L706.2893,545.2813 Q705.7424,547.2656 704.4689,548.2344 Q703.1955,549.2031 701.2268,549.2031 Q698.8049,549.2031 697.2502,547.5469 Q695.6955,545.8906 695.6955,543.0156 Q695.6955,539.9844 697.258,538.3047 Q698.8205,536.625 701.383,536.625 Q703.6174,536.625 705.008,537.9375 Q705.8361,538.7188 706.258,540.1875 L703.8205,540.7656 Q703.6018,539.8125 702.9221,539.2656 Q702.2424,538.7188 701.258,538.7188 Q699.8986,538.7188 699.0627,539.6953 Q698.2268,540.6719 698.2268,542.8438 Q698.2268,545.1406 699.0549,546.125 Q699.883,547.1094 701.2111,547.1094 Q702.1955,547.1094 702.8986,546.4844 Q703.6018,545.8594 703.8986,544.5313 Z "/><text fill="#000000" font-size="12" lengthAdjust="spacingAndGlyphs" textLength="56" x="715.133" y="547.4531">Cancelled</text><line style="stroke: #2E8B57; stroke-width: 1.5;" x1="687.133" x2="773.133" y1="559" y2="559"/><line style="stroke: #2E8B57; stroke-width: 1.5;" x1="687.133" x2="773.133" y1="567" y2="567"/><rect fill="#FFF8DC" filter="url(#f1)" height="48" style="stroke: #2E8B57; stroke-width: 1.5;" width="134" x="50.1327" y="527"/><ellipse cx="65.1327" cy="543" fill="#ADD1B2" rx="11" ry="11" style="stroke: #2E8B57; stroke-width: 1.0;"/><path d="M67.8983,544.5313 L70.289,545.2813 Q69.7421,547.2656 68.4686,548.2344 Q67.1952,549.2031 65.2265,549.2031 Q62.8046,549.2031 61.2499,547.5469 Q59.6952,545.8906 59.6952,543.0156 Q59.6952,539.9844 61.2577,538.3047 Q62.8202,536.625 65.3827,536.625 Q67.6171,536.625 69.0077,537.9375 Q69.8358,538.7188 70.2577,540.1875 L67.8202,540.7656 Q67.6015,539.8125 66.9218,539.2656 Q66.2421,538.7188 65.2577,538.7188 Q63.8983,538.7188 63.0624,539.6953 Q62.2265,540.6719 62.2265,542.8438 Q62.2265,545.1406 63.0546,546.125 Q63.8827,547.1094 65.2108,547.1094 Q66.1952,547.1094 66.8983,546.4844 Q67.6015,545.8594 67.8983,544.5313 Z "/><text fill="#000000" font-size="12" lengthAdjust="spacingAndGlyphs" textLength="102" x="79.1327" y="547.4531">CustomerConsole</text><line style="stroke: #2E8B57; stroke-width: 1.5;" x1="51.1327" x2="183.1327" y1="559" y2="559"/><line style="stroke: #2E8B57; stroke-width: 1.5;" x1="51.1327" x2="183.1327" y1="567" y2="567"/><rect fill="#FFF8DC" filter="url(#f1)" height="48" style="stroke: #2E8B57; stroke-width: 1.5;" width="130" x="219.133" y="527"/><ellipse cx="234.133" cy="543" fill="#ADD1B2" rx="11" ry="11" style="stroke: #2E8B57; stroke-width: 1.0;"/><path d="M236.8986,544.5313 L239.2893,545.2813 Q238.7424,547.2656 237.4689,548.2344 Q236.1955,549.2031 234.2268,549.2031 Q231.8049,549.2031 230.2502,547.5469 Q228.6955,545.8906 228.6955,543.0156 Q228.6955,539.9844 230.258,538.3047 Q231.8205,536.625 234.383,536.625 Q236.6174,536.625 238.008,537.9375 Q238.8361,538.7188 239.258,540.1875 L236.8205,540.7656 Q236.6018,539.8125 235.9221,539.2656 Q235.2424,538.7188 234.258,538.7188 Q232.8986,538.7188 232.0627,539.6953 Q231.2268,540.6719 231.2268,542.8438 Q231.2268,545.1406 232.0549,546.125 Q232.883,547.1094 234.2111,547.1094 Q235.1955,547.1094 235.8986,546.4844 Q236.6018,545.8594 236.8986,544.5313 Z "/><text fill="#000000" font-size="12" lengthAdjust="spacingAndGlyphs" textLength="98" x="248.133" y="547.4531">EnvelopeAcceptor</text><line style="stroke: #2E8B57; stroke-width: 1.5;" x1="220.133" x2="348.133" y1="559" y2="559"/><line style="stroke: #2E8B57; stroke-width: 1.5;" x1="220.133" x2="348.133" y1="567" y2="567"/><rect fill="#FFF8DC" filter="url(#f1)" height="48" style="stroke: #2E8B57; stroke-width: 1.5;" width="112" x="384.133" y="527"/><ellipse cx="399.133" cy="543" fill="#ADD1B2" rx="11" ry="11" style="stroke: #2E8B57; stroke-width: 1.0;"/><path d="M401.8986,544.5313 L404.2893,545.2813 Q403.7424,547.2656 402.4689,548.2344 Q401.1955,549.2031 399.2268,549.2031 Q396.8049,549.2031 395.2502,547.5469 Q393.6955,545.8906 393.6955,543.0156 Q393.6955,539.9844 395.258,538.3047 Q396.8205,536.625 399.383,536.625 Q401.6174,536.625 403.008,537.9375 Q403.8361,538.7188 404.258,540.1875 L401.8205,540.7656 Q401.6018,539.8125 400.9221,539.2656 Q400.2424,538.7188 399.258,538.7188 Q397.8986,538.7188 397.0627,539.6953 Q396.2268,540.6719 396.2268,542.8438 Q396.2268,545.1406 397.0549,546.125 Q397.883,547.1094 399.2111,547.1094 Q400.1955,547.1094 400.8986,546.4844 Q401.6018,545.8594 401.8986,544.5313 Z "/><text fill="#000000" font-size="12" lengthAdjust="spacingAndGlyphs" textLength="80" x="413.133" y="547.4531">OperatorPanel</text><line style="stroke: #2E8B57; stroke-width: 1.5;" x1="385.133" x2="495.133" y1="559" y2="559"/><line style="stroke: #2E8B57; stroke-width: 1.5;" x1="385.133" x2="495.133" y1="567" y2="567"/><rect fill="#FFF8DC" filter="url(#f1)" height="48" style="stroke: #2E8B57; stroke-width: 1.5;" width="110" x="1099.13" y="527"/><ellipse cx="1114.13" cy="543" fill="#ADD1B2" rx="11" ry="11" style="stroke: #2E8B57; stroke-width: 1.0;"/><path d="M1116.8956,544.5313 L1119.2863,545.2813 Q1118.7394,547.2656 1117.4659,548.2344 Q1116.1925,549.2031 1114.2238,549.2031 Q1111.8019,549.2031 1110.2472,547.5469 Q1108.6925,545.8906 1108.6925,543.0156 Q1108.6925,539.9844 1110.255,538.3047 Q1111.8175,536.625 1114.38,536.625 Q1116.6144,536.625 1118.005,537.9375 Q1118.8331,538.7188 1119.255,540.1875 L1116.8175,540.7656 Q1116.5988,539.8125 1115.9191,539.2656 Q1115.2394,538.7188 1114.255,538.7188 Q1112.8956,538.7188 1112.0597,539.6953 Q1111.2238,540.6719 1111.2238,542.8438 Q1111.2238,545.1406 1112.0519,546.125 Q1112.88,547.1094 1114.2081,547.1094 Q1115.1925,547.1094 1115.8956,546.4844 Q1116.5988,545.8594 1116.8956,544.5313 Z "/><text fill="#000000" font-size="12" lengthAdjust="spacingAndGlyphs" textLength="78" x="1128.13" y="547.4531">ReceiptPrinter</text><line style="stroke: #2E8B57; stroke-width: 1.5;" x1="1100.13" x2="1208.13" y1="559" y2="559"/><line style="stroke: #2E8B57; stroke-width: 1.5;" x1="1100.13" x2="1208.13" y1="567" y2="567"/><rect fill="#FFF8DC" filter="url(#f1)" height="48" style="stroke: #2E8B57; stroke-width: 1.5;" width="83" x="2900.88" y="527"/><ellipse cx="2915.88" cy="543" fill="#ADD1B2" rx="11" ry="11" style="stroke: #2E8B57; stroke-width: 1.0;"/><path d="M2918.6456,544.5313 L2921.0363,545.2813 Q2920.4894,547.2656 2919.2159,548.2344 Q2917.9425,549.2031 2915.9738,549.2031 Q2913.5519,549.2031 2911.9972,547.5469 Q2910.4425,545.8906 2910.4425,543.0156 Q2910.4425,539.9844 2912.005,538.3047 Q2913.5675,536.625 2916.13,536.625 Q2918.3644,536.625 2919.755,537.9375 Q2920.5831,538.7188 2921.005,540.1875 L2918.5675,540.7656 Q2918.3488,539.8125 2917.6691,539.2656 Q2916.9894,538.7188 2916.005,538.7188 Q2914.6456,538.7188 2913.8097,539.6953 Q2912.9738,540.6719 2912.9738,542.8438 Q2912.9738,545.1406 2913.8019,546.125 Q2914.63,547.1094 2915.9581,547.1094 Q2916.9425,547.1094 2917.6456,546.4844 Q2918.3488,545.8594 2918.6456,544.5313 Z "/><text fill="#000000" font-size="12" lengthAdjust="spacingAndGlyphs" textLength="51" x="2929.88" y="547.4531">Message</text><line style="stroke: #2E8B57; stroke-width: 1.5;" x1="2901.88" x2="2982.88" y1="559" y2="559"/><line style="stroke: #2E8B57; stroke-width: 1.5;" x1="2901.88" x2="2982.88" y1="567" y2="567"/><rect fill="#FFF8DC" filter="url(#f1)" height="48" style="stroke: #2E8B57; stroke-width: 1.5;" width="67" x="3027.88" y="635"/><ellipse cx="3042.88" cy="651" fill="#ADD1B2" rx="11" ry="11" style="stroke: #2E8B57; stroke-width: 1.0;"/><path d="M3045.6456,652.5313 L3048.0363,653.2813 Q3047.4894,655.2656 3046.2159,656.2344 Q3044.9425,657.2031 3042.9738,657.2031 Q3040.5519,657.2031 3038.9972,655.5469 Q3037.4425,653.8906 3037.4425,651.0156 Q3037.4425,647.9844 3039.005,646.3047 Q3040.5675,644.625 3043.13,644.625 Q3045.3644,644.625 3046.755,645.9375 Q3047.5831,646.7188 3048.005,648.1875 L3045.5675,648.7656 Q3045.3488,647.8125 3044.6691,647.2656 Q3043.9894,646.7188 3043.005,646.7188 Q3041.6456,646.7188 3040.8097,647.6953 Q3039.9738,648.6719 3039.9738,650.8438 Q3039.9738,653.1406 3040.8019,654.125 Q3041.63,655.1094 3042.9581,655.1094 Q3043.9425,655.1094 3044.6456,654.4844 Q3045.3488,653.8594 3045.6456,652.5313 Z "/><text fill="#000000" font-size="12" lengthAdjust="spacingAndGlyphs" textLength="35" x="3056.88" y="655.4531">Money</text><line style="stroke: #2E8B57; stroke-width: 1.5;" x1="3028.88" x2="3093.88" y1="667" y2="667"/><line style="stroke: #2E8B57; stroke-width: 1.5;" x1="3028.88" x2="3093.88" y1="675" y2="675"/><rect fill="#FFF8DC" filter="url(#f1)" height="48" style="stroke: #2E8B57; stroke-width: 1.5;" width="67" x="2798.88" y="527"/><ellipse cx="2813.88" cy="543" fill="#ADD1B2" rx="11" ry="11" style="stroke: #2E8B57; stroke-width: 1.0;"/><path d="M2816.6456,544.5313 L2819.0363,545.2813 Q2818.4894,547.2656 2817.2159,548.2344 Q2815.9425,549.2031 2813.9738,549.2031 Q2811.5519,549.2031 2809.9972,547.5469 Q2808.4425,545.8906 2808.4425,543.0156 Q2808.4425,539.9844 2810.005,538.3047 Q2811.5675,536.625 2814.13,536.625 Q2816.3644,536.625 2817.755,537.9375 Q2818.5831,538.7188 2819.005,540.1875 L2816.5675,540.7656 Q2816.3488,539.8125 2815.6691,539.2656 Q2814.9894,538.7188 2814.005,538.7188 Q2812.6456,538.7188 2811.8097,539.6953 Q2810.9738,540.6719 2810.9738,542.8438 Q2810.9738,545.1406 2811.8019,546.125 Q2812.63,547.1094 2813.9581,547.1094 Q2814.9425,547.1094 2815.6456,546.4844 Q2816.3488,545.8594 2816.6456,544.5313 Z "/><text fill="#000000" font-size="12" lengthAdjust="spacingAndGlyphs" textLength="35" x="2827.88" y="547.4531">Status</text><line style="stroke: #2E8B57; stroke-width: 1.5;" x1="2799.88" x2="2864.88" y1="559" y2="559"/><line style="stroke: #2E8B57; stroke-width: 1.5;" x1="2799.88" x2="2864.88" y1="567" y2="567"/><rect fill="#FFF8DC" filter="url(#f1)" height="48" style="stroke: #2E8B57; stroke-width: 1.5;" width="59" x="2922.88" y="635"/><ellipse cx="2937.88" cy="651" fill="#ADD1B2" rx="11" ry="11" style="stroke: #2E8B57; stroke-width: 1.0;"/><path d="M2940.6456,652.5313 L2943.0363,653.2813 Q2942.4894,655.2656 2941.2159,656.2344 Q2939.9425,657.2031 2937.9738,657.2031 Q2935.5519,657.2031 2933.9972,655.5469 Q2932.4425,653.8906 2932.4425,651.0156 Q2932.4425,647.9844 2934.005,646.3047 Q2935.5675,644.625 2938.13,644.625 Q2940.3644,644.625 2941.755,645.9375 Q2942.5831,646.7188 2943.005,648.1875 L2940.5675,648.7656 Q2940.3488,647.8125 2939.6691,647.2656 Q2938.9894,646.7188 2938.005,646.7188 Q2936.6456,646.7188 2935.8097,647.6953 Q2934.9738,648.6719 2934.9738,650.8438 Q2934.9738,653.1406 2935.8019,654.125 Q2936.63,655.1094 2937.9581,655.1094 Q2938.9425,655.1094 2939.6456,654.4844 Q2940.3488,653.8594 2940.6456,652.5313 Z "/><text fill="#000000" font-size="12" lengthAdjust="spacingAndGlyphs" textLength="27" x="2951.88" y="655.4531">Card</text><line style="stroke: #2E8B57; stroke-width: 1.5;" x1="2923.88" x2="2980.88" y1="667" y2="667"/><line style="stroke: #2E8B57; stroke-width: 1.5;" x1="2923.88" x2="2980.88" y1="675" y2="675"/><rect fill="#FFF8DC" filter="url(#f1)" height="48" style="stroke: #2E8B57; stroke-width: 1.5;" width="84" x="3019.13" y="527"/><ellipse cx="3034.13" cy="543" fill="#ADD1B2" rx="11" ry="11" style="stroke: #2E8B57; stroke-width: 1.0;"/><path d="M3036.8956,544.5313 L3039.2863,545.2813 Q3038.7394,547.2656 3037.4659,548.2344 Q3036.1925,549.2031 3034.2238,549.2031 Q3031.8019,549.2031 3030.2472,547.5469 Q3028.6925,545.8906 3028.6925,543.0156 Q3028.6925,539.9844 3030.255,538.3047 Q3031.8175,536.625 3034.38,536.625 Q3036.6144,536.625 3038.005,537.9375 Q3038.8331,538.7188 3039.255,540.1875 L3036.8175,540.7656 Q3036.5988,539.8125 3035.9191,539.2656 Q3035.2394,538.7188 3034.255,538.7188 Q3032.8956,538.7188 3032.0597,539.6953 Q3031.2238,540.6719 3031.2238,542.8438 Q3031.2238,545.1406 3032.0519,546.125 Q3032.88,547.1094 3034.2081,547.1094 Q3035.1925,547.1094 3035.8956,546.4844 Q3036.5988,545.8594 3036.8956,544.5313 Z "/><text fill="#000000" font-size="12" lengthAdjust="spacingAndGlyphs" textLength="52" x="3048.13" y="547.4531">Balances</text><line style="stroke: #2E8B57; stroke-width: 1.5;" x1="3020.13" x2="3102.13" y1="559" y2="559"/><line style="stroke: #2E8B57; stroke-width: 1.5;" x1="3020.13" x2="3102.13" y1="567" y2="567"/><rect fill="#FFF8DC" filter="url(#f1)" height="48" style="stroke: #2E8B57; stroke-width: 1.5;" width="74" x="2689.13" y="527"/><ellipse cx="2704.13" cy="543" fill="#ADD1B2" rx="11" ry="11" style="stroke: #2E8B57; stroke-width: 1.0;"/><path d="M2706.8956,544.5313 L2709.2863,545.2813 Q2708.7394,547.2656 2707.4659,548.2344 Q2706.1925,549.2031 2704.2238,549.2031 Q2701.8019,549.2031 2700.2472,547.5469 Q2698.6925,545.8906 2698.6925,543.0156 Q2698.6925,539.9844 2700.255,538.3047 Q2701.8175,536.625 2704.38,536.625 Q2706.6144,536.625 2708.005,537.9375 Q2708.8331,538.7188 2709.255,540.1875 L2706.8175,540.7656 Q2706.5988,539.8125 2705.9191,539.2656 Q2705.2394,538.7188 2704.255,538.7188 Q2702.8956,538.7188 2702.0597,539.6953 Q2701.2238,540.6719 2701.2238,542.8438 Q2701.2238,545.1406 2702.0519,546.125 Q2702.88,547.1094 2704.2081,547.1094 Q2705.1925,547.1094 2705.8956,546.4844 Q2706.5988,545.8594 2706.8956,544.5313 Z "/><text fill="#000000" font-size="12" lengthAdjust="spacingAndGlyphs" textLength="42" x="2718.13" y="547.4531">Receipt</text><line style="stroke: #2E8B57; stroke-width: 1.5;" x1="2690.13" x2="2762.13" y1="559" y2="559"/><line style="stroke: #2E8B57; stroke-width: 1.5;" x1="2690.13" x2="2762.13" y1="567" y2="567"/><rect fill="#FFF8DC" filter="url(#f1)" height="48" style="stroke: #2E8B57; stroke-width: 1.5;" width="137" x="2516.88" y="527"/><ellipse cx="2531.88" cy="543" fill="#ADD1B2" rx="11" ry="11" style="stroke: #2E8B57; stroke-width: 1.0;"/><path d="M2534.6456,544.5313 L2537.0363,545.2813 Q2536.4894,547.2656 2535.2159,548.2344 Q2533.9425,549.2031 2531.9738,549.2031 Q2529.5519,549.2031 2527.9972,547.5469 Q2526.4425,545.8906 2526.4425,543.0156 Q2526.4425,539.9844 2528.005,538.3047 Q2529.5675,536.625 2532.13,536.625 Q2534.3644,536.625 2535.755,537.9375 Q2536.5831,538.7188 2537.005,540.1875 L2534.5675,540.7656 Q2534.3488,539.8125 2533.6691,539.2656 Q2532.9894,538.7188 2532.005,538.7188 Q2530.6456,538.7188 2529.8097,539.6953 Q2528.9738,540.6719 2528.9738,542.8438 Q2528.9738,545.1406 2529.8019,546.125 Q2530.63,547.1094 2531.9581,547.1094 Q2532.9425,547.1094 2533.6456,546.4844 Q2534.3488,545.8594 2534.6456,544.5313 Z "/><text fill="#000000" font-size="12" lengthAdjust="spacingAndGlyphs" textLength="105" x="2545.88" y="547.4531">AccountInformation</text><line style="stroke: #2E8B57; stroke-width: 1.5;" x1="2517.88" x2="2652.88" y1="559" y2="559"/><line style="stroke: #2E8B57; stroke-width: 1.5;" x1="2517.88" x2="2652.88" y1="567" y2="567"/><rect fill="#FFF8DC" filter="url(#f1)" height="48" style="stroke: #2E8B57; stroke-width: 1.5;" width="97" x="2988.88" y="169"/><ellipse cx="3003.88" cy="185" fill="#ADD1B2" rx="11" ry="11" style="stroke: #2E8B57; stroke-width: 1.0;"/><path d="M3006.6456,186.5313 L3009.0363,187.2813 Q3008.4894,189.2656 3007.2159,190.2344 Q3005.9425,191.2031 3003.9738,191.2031 Q3001.5519,191.2031 2999.9972,189.5469 Q2998.4425,187.8906 2998.4425,185.0156 Q2998.4425,181.9844 3000.005,180.3047 Q3001.5675,178.625 3004.13,178.625 Q3006.3644,178.625 3007.755,179.9375 Q3008.5831,180.7188 3009.005,182.1875 L3006.5675,182.7656 Q3006.3488,181.8125 3005.6691,181.2656 Q3004.9894,180.7188 3004.005,180.7188 Q3002.6456,180.7188 3001.8097,181.6953 Q3000.9738,182.6719 3000.9738,184.8438 Q3000.9738,187.1406 3001.8019,188.125 Q3002.63,189.1094 3003.9581,189.1094 Q3004.9425,189.1094 3005.6456,188.4844 Q3006.3488,187.8594 3006.6456,186.5313 Z "/><text fill="#000000" font-size="12" lengthAdjust="spacingAndGlyphs" textLength="65" x="3017.88" y="189.4531">Transaction</text><line style="stroke: #2E8B57; stroke-width: 1.5;" x1="2989.88" x2="3084.88" y1="201" y2="201"/><line style="stroke: #2E8B57; stroke-width: 1.5;" x1="2989.88" x2="3084.88" y1="209" y2="209"/><rect fill="#FFF8DC" filter="url(#f1)" height="48" style="stroke: #2E8B57; stroke-width: 1.5;" width="75" x="2999.88" y="61"/><ellipse cx="3014.88" cy="77" fill="#ADD1B2" rx="11" ry="11" style="stroke: #2E8B57; stroke-width: 1.0;"/><path d="M3017.6456,78.5313 L3020.0363,79.2813 Q3019.4894,81.2656 3018.2159,82.2344 Q3016.9425,83.2031 3014.9738,83.2031 Q3012.5519,83.2031 3010.9972,81.5469 Q3009.4425,79.8906 3009.4425,77.0156 Q3009.4425,73.9844 3011.005,72.3047 Q3012.5675,70.625 3015.13,70.625 Q3017.3644,70.625 3018.755,71.9375 Q3019.5831,72.7188 3020.005,74.1875 L3017.5675,74.7656 Q3017.3488,73.8125 3016.6691,73.2656 Q3015.9894,72.7188 3015.005,72.7188 Q3013.6456,72.7188 3012.8097,73.6953 Q3011.9738,74.6719 3011.9738,76.8438 Q3011.9738,79.1406 3012.8019,80.125 Q3013.63,81.1094 3014.9581,81.1094 Q3015.9425,81.1094 3016.6456,80.4844 Q3017.3488,79.8594 3017.6456,78.5313 Z "/><text fill="#000000" font-size="12" lengthAdjust="spacingAndGlyphs" textLength="43" x="3028.88" y="81.4531">Deposit</text><line style="stroke: #2E8B57; stroke-width: 1.5;" x1="3000.88" x2="3073.88" y1="93" y2="93"/><line style="stroke: #2E8B57; stroke-width: 1.5;" x1="3000.88" x2="3073.88" y1="101" y2="101"/><rect fill="#FFF8DC" filter="url(#f1)" height="48" style="stroke: #2E8B57; stroke-width: 1.5;" width="109" x="3223.88" y="61"/><ellipse cx="3238.88" cy="77" fill="#ADD1B2" rx="11" ry="11" style="stroke: #2E8B57; stroke-width: 1.0;"/><path d="M3241.6456,78.5313 L3244.0363,79.2813 Q3243.4894,81.2656 3242.2159,82.2344 Q3240.9425,83.2031 3238.9738,83.2031 Q3236.5519,83.2031 3234.9972,81.5469 Q3233.4425,79.8906 3233.4425,77.0156 Q3233.4425,73.9844 3235.005,72.3047 Q3236.5675,70.625 3239.13,70.625 Q3241.3644,70.625 3242.755,71.9375 Q3243.5831,72.7188 3244.005,74.1875 L3241.5675,74.7656 Q3241.3488,73.8125 3240.6691,73.2656 Q3239.9894,72.7188 3239.005,72.7188 Q3237.6456,72.7188 3236.8097,73.6953 Q3235.9738,74.6719 3235.9738,76.8438 Q3235.9738,79.1406 3236.8019,80.125 Q3237.63,81.1094 3238.9581,81.1094 Q3239.9425,81.1094 3240.6456,80.4844 Q3241.3488,79.8594 3241.6456,78.5313 Z "/><text fill="#000000" font-size="12" lengthAdjust="spacingAndGlyphs" textLength="77" x="3252.88" y="81.4531">CardRetained</text><line style="stroke: #2E8B57; stroke-width: 1.5;" x1="3224.88" x2="3331.88" y1="93" y2="93"/><line style="stroke: #2E8B57; stroke-width: 1.5;" x1="3224.88" x2="3331.88" y1="101" y2="101"/><rect fill="#FFF8DC" filter="url(#f1)" height="48" style="stroke: #2E8B57; stroke-width: 1.5;" width="78" x="3110.13" y="61"/><ellipse cx="3125.13" cy="77" fill="#ADD1B2" rx="11" ry="11" style="stroke: #2E8B57; stroke-width: 1.0;"/><path d="M3127.8956,78.5313 L3130.2863,79.2813 Q3129.7394,81.2656 3128.4659,82.2344 Q3127.1925,83.2031 3125.2238,83.2031 Q3122.8019,83.2031 3121.2472,81.5469 Q3119.6925,79.8906 3119.6925,77.0156 Q3119.6925,73.9844 3121.255,72.3047 Q3122.8175,70.625 3125.38,70.625 Q3127.6144,70.625 3129.005,71.9375 Q3129.8331,72.7188 3130.255,74.1875 L3127.8175,74.7656 Q3127.5988,73.8125 3126.9191,73.2656 Q3126.2394,72.7188 3125.255,72.7188 Q3123.8956,72.7188 3123.0597,73.6953 Q3122.2238,74.6719 3122.2238,76.8438 Q3122.2238,79.1406 3123.0519,80.125 Q3123.88,81.1094 3125.2081,81.1094 Q3126.1925,81.1094 3126.8956,80.4844 Q3127.5988,79.8594 3127.8956,78.5313 Z "/><text fill="#000000" font-size="12" lengthAdjust="spacingAndGlyphs" textLength="46" x="3139.13" y="81.4531">Transfer</text><line style="stroke: #2E8B57; stroke-width: 1.5;" x1="3111.13" x2="3187.13" y1="93" y2="93"/><line style="stroke: #2E8B57; stroke-width: 1.5;" x1="3111.13" x2="3187.13" y1="101" y2="101"/><rect fill="#FFF8DC" filter="url(#f1)" height="48" style="stroke: #2E8B57; stroke-width: 1.5;" width="93" x="3367.88" y="61"/><ellipse cx="3382.88" cy="77" fill="#ADD1B2" rx="11" ry="11" style="stroke: #2E8B57; stroke-width: 1.0;"/><path d="M3385.6456,78.5313 L3388.0363,79.2813 Q3387.4894,81.2656 3386.2159,82.2344 Q3384.9425,83.2031 3382.9738,83.2031 Q3380.5519,83.2031 3378.9972,81.5469 Q3377.4425,79.8906 3377.4425,77.0156 Q3377.4425,73.9844 3379.005,72.3047 Q3380.5675,70.625 3383.13,70.625 Q3385.3644,70.625 3386.755,71.9375 Q3387.5831,72.7188 3388.005,74.1875 L3385.5675,74.7656 Q3385.3488,73.8125 3384.6691,73.2656 Q3383.9894,72.7188 3383.005,72.7188 Q3381.6456,72.7188 3380.8097,73.6953 Q3379.9738,74.6719 3379.9738,76.8438 Q3379.9738,79.1406 3380.8019,80.125 Q3381.63,81.1094 3382.9581,81.1094 Q3383.9425,81.1094 3384.6456,80.4844 Q3385.3488,79.8594 3385.6456,78.5313 Z "/><text fill="#000000" font-size="12" lengthAdjust="spacingAndGlyphs" textLength="61" x="3396.88" y="81.4531">Withdrawal</text><line style="stroke: #2E8B57; stroke-width: 1.5;" x1="3368.88" x2="3459.88" y1="93" y2="93"/><line style="stroke: #2E8B57; stroke-width: 1.5;" x1="3368.88" x2="3459.88" y1="101" y2="101"/><rect fill="#FFF8DC" filter="url(#f1)" height="48" style="stroke: #2E8B57; stroke-width: 1.5;" width="68" x="2896.13" y="61"/><ellipse cx="2911.13" cy="77" fill="#ADD1B2" rx="11" ry="11" style="stroke: #2E8B57; stroke-width: 1.0;"/><path d="M2913.8956,78.5313 L2916.2863,79.2813 Q2915.7394,81.2656 2914.4659,82.2344 Q2913.1925,83.2031 2911.2238,83.2031 Q2908.8019,83.2031 2907.2472,81.5469 Q2905.6925,79.8906 2905.6925,77.0156 Q2905.6925,73.9844 2907.255,72.3047 Q2908.8175,70.625 2911.38,70.625 Q2913.6144,70.625 2915.005,71.9375 Q2915.8331,72.7188 2916.255,74.1875 L2913.8175,74.7656 Q2913.5988,73.8125 2912.9191,73.2656 Q2912.2394,72.7188 2911.255,72.7188 Q2909.8956,72.7188 2909.0597,73.6953 Q2908.2238,74.6719 2908.2238,76.8438 Q2908.2238,79.1406 2909.0519,80.125 Q2909.88,81.1094 2911.2081,81.1094 Q2912.1925,81.1094 2912.8956,80.4844 Q2913.5988,79.8594 2913.8956,78.5313 Z "/><text fill="#000000" font-size="12" lengthAdjust="spacingAndGlyphs" textLength="36" x="2925.13" y="81.4531">Inquiry</text><line style="stroke: #2E8B57; stroke-width: 1.5;" x1="2897.13" x2="2963.13" y1="93" y2="93"/><line style="stroke: #2E8B57; stroke-width: 1.5;" x1="2897.13" x2="2963.13" y1="101" y2="101"/><rect fill="#FFF8DC" filter="url(#f1)" height="48" style="stroke: #2E8B57; stroke-width: 1.5;" width="81" x="3641.88" y="61"/><ellipse cx="3656.88" cy="77" fill="#ADD1B2" rx="11" ry="11" style="stroke: #2E8B57; stroke-width: 1.0;"/><path d="M3659.6456,78.5313 L3662.0363,79.2813 Q3661.4894,81.2656 3660.2159,82.2344 Q3658.9425,83.2031 3656.9738,83.2031 Q3654.5519,83.2031 3652.9972,81.5469 Q3651.4425,79.8906 3651.4425,77.0156 Q3651.4425,73.9844 3653.005,72.3047 Q3654.5675,70.625 3657.13,70.625 Q3659.3644,70.625 3660.755,71.9375 Q3661.5831,72.7188 3662.005,74.1875 L3659.5675,74.7656 Q3659.3488,73.8125 3658.6691,73.2656 Q3657.9894,72.7188 3657.005,72.7188 Q3655.6456,72.7188 3654.8097,73.6953 Q3653.9738,74.6719 3653.9738,76.8438 Q3653.9738,79.1406 3654.8019,80.125 Q3655.63,81.1094 3656.9581,81.1094 Q3657.9425,81.1094 3658.6456,80.4844 Q3659.3488,79.8594 3659.6456,78.5313 Z "/><text fill="#000000" font-size="12" lengthAdjust="spacingAndGlyphs" textLength="49" x="3670.88" y="81.4531">ATMMain</text><line style="stroke: #2E8B57; stroke-width: 1.5;" x1="3642.88" x2="3721.88" y1="93" y2="93"/><line style="stroke: #2E8B57; stroke-width: 1.5;" x1="3642.88" x2="3721.88" y1="101" y2="101"/><rect fill="#FFF8DC" filter="url(#f1)" height="48" style="stroke: #2E8B57; stroke-width: 1.5;" width="89" x="3517.88" y="61"/><ellipse cx="3532.88" cy="77" fill="#ADD1B2" rx="11" ry="11" style="stroke: #2E8B57; stroke-width: 1.0;"/><path d="M3535.6456,78.5313 L3538.0363,79.2813 Q3537.4894,81.2656 3536.2159,82.2344 Q3534.9425,83.2031 3532.9738,83.2031 Q3530.5519,83.2031 3528.9972,81.5469 Q3527.4425,79.8906 3527.4425,77.0156 Q3527.4425,73.9844 3529.005,72.3047 Q3530.5675,70.625 3533.13,70.625 Q3535.3644,70.625 3536.755,71.9375 Q3537.5831,72.7188 3538.005,74.1875 L3535.5675,74.7656 Q3535.3488,73.8125 3534.6691,73.2656 Q3533.9894,72.7188 3533.005,72.7188 Q3531.6456,72.7188 3530.8097,73.6953 Q3529.9738,74.6719 3529.9738,76.8438 Q3529.9738,79.1406 3530.8019,80.125 Q3531.63,81.1094 3532.9581,81.1094 Q3533.9425,81.1094 3534.6456,80.4844 Q3535.3488,79.8594 3535.6456,78.5313 Z "/><text fill="#000000" font-size="12" lengthAdjust="spacingAndGlyphs" textLength="57" x="3546.88" y="81.4531">ATMApplet</text><line style="stroke: #2E8B57; stroke-width: 1.5;" x1="3518.88" x2="3605.88" y1="93" y2="93"/><line style="stroke: #2E8B57; stroke-width: 1.5;" x1="3518.88" x2="3605.88" y1="101" y2="101"/><rect fill="#FFF8DC" filter="url(#f1)" height="48" style="stroke: #2E8B57; stroke-width: 1.5;" width="106" x="3779.13" y="61"/><ellipse cx="3794.13" cy="77" fill="#ADD1B2" rx="11" ry="11" style="stroke: #2E8B57; stroke-width: 1.0;"/><path d="M3796.8956,78.5313 L3799.2863,79.2813 Q3798.7394,81.2656 3797.4659,82.2344 Q3796.1925,83.2031 3794.2238,83.2031 Q3791.8019,83.2031 3790.2472,81.5469 Q3788.6925,79.8906 3788.6925,77.0156 Q3788.6925,73.9844 3790.255,72.3047 Q3791.8175,70.625 3794.38,70.625 Q3796.6144,70.625 3798.005,71.9375 Q3798.8331,72.7188 3799.255,74.1875 L3796.8175,74.7656 Q3796.5988,73.8125 3795.9191,73.2656 Q3795.2394,72.7188 3794.255,72.7188 Q3792.8956,72.7188 3792.0597,73.6953 Q3791.2238,74.6719 3791.2238,76.8438 Q3791.2238,79.1406 3792.0519,80.125 Q3792.88,81.1094 3794.2081,81.1094 Q3795.1925,81.1094 3795.8956,80.4844 Q3796.5988,79.8594 3796.8956,78.5313 Z "/><text fill="#000000" font-size="12" lengthAdjust="spacingAndGlyphs" textLength="74" x="3808.13" y="81.4531">EARootClass</text><line style="stroke: #2E8B57; stroke-width: 1.5;" x1="3780.13" x2="3884.13" y1="93" y2="93"/><line style="stroke: #2E8B57; stroke-width: 1.5;" x1="3780.13" x2="3884.13" y1="101" y2="101"/><path d="M992.965,526.992 C979.97,513.345 962.693,496.029 946.133,482 C930.464,468.727 911.739,455.303 896.677,445.039 " fill="none" style="stroke: #A80036; stroke-width: 1.0;"/><path d="M869.133,450.135 C869.133,470.494 869.133,500.191 869.133,521.908 " fill="none" style="stroke: #A80036; stroke-width: 1.0;"/><polygon fill="#A80036" points="869.133,526.968,873.133,517.968,869.133,521.968,865.133,517.968,869.133,526.968" style="stroke: #A80036; stroke-width: 1.0;"/><path d="M841.781,427.12 C731.597,427.926 320.479,434.147 201.133,482 C178.656,491.012 157.493,508.221 142.031,523.071 " fill="none" style="stroke: #A80036; stroke-width: 1.0;"/><polygon fill="#A80036" points="138.226,526.789,147.4585,523.3596,141.802,523.2944,141.8672,517.6379,138.226,526.789" style="stroke: #A80036; stroke-width: 1.0;"/><path d="M841.573,427.934 C749.459,431.378 453.192,445.128 366.133,482 C344.153,491.309 323.494,508.515 308.41,523.289 " fill="none" style="stroke: #A80036; stroke-width: 1.0;"/><polygon fill="#A80036" points="304.698,526.987,313.8968,523.4682,308.24,523.4579,308.2502,517.8011,304.698,526.987" style="stroke: #A80036; stroke-width: 1.0;"/><path d="M841.518,426.635 C703.039,425.088 88.6215,421.677 32.1327,482 C-3.411,519.956 -1.8835,559.669 32.1327,599 C80.6197,655.0623 319.066,658.9328 405.646,658.4458 " fill="none" style="stroke: #A80036; stroke-width: 1.0;"/><polygon fill="#A80036" points="410.882,658.4099,401.8548,654.4717,405.8821,658.4442,401.9096,662.4715,410.882,658.4099" style="stroke: #A80036; stroke-width: 1.0;"/><path d="M841.655,430.481 C801.524,436.433 725.43,451.051 668.133,482 C648.626,492.537 629.907,508.875 615.811,522.896 " fill="none" style="stroke: #A80036; stroke-width: 1.0;"/><polygon fill="#A80036" points="611.96,526.782,621.1351,523.2019,615.4784,523.2294,615.4509,517.5726,611.96,526.782" style="stroke: #A80036; stroke-width: 1.0;"/><path d="M458.68,526.961 C472.34,511.659 492.278,492.515 514.133,482 C572.371,453.98 768.982,435.281 841.751,429.176 " fill="none" style="stroke: #A80036; stroke-width: 1.0;"/><path d="M896.48,429.742 C938.459,434.878 1020.3,448.615 1081.13,482 C1100.15,492.435 1118.03,508.932 1131.33,523.064 " fill="none" style="stroke: #A80036; stroke-width: 1.0;"/><polygon fill="#A80036" points="1134.96,526.98,1131.7816,517.6581,1131.5634,523.3107,1125.9108,523.0926,1134.96,526.98" style="stroke: #A80036; stroke-width: 1.0;"/><path d="M873.831,342 C872.925,358.003 871.711,379.446 870.744,396.528 " fill="none" style="stroke: #A80036; stroke-width: 1.0;"/><polygon fill="#A80036" points="870.453,401.678,874.9557,392.9187,870.7358,396.686,866.9685,392.4662,870.453,401.678" style="stroke: #A80036; stroke-width: 1.0;"/><path d="M837.127,575.032 C823.535,583.796 807.15,593.085 791.133,599 C677.432,640.9848 532.121,653.2304 468.894,656.6905 " fill="none" style="stroke: #A80036; stroke-width: 1.0;"/><polygon fill="#A80036" points="463.759,656.962,472.9578,660.4807,468.752,656.6977,472.535,652.4919,463.759,656.962" style="stroke: #A80036; stroke-width: 1.0;"/><path d="M898.825,575.237 C912.445,584.498 929.288,594.106 946.133,599 C1165.11,662.6284 2773.94,593.324 2998.13,635 C3006.29,636.5155 3014.78,638.9679 3022.79,641.7185 " fill="none" style="stroke: #A80036; stroke-width: 1.0;"/><polygon fill="#A80036" points="3027.71,643.464,3020.565,636.6854,3022.9977,641.7925,3017.8906,644.2252,3027.71,643.464" style="stroke: #A80036; stroke-width: 1.0;"/><path d="M317.331,575 C343.751,593.304 380.445,618.7264 406.241,636.5982 " fill="none" style="stroke: #A80036; stroke-width: 1.0;"/><polygon fill="#A80036" points="410.605,639.6213,405.4865,631.207,406.4955,636.7731,400.9294,637.7821,410.605,639.6213" style="stroke: #A80036; stroke-width: 1.0;"/><path d="M557.717,575 C531.124,593.304 494.191,618.7264 468.226,636.5982 " fill="none" style="stroke: #A80036; stroke-width: 1.0;"/><polygon fill="#A80036" points="463.834,639.6213,473.5153,637.8122,467.9523,636.7859,468.9786,631.2229,463.834,639.6213" style="stroke: #A80036; stroke-width: 1.0;"/><path d="M3062.76,109.003 C3114.62,156.631 3227.13,265.852 3227.13,317 C3227.13,317 3227.13,317 3227.13,427 C3227.13,508.565 3215.76,536.684 3163.13,599 C3146.2,619.0522 3120.62,633.8241 3099.31,643.5721 " fill="none" style="stroke: #A80036; stroke-width: 1.0;"/><polygon fill="#A80036" points="3094.56,645.6977,3104.4088,645.6723,3099.1238,643.6552,3101.1409,638.3702,3094.56,645.6977" style="stroke: #A80036; stroke-width: 1.0;"/><path d="M2988.76,194.331 C2720.6,196.319 1422.44,208.01 1249.13,249 C1111.98,281.439 964.652,365.666 901.199,404.651 " fill="none" style="stroke: #A80036; stroke-width: 1.0;"/><polygon fill="#A80036" points="896.777,407.379,906.5371,406.0598,901.0329,404.7546,902.3381,399.2504,896.777,407.379" style="stroke: #A80036; stroke-width: 1.0;"/><path d="M2988.65,194.454 C2704.57,197.237 1262,213.054 1068.13,249 C1015.48,258.763 957.922,280.603 919.488,296.914 " fill="none" style="stroke: #A80036; stroke-width: 1.0;"/><polygon fill="#A80036" points="914.429,299.076,924.2768,299.2191,919.0271,297.1119,921.1343,291.8622,914.429,299.076" style="stroke: #A80036; stroke-width: 1.0;"/><path d="M3038.69,217.084 C3042.92,279.853 3054.63,453.504 3059.23,521.845 " fill="none" style="stroke: #A80036; stroke-width: 1.0;"/><polygon fill="#A80036" points="3059.58,526.968,3062.9637,517.7186,3059.2427,521.9794,3054.9819,518.2584,3059.58,526.968" style="stroke: #A80036; stroke-width: 1.0;"/><path d="M3053.09,217.183 C3096.61,283.54 3208.39,477.257 3120.13,599 C3089.94,640.6484 3058.51,617.5107 3010.13,635 C3002.37,637.8059 2994.09,640.9788 2986.29,644.0517 " fill="none" style="stroke: #A80036; stroke-width: 1.0;"/><polygon fill="#A80036" points="2981.51,645.948,2991.3507,646.3497,2986.1581,644.1053,2988.4024,638.9128,2981.51,645.948" style="stroke: #A80036; stroke-width: 1.0;"/><path d="M3030.97,217.084 C3014.22,279.853 2967.88,453.504 2949.65,521.845 " fill="none" style="stroke: #A80036; stroke-width: 1.0;"/><polygon fill="#A80036" points="2948.28,526.968,2954.4674,519.3054,2949.5705,522.1374,2946.7385,517.2405,2948.28,526.968" style="stroke: #A80036; stroke-width: 1.0;"/><path d="M3177.16,109.076 C3220.32,147.392 3298.13,228.712 3298.13,317 C3298.13,317 3298.13,317 3298.13,427 C3298.13,510.938 3281.54,541.774 3220.13,599 C3186.57,630.282 3134.95,645.342 3099.69,652.338 " fill="none" style="stroke: #A80036; stroke-width: 1.0;"/><polygon fill="#A80036" points="3094.61,653.3127,3104.2028,655.5438,3099.5203,652.3699,3102.6943,647.6874,3094.61,653.3127" style="stroke: #A80036; stroke-width: 1.0;"/><path d="M3408.44,109.114 C3398.76,150.516 3380.13,240.184 3380.13,317 C3380.13,317 3380.13,317 3380.13,427 C3380.13,514.545 3353.28,545.312 3284.13,599 C3229.65,641.2977 3147.55,653.3868 3099.64,656.7694 " fill="none" style="stroke: #A80036; stroke-width: 1.0;"/><polygon fill="#A80036" points="3094.55,657.1055,3103.7934,660.5054,3099.5392,656.7769,3103.2677,652.5227,3094.55,657.1055" style="stroke: #A80036; stroke-width: 1.0;"/><path d="M3061.13,575 C3061.13,591.003 3061.13,612.446 3061.13,629.528 " fill="none" style="stroke: #A80036; stroke-width: 1.0;"/><polygon fill="#A80036" points="3061.13,634.6784,3065.13,625.6784,3061.13,629.6784,3057.13,625.6784,3061.13,634.6784" style="stroke: #A80036; stroke-width: 1.0;"/><path d="M2944.3,575 C2945.81,591.003 2947.84,612.446 2949.45,629.528 " fill="none" style="stroke: #A80036; stroke-width: 1.0;"/><polygon fill="#A80036" points="2949.93,634.6784,2953.0682,625.3429,2949.461,629.7004,2945.1035,626.0933,2949.93,634.6784" style="stroke: #A80036; stroke-width: 1.0;"/><path d="M2967.95,575 C2986.54,591.555 3011.66,613.931 3031.13,631.2791 " fill="none" style="stroke: #A80036; stroke-width: 1.0;"/><polygon fill="#A80036" points="3034.95,634.6784,3030.894,625.7035,3031.2178,631.3511,3025.5703,631.675,3034.95,634.6784" style="stroke: #A80036; stroke-width: 1.0;"/><path d="M1312.18,450.159 C1321.5,459.285 1333.35,468.81 1346.13,474 C1376.03,486.139 1461.98,468.158 1491.13,482 C1509.6,490.769 1525.1,507.763 1535.98,522.568 " fill="none" style="stroke: #A80036; stroke-width: 1.0;"/><polygon fill="#A80036" points="1538.92,526.677,1536.9204,517.0333,1536.0039,522.6154,1530.4218,521.699,1538.92,526.677" style="stroke: #A80036; stroke-width: 1.0;"/><path d="M1314.91,450.002 C1324.06,458.35 1335.05,467.353 1346.13,474 C1354.7,479.136 1358.85,476.412 1367.13,482 C1383.45,493.016 1398.56,509.033 1409.89,522.756 " fill="none" style="stroke: #A80036; stroke-width: 1.0;"/><polygon fill="#A80036" points="1413.28,526.933,1410.7154,517.4239,1410.1296,523.0503,1404.5032,522.4645,1413.28,526.933" style="stroke: #A80036; stroke-width: 1.0;"/><path d="M1311.86,450.067 C1321.21,459.296 1333.17,468.926 1346.13,474 C1373.77,484.818 1586.07,469.821 1613.13,482 C1632.19,490.574 1648.28,507.75 1659.56,522.694 " fill="none" style="stroke: #A80036; stroke-width: 1.0;"/><polygon fill="#A80036" points="1662.61,526.84,1660.4978,517.2203,1659.6467,522.8127,1654.0542,521.9616,1662.61,526.84" style="stroke: #A80036; stroke-width: 1.0;"/><path d="M1295.14,450.135 C1297.79,470.494 1301.65,500.191 1304.48,521.908 " fill="none" style="stroke: #A80036; stroke-width: 1.0;"/><polygon fill="#A80036" points="1305.14,526.968,1307.944,517.5267,1304.4942,522.0099,1300.011,518.5601,1305.14,526.968" style="stroke: #A80036; stroke-width: 1.0;"/><path d="M1475.16,450.082 C1489.34,459.313 1506.81,468.942 1524.13,474 C1570.03,487.405 1695.45,462.559 1739.13,482 C1758.5,490.622 1775.1,507.798 1786.8,522.729 " fill="none" style="stroke: #A80036; stroke-width: 1.0;"/><polygon fill="#A80036" points="1789.97,526.872,1787.678,517.2936,1786.9317,522.901,1781.3243,522.1548,1789.97,526.872" style="stroke: #A80036; stroke-width: 1.0;"/><path d="M1475.12,450.197 C1489.3,459.45 1506.78,469.063 1524.13,474 C1561.01,484.493 1832.76,469.858 1869.13,482 C1894.53,490.479 1919,508.297 1936.74,523.566 " fill="none" style="stroke: #A80036; stroke-width: 1.0;"/><polygon fill="#A80036" points="1940.65,526.982,1936.5,518.0502,1936.8831,523.694,1931.2393,524.0772,1940.65,526.982" style="stroke: #A80036; stroke-width: 1.0;"/><path d="M2154.14,450.02 C2166.75,458.09 2181.33,466.903 2195.13,474 C2325.05,540.805 2356.93,565.544 2499.13,599 C2715.58,649.9223 2780.71,588.424 2998.13,635 C3006.24,636.737 3014.71,639.2876 3022.72,642.0647 " fill="none" style="stroke: #A80036; stroke-width: 1.0;"/><polygon fill="#A80036" points="3027.64,643.8179,3020.5144,637.019,3022.9325,642.133,3017.8185,644.551,3027.64,643.8179" style="stroke: #A80036; stroke-width: 1.0;"/><path d="M1538.86,325.711 C1405.6,345.467 1016.86,403.099 901.664,420.177 " fill="none" style="stroke: #A80036; stroke-width: 1.0;"/><polygon fill="#A80036" points="896.388,420.959,905.8771,423.5966,901.334,420.2261,904.7045,415.683,896.388,420.959" style="stroke: #A80036; stroke-width: 1.0;"/><path d="M1538.62,333.861 C1490.47,349.817 1412.45,376.345 1346.13,402 C1338.8,404.838 1330.98,408.055 1323.63,411.165 " fill="none" style="stroke: #A80036; stroke-width: 1.0;"/><polygon fill="#A80036" points="1318.63,413.295,1328.478,413.4263,1323.2257,411.3254,1325.3266,406.0731,1318.63,413.295" style="stroke: #A80036; stroke-width: 1.0;"/><path d="M1629.47,341.35 C1664.01,358.383 1711.61,381.849 1747.6,399.593 " fill="none" style="stroke: #A80036; stroke-width: 1.0;"/><polygon fill="#A80036" points="1752.38,401.948,1746.0812,394.3767,1747.8968,399.7342,1742.5392,401.5498,1752.38,401.948" style="stroke: #A80036; stroke-width: 1.0;"/><path d="M1629.66,323.329 C1731.57,333.424 1985.57,360.837 2195.13,402 C2199.3,402.818 2203.56,403.714 2207.85,404.664 " fill="none" style="stroke: #A80036; stroke-width: 1.0;"/><polygon fill="#A80036" points="2212.89,405.801,2204.9906,399.9189,2208.0125,404.7009,2203.2305,407.7228,2212.89,405.801" style="stroke: #A80036; stroke-width: 1.0;"/><path d="M1538.78,322.42 C1488.66,328.903 1410.14,347.67 1373.13,402 C1355.12,428.447 1350.75,451.127 1373.13,474 C1387.36,488.538 1720.49,473.873 1739.13,482 C1758.57,490.473 1775.16,507.65 1786.85,522.619 " fill="none" style="stroke: #A80036; stroke-width: 1.0;"/><polygon fill="#A80036" points="1790.02,526.774,1787.7576,517.1885,1786.994,522.7936,1781.389,522.03,1790.02,526.774" style="stroke: #A80036; stroke-width: 1.0;"/><path d="M1568.17,342.216 C1547.09,375.973 1516.46,438.446 1551.13,474 C1563.47,486.652 1852.38,476.387 1869.13,482 C1894.52,490.504 1918.99,508.321 1936.73,523.584 " fill="none" style="stroke: #A80036; stroke-width: 1.0;"/><polygon fill="#A80036" points="1940.64,526.998,1936.5075,518.058,1936.8796,523.7027,1931.235,524.0747,1940.64,526.998" style="stroke: #A80036; stroke-width: 1.0;"/><path d="M1553.75,342 C1531.8,358.624 1502.09,381.118 1479.14,398.496 " fill="none" style="stroke: #A80036; stroke-width: 1.0;"/><polygon fill="#A80036" points="1474.93,401.678,1484.516,399.4178,1478.9111,398.6529,1479.6759,393.048,1474.93,401.678" style="stroke: #A80036; stroke-width: 1.0;"/><path d="M1595.42,342 C1603.33,358.141 1613.97,379.816 1622.38,396.969 " fill="none" style="stroke: #A80036; stroke-width: 1.0;"/><polygon fill="#A80036" points="1624.69,401.678,1624.3158,391.8363,1622.4872,397.1894,1617.134,395.3608,1624.69,401.678" style="stroke: #A80036; stroke-width: 1.0;"/><path d="M1629.61,331.786 C1694.28,349.971 1813.46,383.478 1889.91,404.976 " fill="none" style="stroke: #A80036; stroke-width: 1.0;"/><polygon fill="#A80036" points="1894.89,406.374,1887.3134,400.0815,1890.0777,405.017,1885.1422,407.7813,1894.89,406.374" style="stroke: #A80036; stroke-width: 1.0;"/><path d="M1629.55,325.416 C1712.5,337.528 1893.83,365.825 2044.13,402 C2048.27,402.997 2052.52,404.088 2056.8,405.237 " fill="none" style="stroke: #A80036; stroke-width: 1.0;"/><polygon fill="#A80036" points="2061.81,406.61,2054.1783,400.3844,2056.9859,405.2954,2052.075,408.103,2061.81,406.61" style="stroke: #A80036; stroke-width: 1.0;"/><path d="M3037.13,109 C3037.13,120.588 3037.13,135.029 3037.13,148.601 " fill="none" style="stroke: #A80036; stroke-width: 1.0;"/><polygon fill="none" points="3044.13,148.678,3037.13,168.678,3030.13,148.678,3044.13,148.678" style="stroke: #A80036; stroke-width: 1.0;"/><path d="M2953.35,109 C2966.72,122.244 2983.85,139.214 2999.13,154.354 " fill="none" style="stroke: #A80036; stroke-width: 1.0;"/><polygon fill="none" points="3004.31,149.63,3013.59,168.678,2994.46,159.576,3004.31,149.63" style="stroke: #A80036; stroke-width: 1.0;"/><path d="M3124.83,109 C3110.69,122.382 3092.53,139.568 3076.41,154.826 " fill="none" style="stroke: #A80036; stroke-width: 1.0;"/><polygon fill="none" points="3081.11,160.015,3061.77,168.678,3071.49,149.847,3081.11,160.015" style="stroke: #A80036; stroke-width: 1.0;"/><path d="M3387.93,109.001 C3376.67,117.76 3362.95,127.054 3349.13,133 C3269.8,167.146 3170.72,181.596 3105.77,187.668 " fill="none" style="stroke: #A80036; stroke-width: 1.0;"/><polygon fill="none" points="3106.06,194.668,3085.54,189.391,3104.87,180.719,3106.06,194.668" style="stroke: #A80036; stroke-width: 1.0;"/><path d="M2460.34,330.072 C2530.78,350.924 2678.62,401.319 2780.13,482 C2790.12,489.938 2799.26,500.199 2806.99,510.331 " fill="none" style="stroke: #A80036; stroke-width: 1.0;"/><polygon fill="none" points="2812.81,506.442,2818.58,526.831,2801.36,514.49,2812.81,506.442" style="stroke: #A80036; stroke-width: 1.0;"/><path d="M2460.22,436.119 C2503.75,447.037 2580.37,464.976 2647.13,474 C2676.47,477.966 2753.99,468.091 2780.13,482 C2792.19,488.414 2802.29,498.983 2810.28,509.898 " fill="none" style="stroke: #A80036; stroke-width: 1.0;"/><polygon fill="none" points="2816.21,506.169,2821.09,526.788,2804.41,513.716,2816.21,506.169" style="stroke: #A80036; stroke-width: 1.0;"/><path d="M2328.04,342 C2343.93,355.589 2364.42,373.1 2382.47,388.533 " fill="none" style="stroke: #A80036; stroke-width: 1.0;"/><polygon fill="none" points="2387.2,383.362,2397.85,401.678,2378.1,394.004,2387.2,383.362" style="stroke: #A80036; stroke-width: 1.0;"/></g></svg>