<?xml version="1.0" encoding="UTF-8" standalone="yes"?><svg xmlns="http://www.w3.org/2000/svg" xmlns:xlink="http://www.w3.org/1999/xlink" height="885pt" style="width:2079px;height:885px;" version="1.1" viewBox="0 0 2079 885" width="2079pt"><defs><filter height="300%" id="f1" width="300%" x="-1" y="-1"><feGaussianBlur result="blurOut" stdDeviation="2"/><feColorMatrix in="blurOut" result="blurOut2" type="matrix" values="0 0 0 0 0 0 0 0 0 0 0 0 0 0 0 0 0 0 .4 0"/><feOffset dx="4" dy="4" in="blurOut2" result="blurOut3"/><feBlend in="SourceGraphic" in2="blurOut3" mode="normal"/></filter></defs><g><rect fill="#FFF8DC" filter="url(#f1)" height="48" style="stroke: #2E8B57; stroke-width: 1.5;" width="53" x="71.5" y="12"/><ellipse cx="86.5" cy="28" fill="#ADD1B2" rx="11" ry="11" style="stroke: #2E8B57; stroke-width: 1.0;"/><path d="M89.2656,29.5313 L91.6563,30.2813 Q91.1094,32.2656 89.8359,33.2344 Q88.5625,34.2031 86.5938,34.2031 Q84.1719,34.2031 82.6172,32.5469 Q81.0625,30.8906 81.0625,28.0156 Q81.0625,24.9844 82.625,23.3047 Q84.1875,21.625 86.75,21.625 Q88.9844,21.625 90.375,22.9375 Q91.2031,23.7188 91.625,25.1875 L89.1875,25.7656 Q88.9688,24.8125 88.2891,24.2656 Q87.6094,23.7188 86.625,23.7188 Q85.2656,23.7188 84.4297,24.6953 Q83.5938,25.6719 83.5938,27.8438 Q83.5938,30.1406 84.4219,31.125 Q85.25,32.1094 86.5781,32.1094 Q87.5625,32.1094 88.2656,31.4844 Q88.9688,30.8594 89.2656,29.5313 Z "/><text fill="#000000" font-size="12" lengthAdjust="spacingAndGlyphs" textLength="21" x="100.5" y="32.4531">htm</text><line style="stroke: #2E8B57; stroke-width: 1.5;" x1="72.5" x2="123.5" y1="44" y2="44"/><line style="stroke: #2E8B57; stroke-width: 1.5;" x1="72.5" x2="123.5" y1="52" y2="52"/><rect fill="#F5DEB3" filter="url(#f1)" height="56.1875" style="stroke: #FF6347; stroke-width: 1.5;" width="85" x="1074.5" y="356"/><ellipse cx="1089.5" cy="376.0938" fill="#ADD1B2" rx="11" ry="11" style="stroke: #FF6347; stroke-width: 1.0;"/><path d="M1092.2656,377.625 L1094.6563,378.375 Q1094.1094,380.3594 1092.8359,381.3281 Q1091.5625,382.2969 1089.5938,382.2969 Q1087.1719,382.2969 1085.6172,380.6406 Q1084.0625,378.9844 1084.0625,376.1094 Q1084.0625,373.0781 1085.625,371.3984 Q1087.1875,369.7188 1089.75,369.7188 Q1091.9844,369.7188 1093.375,371.0313 Q1094.2031,371.8125 1094.625,373.2813 L1092.1875,373.8594 Q1091.9688,372.9063 1091.2891,372.3594 Q1090.6094,371.8125 1089.625,371.8125 Q1088.2656,371.8125 1087.4297,372.7891 Q1086.5938,373.7656 1086.5938,375.9375 Q1086.5938,378.2344 1087.4219,379.2188 Q1088.25,380.2031 1089.5781,380.2031 Q1090.5625,380.2031 1091.2656,379.5781 Q1091.9688,378.9531 1092.2656,377.625 Z "/><text fill="#000000" font-size="12" font-style="italic" lengthAdjust="spacingAndGlyphs" textLength="54" x="1103" y="373">&lt;&lt;View&gt;&gt;</text><text fill="#000000" font-size="12" lengthAdjust="spacingAndGlyphs" textLength="53" x="1103.5" y="388.0938">FAPainter</text><line style="stroke: #FF6347; stroke-width: 1.5;" x1="1075.5" x2="1158.5" y1="396.1875" y2="396.1875"/><line style="stroke: #FF6347; stroke-width: 1.5;" x1="1075.5" x2="1158.5" y1="404.1875" y2="404.1875"/><rect fill="#FFF8DC" filter="url(#f1)" height="56.1875" style="stroke: #2E8B57; stroke-width: 1.5;" width="182" x="1121" y="472"/><ellipse cx="1136" cy="492.0938" fill="#ADD1B2" rx="11" ry="11" style="stroke: #2E8B57; stroke-width: 1.0;"/><path d="M1138.7656,493.625 L1141.1563,494.375 Q1140.6094,496.3594 1139.3359,497.3281 Q1138.0625,498.2969 1136.0938,498.2969 Q1133.6719,498.2969 1132.1172,496.6406 Q1130.5625,494.9844 1130.5625,492.1094 Q1130.5625,489.0781 1132.125,487.3984 Q1133.6875,485.7188 1136.25,485.7188 Q1138.4844,485.7188 1139.875,487.0313 Q1140.7031,487.8125 1141.125,489.2813 L1138.6875,489.8594 Q1138.4688,488.9063 1137.7891,488.3594 Q1137.1094,487.8125 1136.125,487.8125 Q1134.7656,487.8125 1133.9297,488.7891 Q1133.0938,489.7656 1133.0938,491.9375 Q1133.0938,494.2344 1133.9219,495.2188 Q1134.75,496.2031 1136.0781,496.2031 Q1137.0625,496.2031 1137.7656,495.5781 Q1138.4688,494.9531 1138.7656,493.625 Z "/><text fill="#000000" font-size="12" font-style="italic" lengthAdjust="spacingAndGlyphs" textLength="154" x="1148" y="489">&lt;&lt; Controller Unidentified&gt;&gt;</text><text fill="#000000" font-size="12" lengthAdjust="spacingAndGlyphs" textLength="67" x="1191.5" y="504.0938">FASimulator</text><line style="stroke: #2E8B57; stroke-width: 1.5;" x1="1122" x2="1302" y1="512.1875" y2="512.1875"/><line style="stroke: #2E8B57; stroke-width: 1.5;" x1="1122" x2="1302" y1="520.1875" y2="520.1875"/><rect fill="#B2BF00" filter="url(#f1)" height="56.1875" style="stroke: #FF6347; stroke-width: 1.5;" width="205" x="159.5" y="8"/><ellipse cx="174.5" cy="28.0938" fill="#ADD1B2" rx="11" ry="11" style="stroke: #FF6347; stroke-width: 1.0;"/><path d="M177.2656,29.625 L179.6563,30.375 Q179.1094,32.3594 177.8359,33.3281 Q176.5625,34.2969 174.5938,34.2969 Q172.1719,34.2969 170.6172,32.6406 Q169.0625,30.9844 169.0625,28.1094 Q169.0625,25.0781 170.625,23.3984 Q172.1875,21.7188 174.75,21.7188 Q176.9844,21.7188 178.375,23.0313 Q179.2031,23.8125 179.625,25.2813 L177.1875,25.8594 Q176.9688,24.9063 176.2891,24.3594 Q175.6094,23.8125 174.625,23.8125 Q173.2656,23.8125 172.4297,24.7891 Q171.5938,25.7656 171.5938,27.9375 Q171.5938,30.2344 172.4219,31.2188 Q173.25,32.2031 174.5781,32.2031 Q175.5625,32.2031 176.2656,31.5781 Q176.9688,30.9531 177.2656,29.625 Z "/><text fill="#000000" font-size="12" font-style="italic" lengthAdjust="spacingAndGlyphs" textLength="61" x="244.5" y="25">&lt;&lt;Model&gt;&gt;</text><text fill="#000000" font-size="12" lengthAdjust="spacingAndGlyphs" textLength="173" x="188.5" y="40.0938">IncompleteAutomatonException</text><line style="stroke: #FF6347; stroke-width: 1.5;" x1="160.5" x2="363.5" y1="48.1875" y2="48.1875"/><line style="stroke: #FF6347; stroke-width: 1.5;" x1="160.5" x2="363.5" y1="56.1875" y2="56.1875"/><rect fill="#FFF8DC" filter="url(#f1)" height="56.1875" style="stroke: #2E8B57; stroke-width: 1.5;" width="125" x="399.5" y="8"/><ellipse cx="414.5" cy="28.0938" fill="#ADD1B2" rx="11" ry="11" style="stroke: #2E8B57; stroke-width: 1.0;"/><path d="M417.2656,29.625 L419.6563,30.375 Q419.1094,32.3594 417.8359,33.3281 Q416.5625,34.2969 414.5938,34.2969 Q412.1719,34.2969 410.6172,32.6406 Q409.0625,30.9844 409.0625,28.1094 Q409.0625,25.0781 410.625,23.3984 Q412.1875,21.7188 414.75,21.7188 Q416.9844,21.7188 418.375,23.0313 Q419.2031,23.8125 419.625,25.2813 L417.1875,25.8594 Q416.9688,24.9063 416.2891,24.3594 Q415.6094,23.8125 414.625,23.8125 Q413.2656,23.8125 412.4297,24.7891 Q411.5938,25.7656 411.5938,27.9375 Q411.5938,30.2344 412.4219,31.2188 Q413.25,32.2031 414.5781,32.2031 Q415.5625,32.2031 416.2656,31.5781 Q416.9688,30.9531 417.2656,29.625 Z "/><text fill="#000000" font-size="12" font-style="italic" lengthAdjust="spacingAndGlyphs" textLength="97" x="426.5" y="25">&lt;&lt; Unidentified&gt;&gt;</text><text fill="#000000" font-size="12" lengthAdjust="spacingAndGlyphs" textLength="26" x="462" y="40.0938">Main</text><line style="stroke: #2E8B57; stroke-width: 1.5;" x1="400.5" x2="523.5" y1="48.1875" y2="48.1875"/><line style="stroke: #2E8B57; stroke-width: 1.5;" x1="400.5" x2="523.5" y1="56.1875" y2="56.1875"/><rect fill="#F5DEB3" filter="url(#f1)" height="56.1875" style="stroke: #FF6347; stroke-width: 1.5;" width="145" x="747.5" y="8"/><ellipse cx="762.5" cy="28.0938" fill="#ADD1B2" rx="11" ry="11" style="stroke: #FF6347; stroke-width: 1.0;"/><path d="M765.2656,29.625 L767.6563,30.375 Q767.1094,32.3594 765.8359,33.3281 Q764.5625,34.2969 762.5938,34.2969 Q760.1719,34.2969 758.6172,32.6406 Q757.0625,30.9844 757.0625,28.1094 Q757.0625,25.0781 758.625,23.3984 Q760.1875,21.7188 762.75,21.7188 Q764.9844,21.7188 766.375,23.0313 Q767.2031,23.8125 767.625,25.2813 L765.1875,25.8594 Q764.9688,24.9063 764.2891,24.3594 Q763.6094,23.8125 762.625,23.8125 Q761.2656,23.8125 760.4297,24.7891 Q759.5938,25.7656 759.5938,27.9375 Q759.5938,30.2344 760.4219,31.2188 Q761.25,32.2031 762.5781,32.2031 Q763.5625,32.2031 764.2656,31.5781 Q764.9688,30.9531 765.2656,29.625 Z "/><text fill="#000000" font-size="12" font-style="italic" lengthAdjust="spacingAndGlyphs" textLength="54" x="806" y="25">&lt;&lt;View&gt;&gt;</text><text fill="#000000" font-size="12" lengthAdjust="spacingAndGlyphs" textLength="113" x="776.5" y="40.0938">FAAutoCompleteWin</text><line style="stroke: #FF6347; stroke-width: 1.5;" x1="748.5" x2="891.5" y1="48.1875" y2="48.1875"/><line style="stroke: #FF6347; stroke-width: 1.5;" x1="748.5" x2="891.5" y1="56.1875" y2="56.1875"/><rect fill="#F5DEB3" filter="url(#f1)" height="56.1875" style="stroke: #FF6347; stroke-width: 1.5;" width="188" x="928" y="8"/><ellipse cx="943" cy="28.0938" fill="#ADD1B2" rx="11" ry="11" style="stroke: #FF6347; stroke-width: 1.0;"/><path d="M945.7656,29.625 L948.1563,30.375 Q947.6094,32.3594 946.3359,33.3281 Q945.0625,34.2969 943.0938,34.2969 Q940.6719,34.2969 939.1172,32.6406 Q937.5625,30.9844 937.5625,28.1094 Q937.5625,25.0781 939.125,23.3984 Q940.6875,21.7188 943.25,21.7188 Q945.4844,21.7188 946.875,23.0313 Q947.7031,23.8125 948.125,25.2813 L945.6875,25.8594 Q945.4688,24.9063 944.7891,24.3594 Q944.1094,23.8125 943.125,23.8125 Q941.7656,23.8125 940.9297,24.7891 Q940.0938,25.7656 940.0938,27.9375 Q940.0938,30.2344 940.9219,31.2188 Q941.75,32.2031 943.0781,32.2031 Q944.0625,32.2031 944.7656,31.5781 Q945.4688,30.9531 945.7656,29.625 Z "/><text fill="#000000" font-size="12" font-style="italic" lengthAdjust="spacingAndGlyphs" textLength="54" x="1008" y="25">&lt;&lt;View&gt;&gt;</text><text fill="#000000" font-size="12" lengthAdjust="spacingAndGlyphs" textLength="156" x="957" y="40.0938">FAAutoCreateAbsorbedState</text><line style="stroke: #FF6347; stroke-width: 1.5;" x1="929" x2="1115" y1="48.1875" y2="48.1875"/><line style="stroke: #FF6347; stroke-width: 1.5;" x1="929" x2="1115" y1="56.1875" y2="56.1875"/><rect fill="#F5DEB3" filter="url(#f1)" height="56.1875" style="stroke: #FF6347; stroke-width: 1.5;" width="87" x="54.5" y="124"/><ellipse cx="69.5" cy="144.0938" fill="#ADD1B2" rx="11" ry="11" style="stroke: #FF6347; stroke-width: 1.0;"/><path d="M72.2656,145.625 L74.6563,146.375 Q74.1094,148.3594 72.8359,149.3281 Q71.5625,150.2969 69.5938,150.2969 Q67.1719,150.2969 65.6172,148.6406 Q64.0625,146.9844 64.0625,144.1094 Q64.0625,141.0781 65.625,139.3984 Q67.1875,137.7188 69.75,137.7188 Q71.9844,137.7188 73.375,139.0313 Q74.2031,139.8125 74.625,141.2813 L72.1875,141.8594 Q71.9688,140.9063 71.2891,140.3594 Q70.6094,139.8125 69.625,139.8125 Q68.2656,139.8125 67.4297,140.7891 Q66.5938,141.7656 66.5938,143.9375 Q66.5938,146.2344 67.4219,147.2188 Q68.25,148.2031 69.5781,148.2031 Q70.5625,148.2031 71.2656,147.5781 Q71.9688,146.9531 72.2656,145.625 Z "/><text fill="#000000" font-size="12" font-style="italic" lengthAdjust="spacingAndGlyphs" textLength="54" x="84" y="141">&lt;&lt;View&gt;&gt;</text><text fill="#000000" font-size="12" lengthAdjust="spacingAndGlyphs" textLength="55" x="83.5" y="156.0938">FAInfoWin</text><line style="stroke: #FF6347; stroke-width: 1.5;" x1="55.5" x2="140.5" y1="164.1875" y2="164.1875"/><line style="stroke: #FF6347; stroke-width: 1.5;" x1="55.5" x2="140.5" y1="172.1875" y2="172.1875"/><rect fill="#BDB76B" filter="url(#f1)" height="56.1875" style="stroke: #FF6347; stroke-width: 1.5;" width="113" x="1117.5" y="124"/><ellipse cx="1132.5" cy="144.0938" fill="#ADD1B2" rx="11" ry="11" style="stroke: #FF6347; stroke-width: 1.0;"/><path d="M1135.2656,145.625 L1137.6563,146.375 Q1137.1094,148.3594 1135.8359,149.3281 Q1134.5625,150.2969 1132.5938,150.2969 Q1130.1719,150.2969 1128.6172,148.6406 Q1127.0625,146.9844 1127.0625,144.1094 Q1127.0625,141.0781 1128.625,139.3984 Q1130.1875,137.7188 1132.75,137.7188 Q1134.9844,137.7188 1136.375,139.0313 Q1137.2031,139.8125 1137.625,141.2813 L1135.1875,141.8594 Q1134.9688,140.9063 1134.2891,140.3594 Q1133.6094,139.8125 1132.625,139.8125 Q1131.2656,139.8125 1130.4297,140.7891 Q1129.5938,141.7656 1129.5938,143.9375 Q1129.5938,146.2344 1130.4219,147.2188 Q1131.25,148.2031 1132.5781,148.2031 Q1133.5625,148.2031 1134.2656,147.5781 Q1134.9688,146.9531 1135.2656,145.625 Z "/><text fill="#000000" font-size="12" font-style="italic" lengthAdjust="spacingAndGlyphs" textLength="85" x="1144.5" y="141">&lt;&lt; Controller&gt;&gt;</text><text fill="#000000" font-size="12" lengthAdjust="spacingAndGlyphs" textLength="61" x="1156.5" y="156.0938">FAMainWin</text><line style="stroke: #FF6347; stroke-width: 1.5;" x1="1118.5" x2="1229.5" y1="164.1875" y2="164.1875"/><line style="stroke: #FF6347; stroke-width: 1.5;" x1="1118.5" x2="1229.5" y1="172.1875" y2="172.1875"/><rect fill="#F5DEB3" filter="url(#f1)" height="56.1875" style="stroke: #FF6347; stroke-width: 1.5;" width="124" x="1326" y="8"/><ellipse cx="1341" cy="28.0938" fill="#ADD1B2" rx="11" ry="11" style="stroke: #FF6347; stroke-width: 1.0;"/><path d="M1343.7656,29.625 L1346.1563,30.375 Q1345.6094,32.3594 1344.3359,33.3281 Q1343.0625,34.2969 1341.0938,34.2969 Q1338.6719,34.2969 1337.1172,32.6406 Q1335.5625,30.9844 1335.5625,28.1094 Q1335.5625,25.0781 1337.125,23.3984 Q1338.6875,21.7188 1341.25,21.7188 Q1343.4844,21.7188 1344.875,23.0313 Q1345.7031,23.8125 1346.125,25.2813 L1343.6875,25.8594 Q1343.4688,24.9063 1342.7891,24.3594 Q1342.1094,23.8125 1341.125,23.8125 Q1339.7656,23.8125 1338.9297,24.7891 Q1338.0938,25.7656 1338.0938,27.9375 Q1338.0938,30.2344 1338.9219,31.2188 Q1339.75,32.2031 1341.0781,32.2031 Q1342.0625,32.2031 1342.7656,31.5781 Q1343.4688,30.9531 1343.7656,29.625 Z "/><text fill="#000000" font-size="12" font-style="italic" lengthAdjust="spacingAndGlyphs" textLength="54" x="1374" y="25">&lt;&lt;View&gt;&gt;</text><text fill="#000000" font-size="12" lengthAdjust="spacingAndGlyphs" textLength="92" x="1355" y="40.0938">FAPropertiesWin</text><line style="stroke: #FF6347; stroke-width: 1.5;" x1="1327" x2="1449" y1="48.1875" y2="48.1875"/><line style="stroke: #FF6347; stroke-width: 1.5;" x1="1327" x2="1449" y1="56.1875" y2="56.1875"/><rect fill="#F5DEB3" filter="url(#f1)" height="56.1875" style="stroke: #FF6347; stroke-width: 1.5;" width="152" x="560" y="8"/><ellipse cx="575" cy="28.0938" fill="#ADD1B2" rx="11" ry="11" style="stroke: #FF6347; stroke-width: 1.0;"/><path d="M577.7656,29.625 L580.1563,30.375 Q579.6094,32.3594 578.3359,33.3281 Q577.0625,34.2969 575.0938,34.2969 Q572.6719,34.2969 571.1172,32.6406 Q569.5625,30.9844 569.5625,28.1094 Q569.5625,25.0781 571.125,23.3984 Q572.6875,21.7188 575.25,21.7188 Q577.4844,21.7188 578.875,23.0313 Q579.7031,23.8125 580.125,25.2813 L577.6875,25.8594 Q577.4688,24.9063 576.7891,24.3594 Q576.1094,23.8125 575.125,23.8125 Q573.7656,23.8125 572.9297,24.7891 Q572.0938,25.7656 572.0938,27.9375 Q572.0938,30.2344 572.9219,31.2188 Q573.75,32.2031 575.0781,32.2031 Q576.0625,32.2031 576.7656,31.5781 Q577.4688,30.9531 577.7656,29.625 Z "/><text fill="#000000" font-size="12" font-style="italic" lengthAdjust="spacingAndGlyphs" textLength="54" x="622" y="25">&lt;&lt;View&gt;&gt;</text><text fill="#000000" font-size="12" lengthAdjust="spacingAndGlyphs" textLength="120" x="589" y="40.0938">FAStatePropertiesWin</text><line style="stroke: #FF6347; stroke-width: 1.5;" x1="561" x2="711" y1="48.1875" y2="48.1875"/><line style="stroke: #FF6347; stroke-width: 1.5;" x1="561" x2="711" y1="56.1875" y2="56.1875"/><rect fill="#F5DEB3" filter="url(#f1)" height="56.1875" style="stroke: #FF6347; stroke-width: 1.5;" width="122" x="1485" y="8"/><ellipse cx="1500" cy="28.0938" fill="#ADD1B2" rx="11" ry="11" style="stroke: #FF6347; stroke-width: 1.0;"/><path d="M1502.7656,29.625 L1505.1563,30.375 Q1504.6094,32.3594 1503.3359,33.3281 Q1502.0625,34.2969 1500.0938,34.2969 Q1497.6719,34.2969 1496.1172,32.6406 Q1494.5625,30.9844 1494.5625,28.1094 Q1494.5625,25.0781 1496.125,23.3984 Q1497.6875,21.7188 1500.25,21.7188 Q1502.4844,21.7188 1503.875,23.0313 Q1504.7031,23.8125 1505.125,25.2813 L1502.6875,25.8594 Q1502.4688,24.9063 1501.7891,24.3594 Q1501.1094,23.8125 1500.125,23.8125 Q1498.7656,23.8125 1497.9297,24.7891 Q1497.0938,25.7656 1497.0938,27.9375 Q1497.0938,30.2344 1497.9219,31.2188 Q1498.75,32.2031 1500.0781,32.2031 Q1501.0625,32.2031 1501.7656,31.5781 Q1502.4688,30.9531 1502.7656,29.625 Z "/><text fill="#000000" font-size="12" font-style="italic" lengthAdjust="spacingAndGlyphs" textLength="54" x="1532" y="25">&lt;&lt;View&gt;&gt;</text><text fill="#000000" font-size="12" lengthAdjust="spacingAndGlyphs" textLength="90" x="1514" y="40.0938">FATransitionWin</text><line style="stroke: #FF6347; stroke-width: 1.5;" x1="1486" x2="1606" y1="48.1875" y2="48.1875"/><line style="stroke: #FF6347; stroke-width: 1.5;" x1="1486" x2="1606" y1="56.1875" y2="56.1875"/><rect fill="#FFF8DC" filter="url(#f1)" height="56.1875" style="stroke: #2E8B57; stroke-width: 1.5;" width="139" x="1151.5" y="8"/><ellipse cx="1166.5" cy="28.0938" fill="#ADD1B2" rx="11" ry="11" style="stroke: #2E8B57; stroke-width: 1.0;"/><path d="M1169.2656,29.625 L1171.6563,30.375 Q1171.1094,32.3594 1169.8359,33.3281 Q1168.5625,34.2969 1166.5938,34.2969 Q1164.1719,34.2969 1162.6172,32.6406 Q1161.0625,30.9844 1161.0625,28.1094 Q1161.0625,25.0781 1162.625,23.3984 Q1164.1875,21.7188 1166.75,21.7188 Q1168.9844,21.7188 1170.375,23.0313 Q1171.2031,23.8125 1171.625,25.2813 L1169.1875,25.8594 Q1168.9688,24.9063 1168.2891,24.3594 Q1167.6094,23.8125 1166.625,23.8125 Q1165.2656,23.8125 1164.4297,24.7891 Q1163.5938,25.7656 1163.5938,27.9375 Q1163.5938,30.2344 1164.4219,31.2188 Q1165.25,32.2031 1166.5781,32.2031 Q1167.5625,32.2031 1168.2656,31.5781 Q1168.9688,30.9531 1169.2656,29.625 Z "/><text fill="#000000" font-size="12" font-style="italic" lengthAdjust="spacingAndGlyphs" textLength="111" x="1178.5" y="25">&lt;&lt;View Controller&gt;&gt;</text><text fill="#000000" font-size="12" lengthAdjust="spacingAndGlyphs" textLength="87" x="1190.5" y="40.0938">FAWelcomeWin</text><line style="stroke: #2E8B57; stroke-width: 1.5;" x1="1152.5" x2="1289.5" y1="48.1875" y2="48.1875"/><line style="stroke: #2E8B57; stroke-width: 1.5;" x1="1152.5" x2="1289.5" y1="56.1875" y2="56.1875"/><rect fill="#FFF8DC" filter="url(#f1)" height="56.1875" style="stroke: #2E8B57; stroke-width: 1.5;" width="182" x="851" y="240"/><ellipse cx="866" cy="260.0938" fill="#ADD1B2" rx="11" ry="11" style="stroke: #2E8B57; stroke-width: 1.0;"/><path d="M868.7656,261.625 L871.1563,262.375 Q870.6094,264.3594 869.3359,265.3281 Q868.0625,266.2969 866.0938,266.2969 Q863.6719,266.2969 862.1172,264.6406 Q860.5625,262.9844 860.5625,260.1094 Q860.5625,257.0781 862.125,255.3984 Q863.6875,253.7188 866.25,253.7188 Q868.4844,253.7188 869.875,255.0313 Q870.7031,255.8125 871.125,257.2813 L868.6875,257.8594 Q868.4688,256.9063 867.7891,256.3594 Q867.1094,255.8125 866.125,255.8125 Q864.7656,255.8125 863.9297,256.7891 Q863.0938,257.7656 863.0938,259.9375 Q863.0938,262.2344 863.9219,263.2188 Q864.75,264.2031 866.0781,264.2031 Q867.0625,264.2031 867.7656,263.5781 Q868.4688,262.9531 868.7656,261.625 Z "/><text fill="#000000" font-size="12" font-style="italic" lengthAdjust="spacingAndGlyphs" textLength="154" x="878" y="257">&lt;&lt; Controller Unidentified&gt;&gt;</text><text fill="#000000" font-size="12" lengthAdjust="spacingAndGlyphs" textLength="85" x="912.5" y="272.0938">HelpFileLoader</text><line style="stroke: #2E8B57; stroke-width: 1.5;" x1="852" x2="1032" y1="280.1875" y2="280.1875"/><line style="stroke: #2E8B57; stroke-width: 1.5;" x1="852" x2="1032" y1="288.1875" y2="288.1875"/><rect fill="#F5DEB3" filter="url(#f1)" height="56.1875" style="stroke: #FF6347; stroke-width: 1.5;" width="92" x="1068" y="240"/><ellipse cx="1083" cy="260.0938" fill="#ADD1B2" rx="11" ry="11" style="stroke: #FF6347; stroke-width: 1.0;"/><path d="M1085.7656,261.625 L1088.1563,262.375 Q1087.6094,264.3594 1086.3359,265.3281 Q1085.0625,266.2969 1083.0938,266.2969 Q1080.6719,266.2969 1079.1172,264.6406 Q1077.5625,262.9844 1077.5625,260.1094 Q1077.5625,257.0781 1079.125,255.3984 Q1080.6875,253.7188 1083.25,253.7188 Q1085.4844,253.7188 1086.875,255.0313 Q1087.7031,255.8125 1088.125,257.2813 L1085.6875,257.8594 Q1085.4688,256.9063 1084.7891,256.3594 Q1084.1094,255.8125 1083.125,255.8125 Q1081.7656,255.8125 1080.9297,256.7891 Q1080.0938,257.7656 1080.0938,259.9375 Q1080.0938,262.2344 1080.9219,263.2188 Q1081.75,264.2031 1083.0781,264.2031 Q1084.0625,264.2031 1084.7656,263.5781 Q1085.4688,262.9531 1085.7656,261.625 Z "/><text fill="#000000" font-size="12" font-style="italic" lengthAdjust="spacingAndGlyphs" textLength="54" x="1100" y="257">&lt;&lt;View&gt;&gt;</text><text fill="#000000" font-size="12" lengthAdjust="spacingAndGlyphs" textLength="60" x="1097" y="272.0938">PaintPanel</text><line style="stroke: #FF6347; stroke-width: 1.5;" x1="1069" x2="1159" y1="280.1875" y2="280.1875"/><line style="stroke: #FF6347; stroke-width: 1.5;" x1="1069" x2="1159" y1="288.1875" y2="288.1875"/><rect fill="#F5DEB3" filter="url(#f1)" height="56.1875" style="stroke: #FF6347; stroke-width: 1.5;" width="204" x="177" y="124"/><ellipse cx="192" cy="144.0938" fill="#ADD1B2" rx="11" ry="11" style="stroke: #FF6347; stroke-width: 1.0;"/><path d="M194.7656,145.625 L197.1563,146.375 Q196.6094,148.3594 195.3359,149.3281 Q194.0625,150.2969 192.0938,150.2969 Q189.6719,150.2969 188.1172,148.6406 Q186.5625,146.9844 186.5625,144.1094 Q186.5625,141.0781 188.125,139.3984 Q189.6875,137.7188 192.25,137.7188 Q194.4844,137.7188 195.875,139.0313 Q196.7031,139.8125 197.125,141.2813 L194.6875,141.8594 Q194.4688,140.9063 193.7891,140.3594 Q193.1094,139.8125 192.125,139.8125 Q190.7656,139.8125 189.9297,140.7891 Q189.0938,141.7656 189.0938,143.9375 Q189.0938,146.2344 189.9219,147.2188 Q190.75,148.2031 192.0781,148.2031 Q193.0625,148.2031 193.7656,147.5781 Q194.4688,146.9531 194.7656,145.625 Z "/><text fill="#000000" font-size="12" font-style="italic" lengthAdjust="spacingAndGlyphs" textLength="54" x="265" y="141">&lt;&lt;View&gt;&gt;</text><text fill="#000000" font-size="12" lengthAdjust="spacingAndGlyphs" textLength="172" x="206" y="156.0938">AutoCompleteComboBoxModel</text><line style="stroke: #FF6347; stroke-width: 1.5;" x1="178" x2="380" y1="164.1875" y2="164.1875"/><line style="stroke: #FF6347; stroke-width: 1.5;" x1="178" x2="380" y1="172.1875" y2="172.1875"/><rect fill="#BDB76B" filter="url(#f1)" height="56.1875" style="stroke: #FF6347; stroke-width: 1.5;" width="113" x="1441.5" y="588"/><ellipse cx="1456.5" cy="608.0938" fill="#ADD1B2" rx="11" ry="11" style="stroke: #FF6347; stroke-width: 1.0;"/><path d="M1459.2656,609.625 L1461.6563,610.375 Q1461.1094,612.3594 1459.8359,613.3281 Q1458.5625,614.2969 1456.5938,614.2969 Q1454.1719,614.2969 1452.6172,612.6406 Q1451.0625,610.9844 1451.0625,608.1094 Q1451.0625,605.0781 1452.625,603.3984 Q1454.1875,601.7188 1456.75,601.7188 Q1458.9844,601.7188 1460.375,603.0313 Q1461.2031,603.8125 1461.625,605.2813 L1459.1875,605.8594 Q1458.9688,604.9063 1458.2891,604.3594 Q1457.6094,603.8125 1456.625,603.8125 Q1455.2656,603.8125 1454.4297,604.7891 Q1453.5938,605.7656 1453.5938,607.9375 Q1453.5938,610.2344 1454.4219,611.2188 Q1455.25,612.2031 1456.5781,612.2031 Q1457.5625,612.2031 1458.2656,611.5781 Q1458.9688,610.9531 1459.2656,609.625 Z "/><text fill="#000000" font-size="12" font-style="italic" lengthAdjust="spacingAndGlyphs" textLength="85" x="1468.5" y="605">&lt;&lt; Controller&gt;&gt;</text><text fill="#000000" font-size="12" lengthAdjust="spacingAndGlyphs" textLength="14" x="1504" y="620.0938">FA</text><line style="stroke: #FF6347; stroke-width: 1.5;" x1="1442.5" x2="1553.5" y1="628.1875" y2="628.1875"/><line style="stroke: #FF6347; stroke-width: 1.5;" x1="1442.5" x2="1553.5" y1="636.1875" y2="636.1875"/><rect fill="#FFF8DC" filter="url(#f1)" height="56.1875" style="stroke: #2E8B57; stroke-width: 1.5;" width="125" x="1642.5" y="8"/><ellipse cx="1657.5" cy="28.0938" fill="#ADD1B2" rx="11" ry="11" style="stroke: #2E8B57; stroke-width: 1.0;"/><path d="M1660.2656,29.625 L1662.6563,30.375 Q1662.1094,32.3594 1660.8359,33.3281 Q1659.5625,34.2969 1657.5938,34.2969 Q1655.1719,34.2969 1653.6172,32.6406 Q1652.0625,30.9844 1652.0625,28.1094 Q1652.0625,25.0781 1653.625,23.3984 Q1655.1875,21.7188 1657.75,21.7188 Q1659.9844,21.7188 1661.375,23.0313 Q1662.2031,23.8125 1662.625,25.2813 L1660.1875,25.8594 Q1659.9688,24.9063 1659.2891,24.3594 Q1658.6094,23.8125 1657.625,23.8125 Q1656.2656,23.8125 1655.4297,24.7891 Q1654.5938,25.7656 1654.5938,27.9375 Q1654.5938,30.2344 1655.4219,31.2188 Q1656.25,32.2031 1657.5781,32.2031 Q1658.5625,32.2031 1659.2656,31.5781 Q1659.9688,30.9531 1660.2656,29.625 Z "/><text fill="#000000" font-size="12" font-style="italic" lengthAdjust="spacingAndGlyphs" textLength="97" x="1669.5" y="25">&lt;&lt; Unidentified&gt;&gt;</text><text fill="#000000" font-size="12" lengthAdjust="spacingAndGlyphs" textLength="46" x="1695" y="40.0938">FAEditor</text><line style="stroke: #2E8B57; stroke-width: 1.5;" x1="1643.5" x2="1766.5" y1="48.1875" y2="48.1875"/><line style="stroke: #2E8B57; stroke-width: 1.5;" x1="1643.5" x2="1766.5" y1="56.1875" y2="56.1875"/><rect fill="#F5DEB3" filter="url(#f1)" height="56.1875" style="stroke: #FF6347; stroke-width: 1.5;" width="209" x="416.5" y="124"/><ellipse cx="431.5" cy="144.0938" fill="#ADD1B2" rx="11" ry="11" style="stroke: #FF6347; stroke-width: 1.0;"/><path d="M434.2656,145.625 L436.6563,146.375 Q436.1094,148.3594 434.8359,149.3281 Q433.5625,150.2969 431.5938,150.2969 Q429.1719,150.2969 427.6172,148.6406 Q426.0625,146.9844 426.0625,144.1094 Q426.0625,141.0781 427.625,139.3984 Q429.1875,137.7188 431.75,137.7188 Q433.9844,137.7188 435.375,139.0313 Q436.2031,139.8125 436.625,141.2813 L434.1875,141.8594 Q433.9688,140.9063 433.2891,140.3594 Q432.6094,139.8125 431.625,139.8125 Q430.2656,139.8125 429.4297,140.7891 Q428.5938,141.7656 428.5938,143.9375 Q428.5938,146.2344 429.4219,147.2188 Q430.25,148.2031 431.5781,148.2031 Q432.5625,148.2031 433.2656,147.5781 Q433.9688,146.9531 434.2656,145.625 Z "/><text fill="#000000" font-size="12" font-style="italic" lengthAdjust="spacingAndGlyphs" textLength="54" x="507" y="141">&lt;&lt;View&gt;&gt;</text><text fill="#000000" font-size="12" lengthAdjust="spacingAndGlyphs" textLength="177" x="445.5" y="156.0938">FATransitionTableColumnModel</text><line style="stroke: #FF6347; stroke-width: 1.5;" x1="417.5" x2="624.5" y1="164.1875" y2="164.1875"/><line style="stroke: #FF6347; stroke-width: 1.5;" x1="417.5" x2="624.5" y1="172.1875" y2="172.1875"/><rect fill="#FFF8DC" filter="url(#f1)" height="56.1875" style="stroke: #2E8B57; stroke-width: 1.5;" width="165" x="1551.5" y="472"/><ellipse cx="1566.5" cy="492.0938" fill="#ADD1B2" rx="11" ry="11" style="stroke: #2E8B57; stroke-width: 1.0;"/><path d="M1569.2656,493.625 L1571.6563,494.375 Q1571.1094,496.3594 1569.8359,497.3281 Q1568.5625,498.2969 1566.5938,498.2969 Q1564.1719,498.2969 1562.6172,496.6406 Q1561.0625,494.9844 1561.0625,492.1094 Q1561.0625,489.0781 1562.625,487.3984 Q1564.1875,485.7188 1566.75,485.7188 Q1568.9844,485.7188 1570.375,487.0313 Q1571.2031,487.8125 1571.625,489.2813 L1569.1875,489.8594 Q1568.9688,488.9063 1568.2891,488.3594 Q1567.6094,487.8125 1566.625,487.8125 Q1565.2656,487.8125 1564.4297,488.7891 Q1563.5938,489.7656 1563.5938,491.9375 Q1563.5938,494.2344 1564.4219,495.2188 Q1565.25,496.2031 1566.5781,496.2031 Q1567.5625,496.2031 1568.2656,495.5781 Q1568.9688,494.9531 1569.2656,493.625 Z "/><text fill="#000000" font-size="12" font-style="italic" lengthAdjust="spacingAndGlyphs" textLength="111" x="1591.5" y="489">&lt;&lt;View Controller&gt;&gt;</text><text fill="#000000" font-size="12" lengthAdjust="spacingAndGlyphs" textLength="133" x="1580.5" y="504.0938">FATransitionTableModel</text><line style="stroke: #2E8B57; stroke-width: 1.5;" x1="1552.5" x2="1715.5" y1="512.1875" y2="512.1875"/><line style="stroke: #2E8B57; stroke-width: 1.5;" x1="1552.5" x2="1715.5" y1="520.1875" y2="520.1875"/><rect fill="#B2BF00" filter="url(#f1)" height="56.1875" style="stroke: #FF6347; stroke-width: 1.5;" width="184" x="6" y="240"/><ellipse cx="21" cy="260.0938" fill="#ADD1B2" rx="11" ry="11" style="stroke: #FF6347; stroke-width: 1.0;"/><path d="M23.7656,261.625 L26.1563,262.375 Q25.6094,264.3594 24.3359,265.3281 Q23.0625,266.2969 21.0938,266.2969 Q18.6719,266.2969 17.1172,264.6406 Q15.5625,262.9844 15.5625,260.1094 Q15.5625,257.0781 17.125,255.3984 Q18.6875,253.7188 21.25,253.7188 Q23.4844,253.7188 24.875,255.0313 Q25.7031,255.8125 26.125,257.2813 L23.6875,257.8594 Q23.4688,256.9063 22.7891,256.3594 Q22.1094,255.8125 21.125,255.8125 Q19.7656,255.8125 18.9297,256.7891 Q18.0938,257.7656 18.0938,259.9375 Q18.0938,262.2344 18.9219,263.2188 Q19.75,264.2031 21.0781,264.2031 Q22.0625,264.2031 22.7656,263.5781 Q23.4688,262.9531 23.7656,261.625 Z "/><text fill="#000000" font-size="12" font-style="italic" lengthAdjust="spacingAndGlyphs" textLength="61" x="80.5" y="257">&lt;&lt;Model&gt;&gt;</text><text fill="#000000" font-size="12" lengthAdjust="spacingAndGlyphs" textLength="152" x="35" y="272.0938">NoSuchTransitionException</text><line style="stroke: #FF6347; stroke-width: 1.5;" x1="7" x2="189" y1="280.1875" y2="280.1875"/><line style="stroke: #FF6347; stroke-width: 1.5;" x1="7" x2="189" y1="288.1875" y2="288.1875"/><rect fill="#B2BF00" filter="url(#f1)" height="56.1875" style="stroke: #FF6347; stroke-width: 1.5;" width="100" x="1823" y="588"/><ellipse cx="1838" cy="608.0938" fill="#ADD1B2" rx="11" ry="11" style="stroke: #FF6347; stroke-width: 1.0;"/><path d="M1840.7656,609.625 L1843.1563,610.375 Q1842.6094,612.3594 1841.3359,613.3281 Q1840.0625,614.2969 1838.0938,614.2969 Q1835.6719,614.2969 1834.1172,612.6406 Q1832.5625,610.9844 1832.5625,608.1094 Q1832.5625,605.0781 1834.125,603.3984 Q1835.6875,601.7188 1838.25,601.7188 Q1840.4844,601.7188 1841.875,603.0313 Q1842.7031,603.8125 1843.125,605.2813 L1840.6875,605.8594 Q1840.4688,604.9063 1839.7891,604.3594 Q1839.1094,603.8125 1838.125,603.8125 Q1836.7656,603.8125 1835.9297,604.7891 Q1835.0938,605.7656 1835.0938,607.9375 Q1835.0938,610.2344 1835.9219,611.2188 Q1836.75,612.2031 1838.0781,612.2031 Q1839.0625,612.2031 1839.7656,611.5781 Q1840.4688,610.9531 1840.7656,609.625 Z "/><text fill="#000000" font-size="12" font-style="italic" lengthAdjust="spacingAndGlyphs" textLength="61" x="1855.5" y="605">&lt;&lt;Model&gt;&gt;</text><text fill="#000000" font-size="12" lengthAdjust="spacingAndGlyphs" textLength="68" x="1852" y="620.0938">SquareState</text><line style="stroke: #FF6347; stroke-width: 1.5;" x1="1824" x2="1922" y1="628.1875" y2="628.1875"/><line style="stroke: #FF6347; stroke-width: 1.5;" x1="1824" x2="1922" y1="636.1875" y2="636.1875"/><rect fill="#BDB76B" filter="url(#f1)" height="56.1875" style="stroke: #FF6347; stroke-width: 1.5;" width="113" x="1596.5" y="704"/><ellipse cx="1611.5" cy="724.0938" fill="#ADD1B2" rx="11" ry="11" style="stroke: #FF6347; stroke-width: 1.0;"/><path d="M1614.2656,725.625 L1616.6563,726.375 Q1616.1094,728.3594 1614.8359,729.3281 Q1613.5625,730.2969 1611.5938,730.2969 Q1609.1719,730.2969 1607.6172,728.6406 Q1606.0625,726.9844 1606.0625,724.1094 Q1606.0625,721.0781 1607.625,719.3984 Q1609.1875,717.7188 1611.75,717.7188 Q1613.9844,717.7188 1615.375,719.0313 Q1616.2031,719.8125 1616.625,721.2813 L1614.1875,721.8594 Q1613.9688,720.9063 1613.2891,720.3594 Q1612.6094,719.8125 1611.625,719.8125 Q1610.2656,719.8125 1609.4297,720.7891 Q1608.5938,721.7656 1608.5938,723.9375 Q1608.5938,726.2344 1609.4219,727.2188 Q1610.25,728.2031 1611.5781,728.2031 Q1612.5625,728.2031 1613.2656,727.5781 Q1613.9688,726.9531 1614.2656,725.625 Z "/><text fill="#000000" font-size="12" font-style="italic" lengthAdjust="spacingAndGlyphs" textLength="85" x="1623.5" y="721">&lt;&lt; Controller&gt;&gt;</text><text fill="#000000" font-size="12" lengthAdjust="spacingAndGlyphs" textLength="28" x="1652" y="736.0938">State</text><line style="stroke: #FF6347; stroke-width: 1.5;" x1="1597.5" x2="1708.5" y1="744.1875" y2="744.1875"/><line style="stroke: #FF6347; stroke-width: 1.5;" x1="1597.5" x2="1708.5" y1="752.1875" y2="752.1875"/><rect fill="#BDB76B" filter="url(#f1)" height="56.1875" style="stroke: #FF6347; stroke-width: 1.5;" width="124" x="1591" y="820"/><ellipse cx="1606" cy="840.0938" fill="#ADD1B2" rx="11" ry="11" style="stroke: #FF6347; stroke-width: 1.0;"/><path d="M1608.7656,841.625 L1611.1563,842.375 Q1610.6094,844.3594 1609.3359,845.3281 Q1608.0625,846.2969 1606.0938,846.2969 Q1603.6719,846.2969 1602.1172,844.6406 Q1600.5625,842.9844 1600.5625,840.1094 Q1600.5625,837.0781 1602.125,835.3984 Q1603.6875,833.7188 1606.25,833.7188 Q1608.4844,833.7188 1609.875,835.0313 Q1610.7031,835.8125 1611.125,837.2813 L1608.6875,837.8594 Q1608.4688,836.9063 1607.7891,836.3594 Q1607.1094,835.8125 1606.125,835.8125 Q1604.7656,835.8125 1603.9297,836.7891 Q1603.0938,837.7656 1603.0938,839.9375 Q1603.0938,842.2344 1603.9219,843.2188 Q1604.75,844.2031 1606.0781,844.2031 Q1607.0625,844.2031 1607.7656,843.5781 Q1608.4688,842.9531 1608.7656,841.625 Z "/><text fill="#000000" font-size="12" font-style="italic" lengthAdjust="spacingAndGlyphs" textLength="85" x="1623.5" y="837">&lt;&lt; Controller&gt;&gt;</text><text fill="#000000" font-size="12" lengthAdjust="spacingAndGlyphs" textLength="92" x="1620" y="852.0938">State_Properties</text><line style="stroke: #FF6347; stroke-width: 1.5;" x1="1592" x2="1714" y1="860.1875" y2="860.1875"/><line style="stroke: #FF6347; stroke-width: 1.5;" x1="1592" x2="1714" y1="868.1875" y2="868.1875"/><rect fill="#F5DEB3" filter="url(#f1)" height="56.1875" style="stroke: #FF6347; stroke-width: 1.5;" width="101" x="1790.5" y="356"/><ellipse cx="1805.5" cy="376.0938" fill="#ADD1B2" rx="11" ry="11" style="stroke: #FF6347; stroke-width: 1.0;"/><path d="M1808.2656,377.625 L1810.6563,378.375 Q1810.1094,380.3594 1808.8359,381.3281 Q1807.5625,382.2969 1805.5938,382.2969 Q1803.1719,382.2969 1801.6172,380.6406 Q1800.0625,378.9844 1800.0625,376.1094 Q1800.0625,373.0781 1801.625,371.3984 Q1803.1875,369.7188 1805.75,369.7188 Q1807.9844,369.7188 1809.375,371.0313 Q1810.2031,371.8125 1810.625,373.2813 L1808.1875,373.8594 Q1807.9688,372.9063 1807.2891,372.3594 Q1806.6094,371.8125 1805.625,371.8125 Q1804.2656,371.8125 1803.4297,372.7891 Q1802.5938,373.7656 1802.5938,375.9375 Q1802.5938,378.2344 1803.4219,379.2188 Q1804.25,380.2031 1805.5781,380.2031 Q1806.5625,380.2031 1807.2656,379.5781 Q1807.9688,378.9531 1808.2656,377.625 Z "/><text fill="#000000" font-size="12" font-style="italic" lengthAdjust="spacingAndGlyphs" textLength="54" x="1827" y="373">&lt;&lt;View&gt;&gt;</text><text fill="#000000" font-size="12" lengthAdjust="spacingAndGlyphs" textLength="69" x="1819.5" y="388.0938">TouchButton</text><line style="stroke: #FF6347; stroke-width: 1.5;" x1="1791.5" x2="1890.5" y1="396.1875" y2="396.1875"/><line style="stroke: #FF6347; stroke-width: 1.5;" x1="1791.5" x2="1890.5" y1="404.1875" y2="404.1875"/><rect fill="#BDB76B" filter="url(#f1)" height="56.1875" style="stroke: #FF6347; stroke-width: 1.5;" width="113" x="1596.5" y="588"/><ellipse cx="1611.5" cy="608.0938" fill="#ADD1B2" rx="11" ry="11" style="stroke: #FF6347; stroke-width: 1.0;"/><path d="M1614.2656,609.625 L1616.6563,610.375 Q1616.1094,612.3594 1614.8359,613.3281 Q1613.5625,614.2969 1611.5938,614.2969 Q1609.1719,614.2969 1607.6172,612.6406 Q1606.0625,610.9844 1606.0625,608.1094 Q1606.0625,605.0781 1607.625,603.3984 Q1609.1875,601.7188 1611.75,601.7188 Q1613.9844,601.7188 1615.375,603.0313 Q1616.2031,603.8125 1616.625,605.2813 L1614.1875,605.8594 Q1613.9688,604.9063 1613.2891,604.3594 Q1612.6094,603.8125 1611.625,603.8125 Q1610.2656,603.8125 1609.4297,604.7891 Q1608.5938,605.7656 1608.5938,607.9375 Q1608.5938,610.2344 1609.4219,611.2188 Q1610.25,612.2031 1611.5781,612.2031 Q1612.5625,612.2031 1613.2656,611.5781 Q1613.9688,610.9531 1614.2656,609.625 Z "/><text fill="#000000" font-size="12" font-style="italic" lengthAdjust="spacingAndGlyphs" textLength="85" x="1623.5" y="605">&lt;&lt; Controller&gt;&gt;</text><text fill="#000000" font-size="12" lengthAdjust="spacingAndGlyphs" textLength="55" x="1638.5" y="620.0938">Transition</text><line style="stroke: #FF6347; stroke-width: 1.5;" x1="1597.5" x2="1708.5" y1="628.1875" y2="628.1875"/><line style="stroke: #FF6347; stroke-width: 1.5;" x1="1597.5" x2="1708.5" y1="636.1875" y2="636.1875"/><rect fill="#FFF8DC" filter="url(#f1)" height="48" style="stroke: #2E8B57; stroke-width: 1.5;" width="72" x="1998" y="12"/><ellipse cx="2013" cy="28" fill="#ADD1B2" rx="11" ry="11" style="stroke: #2E8B57; stroke-width: 1.0;"/><path d="M2015.7656,29.5313 L2018.1563,30.2813 Q2017.6094,32.2656 2016.3359,33.2344 Q2015.0625,34.2031 2013.0938,34.2031 Q2010.6719,34.2031 2009.1172,32.5469 Q2007.5625,30.8906 2007.5625,28.0156 Q2007.5625,24.9844 2009.125,23.3047 Q2010.6875,21.625 2013.25,21.625 Q2015.4844,21.625 2016.875,22.9375 Q2017.7031,23.7188 2018.125,25.1875 L2015.6875,25.7656 Q2015.4688,24.8125 2014.7891,24.2656 Q2014.1094,23.7188 2013.125,23.7188 Q2011.7656,23.7188 2010.9297,24.6953 Q2010.0938,25.6719 2010.0938,27.8438 Q2010.0938,30.1406 2010.9219,31.125 Q2011.75,32.1094 2013.0781,32.1094 Q2014.0625,32.1094 2014.7656,31.4844 Q2015.4688,30.8594 2015.7656,29.5313 Z "/><text fill="#000000" font-size="12" lengthAdjust="spacingAndGlyphs" textLength="40" x="2027" y="32.4531">Class1</text><line style="stroke: #2E8B57; stroke-width: 1.5;" x1="1999" x2="2069" y1="44" y2="44"/><line style="stroke: #2E8B57; stroke-width: 1.5;" x1="1999" x2="2069" y1="52" y2="52"/><rect fill="#FFF8DC" filter="url(#f1)" height="48" style="stroke: #2E8B57; stroke-width: 1.5;" width="72" x="1998" y="128"/><ellipse cx="2013" cy="144" fill="#ADD1B2" rx="11" ry="11" style="stroke: #2E8B57; stroke-width: 1.0;"/><path d="M2015.7656,145.5313 L2018.1563,146.2813 Q2017.6094,148.2656 2016.3359,149.2344 Q2015.0625,150.2031 2013.0938,150.2031 Q2010.6719,150.2031 2009.1172,148.5469 Q2007.5625,146.8906 2007.5625,144.0156 Q2007.5625,140.9844 2009.125,139.3047 Q2010.6875,137.625 2013.25,137.625 Q2015.4844,137.625 2016.875,138.9375 Q2017.7031,139.7188 2018.125,141.1875 L2015.6875,141.7656 Q2015.4688,140.8125 2014.7891,140.2656 Q2014.1094,139.7188 2013.125,139.7188 Q2011.7656,139.7188 2010.9297,140.6953 Q2010.0938,141.6719 2010.0938,143.8438 Q2010.0938,146.1406 2010.9219,147.125 Q2011.75,148.1094 2013.0781,148.1094 Q2014.0625,148.1094 2014.7656,147.4844 Q2015.4688,146.8594 2015.7656,145.5313 Z "/><text fill="#000000" font-size="12" lengthAdjust="spacingAndGlyphs" textLength="40" x="2027" y="148.4531">Class2</text><line style="stroke: #2E8B57; stroke-width: 1.5;" x1="1999" x2="2069" y1="160" y2="160"/><line style="stroke: #2E8B57; stroke-width: 1.5;" x1="1999" x2="2069" y1="168" y2="168"/><rect fill="#FFF8DC" filter="url(#f1)" height="48" style="stroke: #2E8B57; stroke-width: 1.5;" width="72" x="225" y="244"/><ellipse cx="240" cy="260" fill="#ADD1B2" rx="11" ry="11" style="stroke: #2E8B57; stroke-width: 1.0;"/><path d="M242.7656,261.5313 L245.1563,262.2813 Q244.6094,264.2656 243.3359,265.2344 Q242.0625,266.2031 240.0938,266.2031 Q237.6719,266.2031 236.1172,264.5469 Q234.5625,262.8906 234.5625,260.0156 Q234.5625,256.9844 236.125,255.3047 Q237.6875,253.625 240.25,253.625 Q242.4844,253.625 243.875,254.9375 Q244.7031,255.7188 245.125,257.1875 L242.6875,257.7656 Q242.4688,256.8125 241.7891,256.2656 Q241.1094,255.7188 240.125,255.7188 Q238.7656,255.7188 237.9297,256.6953 Q237.0938,257.6719 237.0938,259.8438 Q237.0938,262.1406 237.9219,263.125 Q238.75,264.1094 240.0781,264.1094 Q241.0625,264.1094 241.7656,263.4844 Q242.4688,262.8594 242.7656,261.5313 Z "/><text fill="#000000" font-size="12" lengthAdjust="spacingAndGlyphs" textLength="40" x="254" y="264.4531">Class3</text><line style="stroke: #2E8B57; stroke-width: 1.5;" x1="226" x2="296" y1="276" y2="276"/><line style="stroke: #2E8B57; stroke-width: 1.5;" x1="226" x2="296" y1="284" y2="284"/><path d="M1139.51,412.016 C1153.49,428.789 1171.5,450.403 1186.07,467.89 " fill="none" style="stroke: #A80036; stroke-width: 1.0;"/><polygon fill="#A80036" points="1189.32,471.782,1186.6326,462.3069,1186.1196,467.9404,1180.4861,467.4275,1189.32,471.782" style="stroke: #A80036; stroke-width: 1.0;"/><path d="M1114.71,296.016 C1115.19,314.057 1115.81,337.7 1116.28,355.782 " fill="none" style="stroke: #A80036; stroke-width: 1.0;"/><path d="M1652.81,64.12 C1620.87,80.942 1579.3,103.236 1543,124 C1400.81,205.328 1236.04,307.955 1159.78,355.945 " fill="none" style="stroke: #A80036; stroke-width: 1.0;"/><path d="M1279.78,528.016 C1327.37,546.986 1390.5,572.149 1436.61,590.529 " fill="none" style="stroke: #A80036; stroke-width: 1.0;"/><polygon fill="#A80036" points="1441.3,592.399,1434.4091,585.3623,1436.6523,590.5554,1431.4593,592.7986,1441.3,592.399" style="stroke: #A80036; stroke-width: 1.0;"/><path d="M1676,64.175 C1588.59,146.09 1328.33,389.989 1240.96,471.859 " fill="none" style="stroke: #A80036; stroke-width: 1.0;"/><path d="M1246.82,528.184 C1287.6,559.119 1357.98,609.776 1424,644 C1478.57,672.29 1544.52,696.368 1591.6,711.972 " fill="none" style="stroke: #A80036; stroke-width: 1.0;"/><polygon fill="#A80036" points="1596.39,713.55,1589.103,706.9243,1591.6433,711.9787,1586.5889,714.5191,1596.39,713.55" style="stroke: #A80036; stroke-width: 1.0;"/><path d="M1303.18,520.791 C1376.29,537.198 1481.3,561.975 1572,588 C1578.24,589.792 1584.73,591.762 1591.18,593.796 " fill="none" style="stroke: #A80036; stroke-width: 1.0;"/><polygon fill="#A80036" points="1596.1,595.362,1588.7345,588.8237,1591.3349,593.8475,1586.3112,596.4479,1596.1,595.362" style="stroke: #A80036; stroke-width: 1.0;"/><path d="M873.673,64.159 C968.597,112.672 1157.94,211.787 1177,240 C1224.02,309.615 1221.34,414.003 1216.25,466.456 " fill="none" style="stroke: #A80036; stroke-width: 1.0;"/><polygon fill="#A80036" points="1215.72,471.673,1220.6103,463.124,1216.226,466.6987,1212.6514,462.3144,1215.72,471.673" style="stroke: #A80036; stroke-width: 1.0;"/><path d="M892.92,60.483 C957.689,81.34 1051.3,111.485 1112.39,131.16 " fill="none" style="stroke: #A80036; stroke-width: 1.0;"/><polygon fill="#A80036" points="1117.46,132.794,1110.114,126.2338,1112.6994,131.2652,1107.668,133.8507,1117.46,132.794" style="stroke: #A80036; stroke-width: 1.0;"/><path d="M1116.2,61.622 C1170.88,78.029 1232.06,100.778 1248,124 C1321.57,231.152 1259.22,397.927 1227.64,467.183 " fill="none" style="stroke: #A80036; stroke-width: 1.0;"/><polygon fill="#A80036" points="1225.43,471.999,1232.8271,465.4965,1227.5209,467.4572,1225.5603,462.151,1225.43,471.999" style="stroke: #A80036; stroke-width: 1.0;"/><path d="M1058.02,64.016 C1080.84,81.133 1110.39,103.292 1133.95,120.961 " fill="none" style="stroke: #A80036; stroke-width: 1.0;"/><polygon fill="#A80036" points="1137.97,123.98,1133.17,115.38,1133.97,120.98,1128.37,121.78,1137.97,123.98" style="stroke: #A80036; stroke-width: 1.0;"/><path d="M1117.23,155.02 C1004.385,161.372 768.112,187.636 833,296 C893.935,397.763 1025.25,451.409 1116.1,477.462 " fill="none" style="stroke: #A80036; stroke-width: 1.0;"/><polygon fill="#A80036" points="1120.93,478.835,1113.3539,472.542,1116.1178,477.4776,1111.1821,480.2415,1120.93,478.835" style="stroke: #A80036; stroke-width: 1.0;"/><path d="M1119.02,180.016 C1083.75,197.345 1037.97,219.842 1001.8,237.616 " fill="none" style="stroke: #A80036; stroke-width: 1.0;"/><polygon fill="#A80036" points="996.988,239.98,1006.8295,239.6007,1001.4755,237.7748,1003.3013,232.4207,996.988,239.98" style="stroke: #A80036; stroke-width: 1.0;"/><path d="M1159.78,180.016 C1151.1,196.507 1139.96,217.678 1130.84,235.004 " fill="none" style="stroke: #A80036; stroke-width: 1.0;"/><polygon fill="#A80036" points="1128.33,239.782,1136.0671,233.6879,1130.6629,235.3596,1128.9912,229.9554,1128.33,239.782" style="stroke: #A80036; stroke-width: 1.0;"/><path d="M1337.28,64.016 C1304.76,81.345 1262.52,103.842 1229.16,121.616 " fill="none" style="stroke: #A80036; stroke-width: 1.0;"/><polygon fill="#A80036" points="1224.72,123.98,1234.5431,123.2678,1229.1303,121.6242,1230.7739,116.2114,1224.72,123.98" style="stroke: #A80036; stroke-width: 1.0;"/><path d="M1381.75,64.092 C1372.44,106.925 1356,193.022 1356,267 C1356,267 1356,267 1356,385 C1356,466.54 1421.42,543.348 1463.45,584.284 " fill="none" style="stroke: #A80036; stroke-width: 1.0;"/><polygon fill="#A80036" points="1467.19,587.892,1463.4898,578.7647,1463.5915,584.4206,1457.9355,584.5223,1467.19,587.892" style="stroke: #A80036; stroke-width: 1.0;"/><path d="M712.037,59.442 C718.098,61.047 724.14,62.587 730,64 C865.327,96.629 1026.07,125.775 1112.18,140.624 " fill="none" style="stroke: #A80036; stroke-width: 1.0;"/><polygon fill="#A80036" points="1117.24,141.494,1109.0431,136.0341,1112.3115,140.6512,1107.6945,143.9197,1117.24,141.494" style="stroke: #A80036; stroke-width: 1.0;"/><path d="M672.356,64.162 C720.119,103.261 798,180.307 798,267 C798,267 798,267 798,501 C798,665.362 1394.65,715.622 1591.11,727.715 " fill="none" style="stroke: #A80036; stroke-width: 1.0;"/><polygon fill="#A80036" points="1596.24,728.028,1587.4962,723.4953,1591.249,727.728,1587.0162,731.4808,1596.24,728.028" style="stroke: #A80036; stroke-width: 1.0;"/><path d="M1484.84,58.178 C1478.82,60.178 1472.8,62.149 1467,64 C1387.47,89.386 1295.03,116.428 1235.59,133.503 " fill="none" style="stroke: #A80036; stroke-width: 1.0;"/><polygon fill="#A80036" points="1230.65,134.919,1240.4021,136.2964,1235.4582,133.5473,1238.2073,128.6034,1230.65,134.919" style="stroke: #A80036; stroke-width: 1.0;"/><path d="M1521.05,64.04 C1486.16,104.793 1427,185.85 1427,267 C1427,267 1427,267 1427,385 C1427,479.168 1524.58,548.888 1591.5,585.631 " fill="none" style="stroke: #A80036; stroke-width: 1.0;"/><polygon fill="#A80036" points="1596.26,588.219,1590.259,580.4095,1591.8658,585.8334,1586.442,587.4402,1596.26,588.219" style="stroke: #A80036; stroke-width: 1.0;"/><path d="M1209.86,64.016 C1203.06,80.507 1194.33,101.678 1187.19,119.004 " fill="none" style="stroke: #A80036; stroke-width: 1.0;"/><polygon fill="#A80036" points="1185.22,123.782,1192.3452,116.9827,1187.1236,119.1586,1184.9477,113.9369,1185.22,123.782" style="stroke: #A80036; stroke-width: 1.0;"/><path d="M1534.73,644.016 C1558.01,661.133 1588.13,683.292 1612.16,700.961 " fill="none" style="stroke: #A80036; stroke-width: 1.0;"/><polygon fill="#A80036" points="1616.26,703.98,1611.3732,695.429,1612.2298,701.0206,1606.6382,701.8773,1616.26,703.98" style="stroke: #A80036; stroke-width: 1.0;"/><path d="M1642.45,58.749 C1636.25,60.634 1630.02,62.421 1624,64 C1487.03,99.905 1323.04,127.932 1235.78,141.684 " fill="none" style="stroke: #A80036; stroke-width: 1.0;"/><polygon fill="#A80036" points="1230.66,142.488,1240.1767,145.0242,1235.5979,141.7024,1238.9197,137.1236,1230.66,142.488" style="stroke: #A80036; stroke-width: 1.0;"/><path d="M1692.96,64.043 C1663.14,131.738 1584.59,314.381 1534,472 C1521.94,509.56 1511.36,553.712 1504.84,582.913 " fill="none" style="stroke: #A80036; stroke-width: 1.0;"/><polygon fill="#A80036" points="1503.75,587.826,1509.6076,579.9084,1504.835,582.9451,1501.7982,578.1725,1503.75,587.826" style="stroke: #A80036; stroke-width: 1.0;"/><path d="M1713.48,64.056 C1739.44,151.802 1811.14,434.891 1727,644 C1718.54,665.028 1702.88,684.624 1688.14,699.874 " fill="none" style="stroke: #A80036; stroke-width: 1.0;"/><polygon fill="#A80036" points="1684.41,703.655,1693.5699,700.0361,1687.9133,700.0875,1687.8619,694.4309,1684.41,703.655" style="stroke: #A80036; stroke-width: 1.0;"/><path d="M1726.29,64.349 C1738.37,80.89 1753.02,102.816 1763,124 C1799.67,201.83 1823.8,300.912 1834.56,350.965 " fill="none" style="stroke: #A80036; stroke-width: 1.0;"/><polygon fill="#A80036" points="1835.62,355.946,1837.6558,346.3099,1834.5776,351.0559,1829.8316,347.9776,1835.62,355.946" style="stroke: #A80036; stroke-width: 1.0;"/><path d="M1767.74,64.058 C1838.85,99.454 1945,168.747 1945,267 C1945,267 1945,267 1945,385 C1945,501.377 1800.09,567.929 1714.44,597.101 " fill="none" style="stroke: #A80036; stroke-width: 1.0;"/><polygon fill="#A80036" points="1709.65,598.716,1719.4542,599.6532,1714.3916,597.1293,1716.9154,592.0667,1709.65,598.716" style="stroke: #A80036; stroke-width: 1.0;"/><path d="M1601.77,528.016 C1581.51,545 1555.32,566.949 1534.33,584.549 " fill="none" style="stroke: #A80036; stroke-width: 1.0;"/><polygon fill="#A80036" points="1530.47,587.782,1539.9363,585.0638,1534.3011,584.5692,1534.7958,578.934,1530.47,587.782" style="stroke: #A80036; stroke-width: 1.0;"/><path d="M1822.79,637.777 C1785.48,655.539 1735.32,681.315 1699.03,701.263 " fill="none" style="stroke: #A80036; stroke-width: 1.0;"/><polygon fill="#A80036" points="1694.23,703.914,1704.0426,703.0698,1698.6082,701.4991,1700.1788,696.0647,1694.23,703.914" style="stroke: #A80036; stroke-width: 1.0;"/><path d="M1653,760.016 C1653,776.3659 1653,797.3164 1653,814.5594 " fill="none" style="stroke: #A80036; stroke-width: 1.0;"/><polygon fill="#A80036" points="1653,819.7824,1657,810.7824,1653,814.7824,1649,810.7824,1653,819.7824" style="stroke: #A80036; stroke-width: 1.0;"/><path d="M1822.11,412.012 C1801.35,441.265 1766.61,488.977 1734,528 C1717.88,547.287 1698.77,567.914 1683.16,584.24 " fill="none" style="stroke: #A80036; stroke-width: 1.0;"/><polygon fill="#A80036" points="1679.68,587.868,1688.8005,584.1509,1683.1447,584.2631,1683.0326,578.6073,1679.68,587.868" style="stroke: #A80036; stroke-width: 1.0;"/><path d="M1653,644.016 C1653,660.366 1653,681.316 1653,698.559 " fill="none" style="stroke: #A80036; stroke-width: 1.0;"/><polygon fill="#A80036" points="1653,703.782,1657,694.782,1653,698.782,1649,694.782,1653,703.782" style="stroke: #A80036; stroke-width: 1.0;"/><path d="M1832.54,644.016 C1803.18,660.369 1762.95,681.325 1727.9,698.57 " fill="none" style="stroke: #A80036; stroke-width: 1.0;"/><polygon fill="none" points="1730.65,705.017,1709.6,707.46,1724.53,692.425,1730.65,705.017" style="stroke: #A80036; stroke-width: 1.0;"/><path d="M2034,60.07 C2034,73.745 2034,91.516 2034,107.716 " fill="none" style="stroke: #A80036; stroke-width: 1.0;"/><polygon fill="none" points="2041,107.965,2034,127.965,2027,107.965,2041,107.965" style="stroke: #A80036; stroke-width: 1.0;"/></g></svg>