<?xml version="1.0" encoding="UTF-8" standalone="yes"?><svg xmlns="http://www.w3.org/2000/svg" xmlns:xlink="http://www.w3.org/1999/xlink" height="885pt" style="width:2073px;height:885px;" version="1.1" viewBox="0 0 2073 885" width="2073pt"><defs><filter height="300%" id="f1" width="300%" x="-1" y="-1"><feGaussianBlur result="blurOut" stdDeviation="2"/><feColorMatrix in="blurOut" result="blurOut2" type="matrix" values="0 0 0 0 0 0 0 0 0 0 0 0 0 0 0 0 0 0 .4 0"/><feOffset dx="4" dy="4" in="blurOut2" result="blurOut3"/><feBlend in="SourceGraphic" in2="blurOut3" mode="normal"/></filter></defs><g><rect fill="#FFF8DC" filter="url(#f1)" height="48" style="stroke: #2E8B57; stroke-width: 1.5;" width="53" x="71.5" y="12"/><ellipse cx="86.5" cy="28" fill="#ADD1B2" rx="11" ry="11" style="stroke: #2E8B57; stroke-width: 1.0;"/><path d="M89.2656,29.5313 L91.6563,30.2813 Q91.1094,32.2656 89.8359,33.2344 Q88.5625,34.2031 86.5938,34.2031 Q84.1719,34.2031 82.6172,32.5469 Q81.0625,30.8906 81.0625,28.0156 Q81.0625,24.9844 82.625,23.3047 Q84.1875,21.625 86.75,21.625 Q88.9844,21.625 90.375,22.9375 Q91.2031,23.7188 91.625,25.1875 L89.1875,25.7656 Q88.9688,24.8125 88.2891,24.2656 Q87.6094,23.7188 86.625,23.7188 Q85.2656,23.7188 84.4297,24.6953 Q83.5938,25.6719 83.5938,27.8438 Q83.5938,30.1406 84.4219,31.125 Q85.25,32.1094 86.5781,32.1094 Q87.5625,32.1094 88.2656,31.4844 Q88.9688,30.8594 89.2656,29.5313 Z "/><text fill="#000000" font-size="12" lengthAdjust="spacingAndGlyphs" textLength="21" x="100.5" y="32.4531">htm</text><line style="stroke: #2E8B57; stroke-width: 1.5;" x1="72.5" x2="123.5" y1="44" y2="44"/><line style="stroke: #2E8B57; stroke-width: 1.5;" x1="72.5" x2="123.5" y1="52" y2="52"/><rect fill="#F5DEB3" filter="url(#f1)" height="56.1875" style="stroke: #FF6347; stroke-width: 1.5;" width="85" x="1068.5" y="356"/><ellipse cx="1083.5" cy="376.0938" fill="#ADD1B2" rx="11" ry="11" style="stroke: #FF6347; stroke-width: 1.0;"/><path d="M1086.2656,377.625 L1088.6563,378.375 Q1088.1094,380.3594 1086.8359,381.3281 Q1085.5625,382.2969 1083.5938,382.2969 Q1081.1719,382.2969 1079.6172,380.6406 Q1078.0625,378.9844 1078.0625,376.1094 Q1078.0625,373.0781 1079.625,371.3984 Q1081.1875,369.7188 1083.75,369.7188 Q1085.9844,369.7188 1087.375,371.0313 Q1088.2031,371.8125 1088.625,373.2813 L1086.1875,373.8594 Q1085.9688,372.9063 1085.2891,372.3594 Q1084.6094,371.8125 1083.625,371.8125 Q1082.2656,371.8125 1081.4297,372.7891 Q1080.5938,373.7656 1080.5938,375.9375 Q1080.5938,378.2344 1081.4219,379.2188 Q1082.25,380.2031 1083.5781,380.2031 Q1084.5625,380.2031 1085.2656,379.5781 Q1085.9688,378.9531 1086.2656,377.625 Z "/><text fill="#000000" font-size="12" font-style="italic" lengthAdjust="spacingAndGlyphs" textLength="54" x="1097" y="373">&lt;&lt;View&gt;&gt;</text><text fill="#000000" font-size="12" lengthAdjust="spacingAndGlyphs" textLength="53" x="1097.5" y="388.0938">FAPainter</text><line style="stroke: #FF6347; stroke-width: 1.5;" x1="1069.5" x2="1152.5" y1="396.1875" y2="396.1875"/><line style="stroke: #FF6347; stroke-width: 1.5;" x1="1069.5" x2="1152.5" y1="404.1875" y2="404.1875"/><rect fill="#FFF8DC" filter="url(#f1)" height="56.1875" style="stroke: #2E8B57; stroke-width: 1.5;" width="182" x="1115" y="472"/><ellipse cx="1130" cy="492.0938" fill="#ADD1B2" rx="11" ry="11" style="stroke: #2E8B57; stroke-width: 1.0;"/><path d="M1132.7656,493.625 L1135.1563,494.375 Q1134.6094,496.3594 1133.3359,497.3281 Q1132.0625,498.2969 1130.0938,498.2969 Q1127.6719,498.2969 1126.1172,496.6406 Q1124.5625,494.9844 1124.5625,492.1094 Q1124.5625,489.0781 1126.125,487.3984 Q1127.6875,485.7188 1130.25,485.7188 Q1132.4844,485.7188 1133.875,487.0313 Q1134.7031,487.8125 1135.125,489.2813 L1132.6875,489.8594 Q1132.4688,488.9063 1131.7891,488.3594 Q1131.1094,487.8125 1130.125,487.8125 Q1128.7656,487.8125 1127.9297,488.7891 Q1127.0938,489.7656 1127.0938,491.9375 Q1127.0938,494.2344 1127.9219,495.2188 Q1128.75,496.2031 1130.0781,496.2031 Q1131.0625,496.2031 1131.7656,495.5781 Q1132.4688,494.9531 1132.7656,493.625 Z "/><text fill="#000000" font-size="12" font-style="italic" lengthAdjust="spacingAndGlyphs" textLength="154" x="1142" y="489">&lt;&lt; Controller Unidentified&gt;&gt;</text><text fill="#000000" font-size="12" lengthAdjust="spacingAndGlyphs" textLength="67" x="1185.5" y="504.0938">FASimulator</text><line style="stroke: #2E8B57; stroke-width: 1.5;" x1="1116" x2="1296" y1="512.1875" y2="512.1875"/><line style="stroke: #2E8B57; stroke-width: 1.5;" x1="1116" x2="1296" y1="520.1875" y2="520.1875"/><rect fill="#B2BF00" filter="url(#f1)" height="56.1875" style="stroke: #FF6347; stroke-width: 1.5;" width="205" x="159.5" y="8"/><ellipse cx="174.5" cy="28.0938" fill="#ADD1B2" rx="11" ry="11" style="stroke: #FF6347; stroke-width: 1.0;"/><path d="M177.2656,29.625 L179.6563,30.375 Q179.1094,32.3594 177.8359,33.3281 Q176.5625,34.2969 174.5938,34.2969 Q172.1719,34.2969 170.6172,32.6406 Q169.0625,30.9844 169.0625,28.1094 Q169.0625,25.0781 170.625,23.3984 Q172.1875,21.7188 174.75,21.7188 Q176.9844,21.7188 178.375,23.0313 Q179.2031,23.8125 179.625,25.2813 L177.1875,25.8594 Q176.9688,24.9063 176.2891,24.3594 Q175.6094,23.8125 174.625,23.8125 Q173.2656,23.8125 172.4297,24.7891 Q171.5938,25.7656 171.5938,27.9375 Q171.5938,30.2344 172.4219,31.2188 Q173.25,32.2031 174.5781,32.2031 Q175.5625,32.2031 176.2656,31.5781 Q176.9688,30.9531 177.2656,29.625 Z "/><text fill="#000000" font-size="12" font-style="italic" lengthAdjust="spacingAndGlyphs" textLength="61" x="244.5" y="25">&lt;&lt;Model&gt;&gt;</text><text fill="#000000" font-size="12" lengthAdjust="spacingAndGlyphs" textLength="173" x="188.5" y="40.0938">IncompleteAutomatonException</text><line style="stroke: #FF6347; stroke-width: 1.5;" x1="160.5" x2="363.5" y1="48.1875" y2="48.1875"/><line style="stroke: #FF6347; stroke-width: 1.5;" x1="160.5" x2="363.5" y1="56.1875" y2="56.1875"/><rect fill="#FFF8DC" filter="url(#f1)" height="56.1875" style="stroke: #2E8B57; stroke-width: 1.5;" width="125" x="399.5" y="8"/><ellipse cx="414.5" cy="28.0938" fill="#ADD1B2" rx="11" ry="11" style="stroke: #2E8B57; stroke-width: 1.0;"/><path d="M417.2656,29.625 L419.6563,30.375 Q419.1094,32.3594 417.8359,33.3281 Q416.5625,34.2969 414.5938,34.2969 Q412.1719,34.2969 410.6172,32.6406 Q409.0625,30.9844 409.0625,28.1094 Q409.0625,25.0781 410.625,23.3984 Q412.1875,21.7188 414.75,21.7188 Q416.9844,21.7188 418.375,23.0313 Q419.2031,23.8125 419.625,25.2813 L417.1875,25.8594 Q416.9688,24.9063 416.2891,24.3594 Q415.6094,23.8125 414.625,23.8125 Q413.2656,23.8125 412.4297,24.7891 Q411.5938,25.7656 411.5938,27.9375 Q411.5938,30.2344 412.4219,31.2188 Q413.25,32.2031 414.5781,32.2031 Q415.5625,32.2031 416.2656,31.5781 Q416.9688,30.9531 417.2656,29.625 Z "/><text fill="#000000" font-size="12" font-style="italic" lengthAdjust="spacingAndGlyphs" textLength="97" x="426.5" y="25">&lt;&lt; Unidentified&gt;&gt;</text><text fill="#000000" font-size="12" lengthAdjust="spacingAndGlyphs" textLength="26" x="462" y="40.0938">Main</text><line style="stroke: #2E8B57; stroke-width: 1.5;" x1="400.5" x2="523.5" y1="48.1875" y2="48.1875"/><line style="stroke: #2E8B57; stroke-width: 1.5;" x1="400.5" x2="523.5" y1="56.1875" y2="56.1875"/><rect fill="#F5DEB3" filter="url(#f1)" height="56.1875" style="stroke: #FF6347; stroke-width: 1.5;" width="145" x="747.5" y="8"/><ellipse cx="762.5" cy="28.0938" fill="#ADD1B2" rx="11" ry="11" style="stroke: #FF6347; stroke-width: 1.0;"/><path d="M765.2656,29.625 L767.6563,30.375 Q767.1094,32.3594 765.8359,33.3281 Q764.5625,34.2969 762.5938,34.2969 Q760.1719,34.2969 758.6172,32.6406 Q757.0625,30.9844 757.0625,28.1094 Q757.0625,25.0781 758.625,23.3984 Q760.1875,21.7188 762.75,21.7188 Q764.9844,21.7188 766.375,23.0313 Q767.2031,23.8125 767.625,25.2813 L765.1875,25.8594 Q764.9688,24.9063 764.2891,24.3594 Q763.6094,23.8125 762.625,23.8125 Q761.2656,23.8125 760.4297,24.7891 Q759.5938,25.7656 759.5938,27.9375 Q759.5938,30.2344 760.4219,31.2188 Q761.25,32.2031 762.5781,32.2031 Q763.5625,32.2031 764.2656,31.5781 Q764.9688,30.9531 765.2656,29.625 Z "/><text fill="#000000" font-size="12" font-style="italic" lengthAdjust="spacingAndGlyphs" textLength="54" x="806" y="25">&lt;&lt;View&gt;&gt;</text><text fill="#000000" font-size="12" lengthAdjust="spacingAndGlyphs" textLength="113" x="776.5" y="40.0938">FAAutoCompleteWin</text><line style="stroke: #FF6347; stroke-width: 1.5;" x1="748.5" x2="891.5" y1="48.1875" y2="48.1875"/><line style="stroke: #FF6347; stroke-width: 1.5;" x1="748.5" x2="891.5" y1="56.1875" y2="56.1875"/><rect fill="#F5DEB3" filter="url(#f1)" height="56.1875" style="stroke: #FF6347; stroke-width: 1.5;" width="188" x="1102" y="8"/><ellipse cx="1117" cy="28.0938" fill="#ADD1B2" rx="11" ry="11" style="stroke: #FF6347; stroke-width: 1.0;"/><path d="M1119.7656,29.625 L1122.1563,30.375 Q1121.6094,32.3594 1120.3359,33.3281 Q1119.0625,34.2969 1117.0938,34.2969 Q1114.6719,34.2969 1113.1172,32.6406 Q1111.5625,30.9844 1111.5625,28.1094 Q1111.5625,25.0781 1113.125,23.3984 Q1114.6875,21.7188 1117.25,21.7188 Q1119.4844,21.7188 1120.875,23.0313 Q1121.7031,23.8125 1122.125,25.2813 L1119.6875,25.8594 Q1119.4688,24.9063 1118.7891,24.3594 Q1118.1094,23.8125 1117.125,23.8125 Q1115.7656,23.8125 1114.9297,24.7891 Q1114.0938,25.7656 1114.0938,27.9375 Q1114.0938,30.2344 1114.9219,31.2188 Q1115.75,32.2031 1117.0781,32.2031 Q1118.0625,32.2031 1118.7656,31.5781 Q1119.4688,30.9531 1119.7656,29.625 Z "/><text fill="#000000" font-size="12" font-style="italic" lengthAdjust="spacingAndGlyphs" textLength="54" x="1182" y="25">&lt;&lt;View&gt;&gt;</text><text fill="#000000" font-size="12" lengthAdjust="spacingAndGlyphs" textLength="156" x="1131" y="40.0938">FAAutoCreateAbsorbedState</text><line style="stroke: #FF6347; stroke-width: 1.5;" x1="1103" x2="1289" y1="48.1875" y2="48.1875"/><line style="stroke: #FF6347; stroke-width: 1.5;" x1="1103" x2="1289" y1="56.1875" y2="56.1875"/><rect fill="#F5DEB3" filter="url(#f1)" height="56.1875" style="stroke: #FF6347; stroke-width: 1.5;" width="87" x="54.5" y="124"/><ellipse cx="69.5" cy="144.0938" fill="#ADD1B2" rx="11" ry="11" style="stroke: #FF6347; stroke-width: 1.0;"/><path d="M72.2656,145.625 L74.6563,146.375 Q74.1094,148.3594 72.8359,149.3281 Q71.5625,150.2969 69.5938,150.2969 Q67.1719,150.2969 65.6172,148.6406 Q64.0625,146.9844 64.0625,144.1094 Q64.0625,141.0781 65.625,139.3984 Q67.1875,137.7188 69.75,137.7188 Q71.9844,137.7188 73.375,139.0313 Q74.2031,139.8125 74.625,141.2813 L72.1875,141.8594 Q71.9688,140.9063 71.2891,140.3594 Q70.6094,139.8125 69.625,139.8125 Q68.2656,139.8125 67.4297,140.7891 Q66.5938,141.7656 66.5938,143.9375 Q66.5938,146.2344 67.4219,147.2188 Q68.25,148.2031 69.5781,148.2031 Q70.5625,148.2031 71.2656,147.5781 Q71.9688,146.9531 72.2656,145.625 Z "/><text fill="#000000" font-size="12" font-style="italic" lengthAdjust="spacingAndGlyphs" textLength="54" x="84" y="141">&lt;&lt;View&gt;&gt;</text><text fill="#000000" font-size="12" lengthAdjust="spacingAndGlyphs" textLength="55" x="83.5" y="156.0938">FAInfoWin</text><line style="stroke: #FF6347; stroke-width: 1.5;" x1="55.5" x2="140.5" y1="164.1875" y2="164.1875"/><line style="stroke: #FF6347; stroke-width: 1.5;" x1="55.5" x2="140.5" y1="172.1875" y2="172.1875"/><rect fill="#BDB76B" filter="url(#f1)" height="56.1875" style="stroke: #FF6347; stroke-width: 1.5;" width="113" x="1111.5" y="124"/><ellipse cx="1126.5" cy="144.0938" fill="#ADD1B2" rx="11" ry="11" style="stroke: #FF6347; stroke-width: 1.0;"/><path d="M1129.2656,145.625 L1131.6563,146.375 Q1131.1094,148.3594 1129.8359,149.3281 Q1128.5625,150.2969 1126.5938,150.2969 Q1124.1719,150.2969 1122.6172,148.6406 Q1121.0625,146.9844 1121.0625,144.1094 Q1121.0625,141.0781 1122.625,139.3984 Q1124.1875,137.7188 1126.75,137.7188 Q1128.9844,137.7188 1130.375,139.0313 Q1131.2031,139.8125 1131.625,141.2813 L1129.1875,141.8594 Q1128.9688,140.9063 1128.2891,140.3594 Q1127.6094,139.8125 1126.625,139.8125 Q1125.2656,139.8125 1124.4297,140.7891 Q1123.5938,141.7656 1123.5938,143.9375 Q1123.5938,146.2344 1124.4219,147.2188 Q1125.25,148.2031 1126.5781,148.2031 Q1127.5625,148.2031 1128.2656,147.5781 Q1128.9688,146.9531 1129.2656,145.625 Z "/><text fill="#000000" font-size="12" font-style="italic" lengthAdjust="spacingAndGlyphs" textLength="85" x="1138.5" y="141">&lt;&lt; Controller&gt;&gt;</text><text fill="#000000" font-size="12" lengthAdjust="spacingAndGlyphs" textLength="61" x="1150.5" y="156.0938">FAMainWin</text><line style="stroke: #FF6347; stroke-width: 1.5;" x1="1112.5" x2="1223.5" y1="164.1875" y2="164.1875"/><line style="stroke: #FF6347; stroke-width: 1.5;" x1="1112.5" x2="1223.5" y1="172.1875" y2="172.1875"/><rect fill="#F5DEB3" filter="url(#f1)" height="56.1875" style="stroke: #FF6347; stroke-width: 1.5;" width="124" x="1325" y="8"/><ellipse cx="1340" cy="28.0938" fill="#ADD1B2" rx="11" ry="11" style="stroke: #FF6347; stroke-width: 1.0;"/><path d="M1342.7656,29.625 L1345.1563,30.375 Q1344.6094,32.3594 1343.3359,33.3281 Q1342.0625,34.2969 1340.0938,34.2969 Q1337.6719,34.2969 1336.1172,32.6406 Q1334.5625,30.9844 1334.5625,28.1094 Q1334.5625,25.0781 1336.125,23.3984 Q1337.6875,21.7188 1340.25,21.7188 Q1342.4844,21.7188 1343.875,23.0313 Q1344.7031,23.8125 1345.125,25.2813 L1342.6875,25.8594 Q1342.4688,24.9063 1341.7891,24.3594 Q1341.1094,23.8125 1340.125,23.8125 Q1338.7656,23.8125 1337.9297,24.7891 Q1337.0938,25.7656 1337.0938,27.9375 Q1337.0938,30.2344 1337.9219,31.2188 Q1338.75,32.2031 1340.0781,32.2031 Q1341.0625,32.2031 1341.7656,31.5781 Q1342.4688,30.9531 1342.7656,29.625 Z "/><text fill="#000000" font-size="12" font-style="italic" lengthAdjust="spacingAndGlyphs" textLength="54" x="1373" y="25">&lt;&lt;View&gt;&gt;</text><text fill="#000000" font-size="12" lengthAdjust="spacingAndGlyphs" textLength="92" x="1354" y="40.0938">FAPropertiesWin</text><line style="stroke: #FF6347; stroke-width: 1.5;" x1="1326" x2="1448" y1="48.1875" y2="48.1875"/><line style="stroke: #FF6347; stroke-width: 1.5;" x1="1326" x2="1448" y1="56.1875" y2="56.1875"/><rect fill="#F5DEB3" filter="url(#f1)" height="56.1875" style="stroke: #FF6347; stroke-width: 1.5;" width="152" x="560" y="8"/><ellipse cx="575" cy="28.0938" fill="#ADD1B2" rx="11" ry="11" style="stroke: #FF6347; stroke-width: 1.0;"/><path d="M577.7656,29.625 L580.1563,30.375 Q579.6094,32.3594 578.3359,33.3281 Q577.0625,34.2969 575.0938,34.2969 Q572.6719,34.2969 571.1172,32.6406 Q569.5625,30.9844 569.5625,28.1094 Q569.5625,25.0781 571.125,23.3984 Q572.6875,21.7188 575.25,21.7188 Q577.4844,21.7188 578.875,23.0313 Q579.7031,23.8125 580.125,25.2813 L577.6875,25.8594 Q577.4688,24.9063 576.7891,24.3594 Q576.1094,23.8125 575.125,23.8125 Q573.7656,23.8125 572.9297,24.7891 Q572.0938,25.7656 572.0938,27.9375 Q572.0938,30.2344 572.9219,31.2188 Q573.75,32.2031 575.0781,32.2031 Q576.0625,32.2031 576.7656,31.5781 Q577.4688,30.9531 577.7656,29.625 Z "/><text fill="#000000" font-size="12" font-style="italic" lengthAdjust="spacingAndGlyphs" textLength="54" x="622" y="25">&lt;&lt;View&gt;&gt;</text><text fill="#000000" font-size="12" lengthAdjust="spacingAndGlyphs" textLength="120" x="589" y="40.0938">FAStatePropertiesWin</text><line style="stroke: #FF6347; stroke-width: 1.5;" x1="561" x2="711" y1="48.1875" y2="48.1875"/><line style="stroke: #FF6347; stroke-width: 1.5;" x1="561" x2="711" y1="56.1875" y2="56.1875"/><rect fill="#F5DEB3" filter="url(#f1)" height="56.1875" style="stroke: #FF6347; stroke-width: 1.5;" width="122" x="1484" y="8"/><ellipse cx="1499" cy="28.0938" fill="#ADD1B2" rx="11" ry="11" style="stroke: #FF6347; stroke-width: 1.0;"/><path d="M1501.7656,29.625 L1504.1563,30.375 Q1503.6094,32.3594 1502.3359,33.3281 Q1501.0625,34.2969 1499.0938,34.2969 Q1496.6719,34.2969 1495.1172,32.6406 Q1493.5625,30.9844 1493.5625,28.1094 Q1493.5625,25.0781 1495.125,23.3984 Q1496.6875,21.7188 1499.25,21.7188 Q1501.4844,21.7188 1502.875,23.0313 Q1503.7031,23.8125 1504.125,25.2813 L1501.6875,25.8594 Q1501.4688,24.9063 1500.7891,24.3594 Q1500.1094,23.8125 1499.125,23.8125 Q1497.7656,23.8125 1496.9297,24.7891 Q1496.0938,25.7656 1496.0938,27.9375 Q1496.0938,30.2344 1496.9219,31.2188 Q1497.75,32.2031 1499.0781,32.2031 Q1500.0625,32.2031 1500.7656,31.5781 Q1501.4688,30.9531 1501.7656,29.625 Z "/><text fill="#000000" font-size="12" font-style="italic" lengthAdjust="spacingAndGlyphs" textLength="54" x="1531" y="25">&lt;&lt;View&gt;&gt;</text><text fill="#000000" font-size="12" lengthAdjust="spacingAndGlyphs" textLength="90" x="1513" y="40.0938">FATransitionWin</text><line style="stroke: #FF6347; stroke-width: 1.5;" x1="1485" x2="1605" y1="48.1875" y2="48.1875"/><line style="stroke: #FF6347; stroke-width: 1.5;" x1="1485" x2="1605" y1="56.1875" y2="56.1875"/><rect fill="#FFF8DC" filter="url(#f1)" height="56.1875" style="stroke: #2E8B57; stroke-width: 1.5;" width="139" x="927.5" y="8"/><ellipse cx="942.5" cy="28.0938" fill="#ADD1B2" rx="11" ry="11" style="stroke: #2E8B57; stroke-width: 1.0;"/><path d="M945.2656,29.625 L947.6563,30.375 Q947.1094,32.3594 945.8359,33.3281 Q944.5625,34.2969 942.5938,34.2969 Q940.1719,34.2969 938.6172,32.6406 Q937.0625,30.9844 937.0625,28.1094 Q937.0625,25.0781 938.625,23.3984 Q940.1875,21.7188 942.75,21.7188 Q944.9844,21.7188 946.375,23.0313 Q947.2031,23.8125 947.625,25.2813 L945.1875,25.8594 Q944.9688,24.9063 944.2891,24.3594 Q943.6094,23.8125 942.625,23.8125 Q941.2656,23.8125 940.4297,24.7891 Q939.5938,25.7656 939.5938,27.9375 Q939.5938,30.2344 940.4219,31.2188 Q941.25,32.2031 942.5781,32.2031 Q943.5625,32.2031 944.2656,31.5781 Q944.9688,30.9531 945.2656,29.625 Z "/><text fill="#000000" font-size="12" font-style="italic" lengthAdjust="spacingAndGlyphs" textLength="111" x="954.5" y="25">&lt;&lt;View Controller&gt;&gt;</text><text fill="#000000" font-size="12" lengthAdjust="spacingAndGlyphs" textLength="87" x="966.5" y="40.0938">FAWelcomeWin</text><line style="stroke: #2E8B57; stroke-width: 1.5;" x1="928.5" x2="1065.5" y1="48.1875" y2="48.1875"/><line style="stroke: #2E8B57; stroke-width: 1.5;" x1="928.5" x2="1065.5" y1="56.1875" y2="56.1875"/><rect fill="#FFF8DC" filter="url(#f1)" height="56.1875" style="stroke: #2E8B57; stroke-width: 1.5;" width="182" x="845" y="240"/><ellipse cx="860" cy="260.0938" fill="#ADD1B2" rx="11" ry="11" style="stroke: #2E8B57; stroke-width: 1.0;"/><path d="M862.7656,261.625 L865.1563,262.375 Q864.6094,264.3594 863.3359,265.3281 Q862.0625,266.2969 860.0938,266.2969 Q857.6719,266.2969 856.1172,264.6406 Q854.5625,262.9844 854.5625,260.1094 Q854.5625,257.0781 856.125,255.3984 Q857.6875,253.7188 860.25,253.7188 Q862.4844,253.7188 863.875,255.0313 Q864.7031,255.8125 865.125,257.2813 L862.6875,257.8594 Q862.4688,256.9063 861.7891,256.3594 Q861.1094,255.8125 860.125,255.8125 Q858.7656,255.8125 857.9297,256.7891 Q857.0938,257.7656 857.0938,259.9375 Q857.0938,262.2344 857.9219,263.2188 Q858.75,264.2031 860.0781,264.2031 Q861.0625,264.2031 861.7656,263.5781 Q862.4688,262.9531 862.7656,261.625 Z "/><text fill="#000000" font-size="12" font-style="italic" lengthAdjust="spacingAndGlyphs" textLength="154" x="872" y="257">&lt;&lt; Controller Unidentified&gt;&gt;</text><text fill="#000000" font-size="12" lengthAdjust="spacingAndGlyphs" textLength="85" x="906.5" y="272.0938">HelpFileLoader</text><line style="stroke: #2E8B57; stroke-width: 1.5;" x1="846" x2="1026" y1="280.1875" y2="280.1875"/><line style="stroke: #2E8B57; stroke-width: 1.5;" x1="846" x2="1026" y1="288.1875" y2="288.1875"/><rect fill="#F5DEB3" filter="url(#f1)" height="56.1875" style="stroke: #FF6347; stroke-width: 1.5;" width="92" x="1062" y="240"/><ellipse cx="1077" cy="260.0938" fill="#ADD1B2" rx="11" ry="11" style="stroke: #FF6347; stroke-width: 1.0;"/><path d="M1079.7656,261.625 L1082.1563,262.375 Q1081.6094,264.3594 1080.3359,265.3281 Q1079.0625,266.2969 1077.0938,266.2969 Q1074.6719,266.2969 1073.1172,264.6406 Q1071.5625,262.9844 1071.5625,260.1094 Q1071.5625,257.0781 1073.125,255.3984 Q1074.6875,253.7188 1077.25,253.7188 Q1079.4844,253.7188 1080.875,255.0313 Q1081.7031,255.8125 1082.125,257.2813 L1079.6875,257.8594 Q1079.4688,256.9063 1078.7891,256.3594 Q1078.1094,255.8125 1077.125,255.8125 Q1075.7656,255.8125 1074.9297,256.7891 Q1074.0938,257.7656 1074.0938,259.9375 Q1074.0938,262.2344 1074.9219,263.2188 Q1075.75,264.2031 1077.0781,264.2031 Q1078.0625,264.2031 1078.7656,263.5781 Q1079.4688,262.9531 1079.7656,261.625 Z "/><text fill="#000000" font-size="12" font-style="italic" lengthAdjust="spacingAndGlyphs" textLength="54" x="1094" y="257">&lt;&lt;View&gt;&gt;</text><text fill="#000000" font-size="12" lengthAdjust="spacingAndGlyphs" textLength="60" x="1091" y="272.0938">PaintPanel</text><line style="stroke: #FF6347; stroke-width: 1.5;" x1="1063" x2="1153" y1="280.1875" y2="280.1875"/><line style="stroke: #FF6347; stroke-width: 1.5;" x1="1063" x2="1153" y1="288.1875" y2="288.1875"/><rect fill="#F5DEB3" filter="url(#f1)" height="56.1875" style="stroke: #FF6347; stroke-width: 1.5;" width="204" x="177" y="124"/><ellipse cx="192" cy="144.0938" fill="#ADD1B2" rx="11" ry="11" style="stroke: #FF6347; stroke-width: 1.0;"/><path d="M194.7656,145.625 L197.1563,146.375 Q196.6094,148.3594 195.3359,149.3281 Q194.0625,150.2969 192.0938,150.2969 Q189.6719,150.2969 188.1172,148.6406 Q186.5625,146.9844 186.5625,144.1094 Q186.5625,141.0781 188.125,139.3984 Q189.6875,137.7188 192.25,137.7188 Q194.4844,137.7188 195.875,139.0313 Q196.7031,139.8125 197.125,141.2813 L194.6875,141.8594 Q194.4688,140.9063 193.7891,140.3594 Q193.1094,139.8125 192.125,139.8125 Q190.7656,139.8125 189.9297,140.7891 Q189.0938,141.7656 189.0938,143.9375 Q189.0938,146.2344 189.9219,147.2188 Q190.75,148.2031 192.0781,148.2031 Q193.0625,148.2031 193.7656,147.5781 Q194.4688,146.9531 194.7656,145.625 Z "/><text fill="#000000" font-size="12" font-style="italic" lengthAdjust="spacingAndGlyphs" textLength="54" x="265" y="141">&lt;&lt;View&gt;&gt;</text><text fill="#000000" font-size="12" lengthAdjust="spacingAndGlyphs" textLength="172" x="206" y="156.0938">AutoCompleteComboBoxModel</text><line style="stroke: #FF6347; stroke-width: 1.5;" x1="178" x2="380" y1="164.1875" y2="164.1875"/><line style="stroke: #FF6347; stroke-width: 1.5;" x1="178" x2="380" y1="172.1875" y2="172.1875"/><rect fill="#BDB76B" filter="url(#f1)" height="56.1875" style="stroke: #FF6347; stroke-width: 1.5;" width="113" x="1435.5" y="588"/><ellipse cx="1450.5" cy="608.0938" fill="#ADD1B2" rx="11" ry="11" style="stroke: #FF6347; stroke-width: 1.0;"/><path d="M1453.2656,609.625 L1455.6563,610.375 Q1455.1094,612.3594 1453.8359,613.3281 Q1452.5625,614.2969 1450.5938,614.2969 Q1448.1719,614.2969 1446.6172,612.6406 Q1445.0625,610.9844 1445.0625,608.1094 Q1445.0625,605.0781 1446.625,603.3984 Q1448.1875,601.7188 1450.75,601.7188 Q1452.9844,601.7188 1454.375,603.0313 Q1455.2031,603.8125 1455.625,605.2813 L1453.1875,605.8594 Q1452.9688,604.9063 1452.2891,604.3594 Q1451.6094,603.8125 1450.625,603.8125 Q1449.2656,603.8125 1448.4297,604.7891 Q1447.5938,605.7656 1447.5938,607.9375 Q1447.5938,610.2344 1448.4219,611.2188 Q1449.25,612.2031 1450.5781,612.2031 Q1451.5625,612.2031 1452.2656,611.5781 Q1452.9688,610.9531 1453.2656,609.625 Z "/><text fill="#000000" font-size="12" font-style="italic" lengthAdjust="spacingAndGlyphs" textLength="85" x="1462.5" y="605">&lt;&lt; Controller&gt;&gt;</text><text fill="#000000" font-size="12" lengthAdjust="spacingAndGlyphs" textLength="14" x="1498" y="620.0938">FA</text><line style="stroke: #FF6347; stroke-width: 1.5;" x1="1436.5" x2="1547.5" y1="628.1875" y2="628.1875"/><line style="stroke: #FF6347; stroke-width: 1.5;" x1="1436.5" x2="1547.5" y1="636.1875" y2="636.1875"/><rect fill="#FFF8DC" filter="url(#f1)" height="56.1875" style="stroke: #2E8B57; stroke-width: 1.5;" width="125" x="1641.5" y="8"/><ellipse cx="1656.5" cy="28.0938" fill="#ADD1B2" rx="11" ry="11" style="stroke: #2E8B57; stroke-width: 1.0;"/><path d="M1659.2656,29.625 L1661.6563,30.375 Q1661.1094,32.3594 1659.8359,33.3281 Q1658.5625,34.2969 1656.5938,34.2969 Q1654.1719,34.2969 1652.6172,32.6406 Q1651.0625,30.9844 1651.0625,28.1094 Q1651.0625,25.0781 1652.625,23.3984 Q1654.1875,21.7188 1656.75,21.7188 Q1658.9844,21.7188 1660.375,23.0313 Q1661.2031,23.8125 1661.625,25.2813 L1659.1875,25.8594 Q1658.9688,24.9063 1658.2891,24.3594 Q1657.6094,23.8125 1656.625,23.8125 Q1655.2656,23.8125 1654.4297,24.7891 Q1653.5938,25.7656 1653.5938,27.9375 Q1653.5938,30.2344 1654.4219,31.2188 Q1655.25,32.2031 1656.5781,32.2031 Q1657.5625,32.2031 1658.2656,31.5781 Q1658.9688,30.9531 1659.2656,29.625 Z "/><text fill="#000000" font-size="12" font-style="italic" lengthAdjust="spacingAndGlyphs" textLength="97" x="1668.5" y="25">&lt;&lt; Unidentified&gt;&gt;</text><text fill="#000000" font-size="12" lengthAdjust="spacingAndGlyphs" textLength="46" x="1694" y="40.0938">FAEditor</text><line style="stroke: #2E8B57; stroke-width: 1.5;" x1="1642.5" x2="1765.5" y1="48.1875" y2="48.1875"/><line style="stroke: #2E8B57; stroke-width: 1.5;" x1="1642.5" x2="1765.5" y1="56.1875" y2="56.1875"/><rect fill="#F5DEB3" filter="url(#f1)" height="56.1875" style="stroke: #FF6347; stroke-width: 1.5;" width="209" x="416.5" y="124"/><ellipse cx="431.5" cy="144.0938" fill="#ADD1B2" rx="11" ry="11" style="stroke: #FF6347; stroke-width: 1.0;"/><path d="M434.2656,145.625 L436.6563,146.375 Q436.1094,148.3594 434.8359,149.3281 Q433.5625,150.2969 431.5938,150.2969 Q429.1719,150.2969 427.6172,148.6406 Q426.0625,146.9844 426.0625,144.1094 Q426.0625,141.0781 427.625,139.3984 Q429.1875,137.7188 431.75,137.7188 Q433.9844,137.7188 435.375,139.0313 Q436.2031,139.8125 436.625,141.2813 L434.1875,141.8594 Q433.9688,140.9063 433.2891,140.3594 Q432.6094,139.8125 431.625,139.8125 Q430.2656,139.8125 429.4297,140.7891 Q428.5938,141.7656 428.5938,143.9375 Q428.5938,146.2344 429.4219,147.2188 Q430.25,148.2031 431.5781,148.2031 Q432.5625,148.2031 433.2656,147.5781 Q433.9688,146.9531 434.2656,145.625 Z "/><text fill="#000000" font-size="12" font-style="italic" lengthAdjust="spacingAndGlyphs" textLength="54" x="507" y="141">&lt;&lt;View&gt;&gt;</text><text fill="#000000" font-size="12" lengthAdjust="spacingAndGlyphs" textLength="177" x="445.5" y="156.0938">FATransitionTableColumnModel</text><line style="stroke: #FF6347; stroke-width: 1.5;" x1="417.5" x2="624.5" y1="164.1875" y2="164.1875"/><line style="stroke: #FF6347; stroke-width: 1.5;" x1="417.5" x2="624.5" y1="172.1875" y2="172.1875"/><rect fill="#FFF8DC" filter="url(#f1)" height="56.1875" style="stroke: #2E8B57; stroke-width: 1.5;" width="165" x="1545.5" y="472"/><ellipse cx="1560.5" cy="492.0938" fill="#ADD1B2" rx="11" ry="11" style="stroke: #2E8B57; stroke-width: 1.0;"/><path d="M1563.2656,493.625 L1565.6563,494.375 Q1565.1094,496.3594 1563.8359,497.3281 Q1562.5625,498.2969 1560.5938,498.2969 Q1558.1719,498.2969 1556.6172,496.6406 Q1555.0625,494.9844 1555.0625,492.1094 Q1555.0625,489.0781 1556.625,487.3984 Q1558.1875,485.7188 1560.75,485.7188 Q1562.9844,485.7188 1564.375,487.0313 Q1565.2031,487.8125 1565.625,489.2813 L1563.1875,489.8594 Q1562.9688,488.9063 1562.2891,488.3594 Q1561.6094,487.8125 1560.625,487.8125 Q1559.2656,487.8125 1558.4297,488.7891 Q1557.5938,489.7656 1557.5938,491.9375 Q1557.5938,494.2344 1558.4219,495.2188 Q1559.25,496.2031 1560.5781,496.2031 Q1561.5625,496.2031 1562.2656,495.5781 Q1562.9688,494.9531 1563.2656,493.625 Z "/><text fill="#000000" font-size="12" font-style="italic" lengthAdjust="spacingAndGlyphs" textLength="111" x="1585.5" y="489">&lt;&lt;View Controller&gt;&gt;</text><text fill="#000000" font-size="12" lengthAdjust="spacingAndGlyphs" textLength="133" x="1574.5" y="504.0938">FATransitionTableModel</text><line style="stroke: #2E8B57; stroke-width: 1.5;" x1="1546.5" x2="1709.5" y1="512.1875" y2="512.1875"/><line style="stroke: #2E8B57; stroke-width: 1.5;" x1="1546.5" x2="1709.5" y1="520.1875" y2="520.1875"/><rect fill="#B2BF00" filter="url(#f1)" height="56.1875" style="stroke: #FF6347; stroke-width: 1.5;" width="184" x="6" y="240"/><ellipse cx="21" cy="260.0938" fill="#ADD1B2" rx="11" ry="11" style="stroke: #FF6347; stroke-width: 1.0;"/><path d="M23.7656,261.625 L26.1563,262.375 Q25.6094,264.3594 24.3359,265.3281 Q23.0625,266.2969 21.0938,266.2969 Q18.6719,266.2969 17.1172,264.6406 Q15.5625,262.9844 15.5625,260.1094 Q15.5625,257.0781 17.125,255.3984 Q18.6875,253.7188 21.25,253.7188 Q23.4844,253.7188 24.875,255.0313 Q25.7031,255.8125 26.125,257.2813 L23.6875,257.8594 Q23.4688,256.9063 22.7891,256.3594 Q22.1094,255.8125 21.125,255.8125 Q19.7656,255.8125 18.9297,256.7891 Q18.0938,257.7656 18.0938,259.9375 Q18.0938,262.2344 18.9219,263.2188 Q19.75,264.2031 21.0781,264.2031 Q22.0625,264.2031 22.7656,263.5781 Q23.4688,262.9531 23.7656,261.625 Z "/><text fill="#000000" font-size="12" font-style="italic" lengthAdjust="spacingAndGlyphs" textLength="61" x="80.5" y="257">&lt;&lt;Model&gt;&gt;</text><text fill="#000000" font-size="12" lengthAdjust="spacingAndGlyphs" textLength="152" x="35" y="272.0938">NoSuchTransitionException</text><line style="stroke: #FF6347; stroke-width: 1.5;" x1="7" x2="189" y1="280.1875" y2="280.1875"/><line style="stroke: #FF6347; stroke-width: 1.5;" x1="7" x2="189" y1="288.1875" y2="288.1875"/><rect fill="#B2BF00" filter="url(#f1)" height="56.1875" style="stroke: #FF6347; stroke-width: 1.5;" width="100" x="1817" y="588"/><ellipse cx="1832" cy="608.0938" fill="#ADD1B2" rx="11" ry="11" style="stroke: #FF6347; stroke-width: 1.0;"/><path d="M1834.7656,609.625 L1837.1563,610.375 Q1836.6094,612.3594 1835.3359,613.3281 Q1834.0625,614.2969 1832.0938,614.2969 Q1829.6719,614.2969 1828.1172,612.6406 Q1826.5625,610.9844 1826.5625,608.1094 Q1826.5625,605.0781 1828.125,603.3984 Q1829.6875,601.7188 1832.25,601.7188 Q1834.4844,601.7188 1835.875,603.0313 Q1836.7031,603.8125 1837.125,605.2813 L1834.6875,605.8594 Q1834.4688,604.9063 1833.7891,604.3594 Q1833.1094,603.8125 1832.125,603.8125 Q1830.7656,603.8125 1829.9297,604.7891 Q1829.0938,605.7656 1829.0938,607.9375 Q1829.0938,610.2344 1829.9219,611.2188 Q1830.75,612.2031 1832.0781,612.2031 Q1833.0625,612.2031 1833.7656,611.5781 Q1834.4688,610.9531 1834.7656,609.625 Z "/><text fill="#000000" font-size="12" font-style="italic" lengthAdjust="spacingAndGlyphs" textLength="61" x="1849.5" y="605">&lt;&lt;Model&gt;&gt;</text><text fill="#000000" font-size="12" lengthAdjust="spacingAndGlyphs" textLength="68" x="1846" y="620.0938">SquareState</text><line style="stroke: #FF6347; stroke-width: 1.5;" x1="1818" x2="1916" y1="628.1875" y2="628.1875"/><line style="stroke: #FF6347; stroke-width: 1.5;" x1="1818" x2="1916" y1="636.1875" y2="636.1875"/><rect fill="#BDB76B" filter="url(#f1)" height="56.1875" style="stroke: #FF6347; stroke-width: 1.5;" width="113" x="1590.5" y="704"/><ellipse cx="1605.5" cy="724.0938" fill="#ADD1B2" rx="11" ry="11" style="stroke: #FF6347; stroke-width: 1.0;"/><path d="M1608.2656,725.625 L1610.6563,726.375 Q1610.1094,728.3594 1608.8359,729.3281 Q1607.5625,730.2969 1605.5938,730.2969 Q1603.1719,730.2969 1601.6172,728.6406 Q1600.0625,726.9844 1600.0625,724.1094 Q1600.0625,721.0781 1601.625,719.3984 Q1603.1875,717.7188 1605.75,717.7188 Q1607.9844,717.7188 1609.375,719.0313 Q1610.2031,719.8125 1610.625,721.2813 L1608.1875,721.8594 Q1607.9688,720.9063 1607.2891,720.3594 Q1606.6094,719.8125 1605.625,719.8125 Q1604.2656,719.8125 1603.4297,720.7891 Q1602.5938,721.7656 1602.5938,723.9375 Q1602.5938,726.2344 1603.4219,727.2188 Q1604.25,728.2031 1605.5781,728.2031 Q1606.5625,728.2031 1607.2656,727.5781 Q1607.9688,726.9531 1608.2656,725.625 Z "/><text fill="#000000" font-size="12" font-style="italic" lengthAdjust="spacingAndGlyphs" textLength="85" x="1617.5" y="721">&lt;&lt; Controller&gt;&gt;</text><text fill="#000000" font-size="12" lengthAdjust="spacingAndGlyphs" textLength="28" x="1646" y="736.0938">State</text><line style="stroke: #FF6347; stroke-width: 1.5;" x1="1591.5" x2="1702.5" y1="744.1875" y2="744.1875"/><line style="stroke: #FF6347; stroke-width: 1.5;" x1="1591.5" x2="1702.5" y1="752.1875" y2="752.1875"/><rect fill="#BDB76B" filter="url(#f1)" height="56.1875" style="stroke: #FF6347; stroke-width: 1.5;" width="124" x="1585" y="820"/><ellipse cx="1600" cy="840.0938" fill="#ADD1B2" rx="11" ry="11" style="stroke: #FF6347; stroke-width: 1.0;"/><path d="M1602.7656,841.625 L1605.1563,842.375 Q1604.6094,844.3594 1603.3359,845.3281 Q1602.0625,846.2969 1600.0938,846.2969 Q1597.6719,846.2969 1596.1172,844.6406 Q1594.5625,842.9844 1594.5625,840.1094 Q1594.5625,837.0781 1596.125,835.3984 Q1597.6875,833.7188 1600.25,833.7188 Q1602.4844,833.7188 1603.875,835.0313 Q1604.7031,835.8125 1605.125,837.2813 L1602.6875,837.8594 Q1602.4688,836.9063 1601.7891,836.3594 Q1601.1094,835.8125 1600.125,835.8125 Q1598.7656,835.8125 1597.9297,836.7891 Q1597.0938,837.7656 1597.0938,839.9375 Q1597.0938,842.2344 1597.9219,843.2188 Q1598.75,844.2031 1600.0781,844.2031 Q1601.0625,844.2031 1601.7656,843.5781 Q1602.4688,842.9531 1602.7656,841.625 Z "/><text fill="#000000" font-size="12" font-style="italic" lengthAdjust="spacingAndGlyphs" textLength="85" x="1617.5" y="837">&lt;&lt; Controller&gt;&gt;</text><text fill="#000000" font-size="12" lengthAdjust="spacingAndGlyphs" textLength="92" x="1614" y="852.0938">State_Properties</text><line style="stroke: #FF6347; stroke-width: 1.5;" x1="1586" x2="1708" y1="860.1875" y2="860.1875"/><line style="stroke: #FF6347; stroke-width: 1.5;" x1="1586" x2="1708" y1="868.1875" y2="868.1875"/><rect fill="#F5DEB3" filter="url(#f1)" height="56.1875" style="stroke: #FF6347; stroke-width: 1.5;" width="101" x="1784.5" y="356"/><ellipse cx="1799.5" cy="376.0938" fill="#ADD1B2" rx="11" ry="11" style="stroke: #FF6347; stroke-width: 1.0;"/><path d="M1802.2656,377.625 L1804.6563,378.375 Q1804.1094,380.3594 1802.8359,381.3281 Q1801.5625,382.2969 1799.5938,382.2969 Q1797.1719,382.2969 1795.6172,380.6406 Q1794.0625,378.9844 1794.0625,376.1094 Q1794.0625,373.0781 1795.625,371.3984 Q1797.1875,369.7188 1799.75,369.7188 Q1801.9844,369.7188 1803.375,371.0313 Q1804.2031,371.8125 1804.625,373.2813 L1802.1875,373.8594 Q1801.9688,372.9063 1801.2891,372.3594 Q1800.6094,371.8125 1799.625,371.8125 Q1798.2656,371.8125 1797.4297,372.7891 Q1796.5938,373.7656 1796.5938,375.9375 Q1796.5938,378.2344 1797.4219,379.2188 Q1798.25,380.2031 1799.5781,380.2031 Q1800.5625,380.2031 1801.2656,379.5781 Q1801.9688,378.9531 1802.2656,377.625 Z "/><text fill="#000000" font-size="12" font-style="italic" lengthAdjust="spacingAndGlyphs" textLength="54" x="1821" y="373">&lt;&lt;View&gt;&gt;</text><text fill="#000000" font-size="12" lengthAdjust="spacingAndGlyphs" textLength="69" x="1813.5" y="388.0938">TouchButton</text><line style="stroke: #FF6347; stroke-width: 1.5;" x1="1785.5" x2="1884.5" y1="396.1875" y2="396.1875"/><line style="stroke: #FF6347; stroke-width: 1.5;" x1="1785.5" x2="1884.5" y1="404.1875" y2="404.1875"/><rect fill="#BDB76B" filter="url(#f1)" height="56.1875" style="stroke: #FF6347; stroke-width: 1.5;" width="113" x="1590.5" y="588"/><ellipse cx="1605.5" cy="608.0938" fill="#ADD1B2" rx="11" ry="11" style="stroke: #FF6347; stroke-width: 1.0;"/><path d="M1608.2656,609.625 L1610.6563,610.375 Q1610.1094,612.3594 1608.8359,613.3281 Q1607.5625,614.2969 1605.5938,614.2969 Q1603.1719,614.2969 1601.6172,612.6406 Q1600.0625,610.9844 1600.0625,608.1094 Q1600.0625,605.0781 1601.625,603.3984 Q1603.1875,601.7188 1605.75,601.7188 Q1607.9844,601.7188 1609.375,603.0313 Q1610.2031,603.8125 1610.625,605.2813 L1608.1875,605.8594 Q1607.9688,604.9063 1607.2891,604.3594 Q1606.6094,603.8125 1605.625,603.8125 Q1604.2656,603.8125 1603.4297,604.7891 Q1602.5938,605.7656 1602.5938,607.9375 Q1602.5938,610.2344 1603.4219,611.2188 Q1604.25,612.2031 1605.5781,612.2031 Q1606.5625,612.2031 1607.2656,611.5781 Q1607.9688,610.9531 1608.2656,609.625 Z "/><text fill="#000000" font-size="12" font-style="italic" lengthAdjust="spacingAndGlyphs" textLength="85" x="1617.5" y="605">&lt;&lt; Controller&gt;&gt;</text><text fill="#000000" font-size="12" lengthAdjust="spacingAndGlyphs" textLength="55" x="1632.5" y="620.0938">Transition</text><line style="stroke: #FF6347; stroke-width: 1.5;" x1="1591.5" x2="1702.5" y1="628.1875" y2="628.1875"/><line style="stroke: #FF6347; stroke-width: 1.5;" x1="1591.5" x2="1702.5" y1="636.1875" y2="636.1875"/><rect fill="#FFF8DC" filter="url(#f1)" height="48" style="stroke: #2E8B57; stroke-width: 1.5;" width="72" x="1992" y="12"/><ellipse cx="2007" cy="28" fill="#ADD1B2" rx="11" ry="11" style="stroke: #2E8B57; stroke-width: 1.0;"/><path d="M2009.7656,29.5313 L2012.1563,30.2813 Q2011.6094,32.2656 2010.3359,33.2344 Q2009.0625,34.2031 2007.0938,34.2031 Q2004.6719,34.2031 2003.1172,32.5469 Q2001.5625,30.8906 2001.5625,28.0156 Q2001.5625,24.9844 2003.125,23.3047 Q2004.6875,21.625 2007.25,21.625 Q2009.4844,21.625 2010.875,22.9375 Q2011.7031,23.7188 2012.125,25.1875 L2009.6875,25.7656 Q2009.4688,24.8125 2008.7891,24.2656 Q2008.1094,23.7188 2007.125,23.7188 Q2005.7656,23.7188 2004.9297,24.6953 Q2004.0938,25.6719 2004.0938,27.8438 Q2004.0938,30.1406 2004.9219,31.125 Q2005.75,32.1094 2007.0781,32.1094 Q2008.0625,32.1094 2008.7656,31.4844 Q2009.4688,30.8594 2009.7656,29.5313 Z "/><text fill="#000000" font-size="12" lengthAdjust="spacingAndGlyphs" textLength="40" x="2021" y="32.4531">Class1</text><line style="stroke: #2E8B57; stroke-width: 1.5;" x1="1993" x2="2063" y1="44" y2="44"/><line style="stroke: #2E8B57; stroke-width: 1.5;" x1="1993" x2="2063" y1="52" y2="52"/><rect fill="#FFF8DC" filter="url(#f1)" height="48" style="stroke: #2E8B57; stroke-width: 1.5;" width="72" x="1992" y="128"/><ellipse cx="2007" cy="144" fill="#ADD1B2" rx="11" ry="11" style="stroke: #2E8B57; stroke-width: 1.0;"/><path d="M2009.7656,145.5313 L2012.1563,146.2813 Q2011.6094,148.2656 2010.3359,149.2344 Q2009.0625,150.2031 2007.0938,150.2031 Q2004.6719,150.2031 2003.1172,148.5469 Q2001.5625,146.8906 2001.5625,144.0156 Q2001.5625,140.9844 2003.125,139.3047 Q2004.6875,137.625 2007.25,137.625 Q2009.4844,137.625 2010.875,138.9375 Q2011.7031,139.7188 2012.125,141.1875 L2009.6875,141.7656 Q2009.4688,140.8125 2008.7891,140.2656 Q2008.1094,139.7188 2007.125,139.7188 Q2005.7656,139.7188 2004.9297,140.6953 Q2004.0938,141.6719 2004.0938,143.8438 Q2004.0938,146.1406 2004.9219,147.125 Q2005.75,148.1094 2007.0781,148.1094 Q2008.0625,148.1094 2008.7656,147.4844 Q2009.4688,146.8594 2009.7656,145.5313 Z "/><text fill="#000000" font-size="12" lengthAdjust="spacingAndGlyphs" textLength="40" x="2021" y="148.4531">Class2</text><line style="stroke: #2E8B57; stroke-width: 1.5;" x1="1993" x2="2063" y1="160" y2="160"/><line style="stroke: #2E8B57; stroke-width: 1.5;" x1="1993" x2="2063" y1="168" y2="168"/><rect fill="#FFF8DC" filter="url(#f1)" height="48" style="stroke: #2E8B57; stroke-width: 1.5;" width="72" x="225" y="244"/><ellipse cx="240" cy="260" fill="#ADD1B2" rx="11" ry="11" style="stroke: #2E8B57; stroke-width: 1.0;"/><path d="M242.7656,261.5313 L245.1563,262.2813 Q244.6094,264.2656 243.3359,265.2344 Q242.0625,266.2031 240.0938,266.2031 Q237.6719,266.2031 236.1172,264.5469 Q234.5625,262.8906 234.5625,260.0156 Q234.5625,256.9844 236.125,255.3047 Q237.6875,253.625 240.25,253.625 Q242.4844,253.625 243.875,254.9375 Q244.7031,255.7188 245.125,257.1875 L242.6875,257.7656 Q242.4688,256.8125 241.7891,256.2656 Q241.1094,255.7188 240.125,255.7188 Q238.7656,255.7188 237.9297,256.6953 Q237.0938,257.6719 237.0938,259.8438 Q237.0938,262.1406 237.9219,263.125 Q238.75,264.1094 240.0781,264.1094 Q241.0625,264.1094 241.7656,263.4844 Q242.4688,262.8594 242.7656,261.5313 Z "/><text fill="#000000" font-size="12" lengthAdjust="spacingAndGlyphs" textLength="40" x="254" y="264.4531">Class3</text><line style="stroke: #2E8B57; stroke-width: 1.5;" x1="226" x2="296" y1="276" y2="276"/><line style="stroke: #2E8B57; stroke-width: 1.5;" x1="226" x2="296" y1="284" y2="284"/><path d="M1133.51,412.016 C1147.49,428.789 1165.5,450.403 1180.07,467.89 " fill="none" style="stroke: #A80036; stroke-width: 1.0;"/><polygon fill="#A80036" points="1183.32,471.782,1180.6326,462.3069,1180.1196,467.9404,1174.4861,467.4275,1183.32,471.782" style="stroke: #A80036; stroke-width: 1.0;"/><path d="M1108.71,296.016 C1109.19,314.057 1109.81,337.7 1110.28,355.782 " fill="none" style="stroke: #A80036; stroke-width: 1.0;"/><path d="M1649.74,64.122 C1616.84,80.853 1574.17,103.052 1537,124 C1394.11,204.539 1229.34,307.761 1153.38,355.953 " fill="none" style="stroke: #A80036; stroke-width: 1.0;"/><path d="M1273.78,528.016 C1321.37,546.986 1384.5,572.149 1430.61,590.529 " fill="none" style="stroke: #A80036; stroke-width: 1.0;"/><polygon fill="#A80036" points="1435.3,592.399,1428.4091,585.3623,1430.6523,590.5554,1425.4593,592.7986,1435.3,592.399" style="stroke: #A80036; stroke-width: 1.0;"/><path d="M1673.63,64.317 C1654.7,81.402 1629.86,103.905 1608,124 C1467.48,253.2 1301.16,409.407 1235.12,471.565 " fill="none" style="stroke: #A80036; stroke-width: 1.0;"/><path d="M1240.82,528.184 C1281.6,559.119 1351.98,609.776 1418,644 C1472.57,672.29 1538.52,696.368 1585.6,711.972 " fill="none" style="stroke: #A80036; stroke-width: 1.0;"/><polygon fill="#A80036" points="1590.39,713.55,1583.103,706.9243,1585.6433,711.9787,1580.5889,714.5191,1590.39,713.55" style="stroke: #A80036; stroke-width: 1.0;"/><path d="M1297.18,520.791 C1370.29,537.198 1475.3,561.975 1566,588 C1572.24,589.792 1578.73,591.762 1585.18,593.796 " fill="none" style="stroke: #A80036; stroke-width: 1.0;"/><polygon fill="#A80036" points="1590.1,595.362,1582.7345,588.8237,1585.3349,593.8475,1580.3112,596.4479,1590.1,595.362" style="stroke: #A80036; stroke-width: 1.0;"/><path d="M872.409,64.024 C965.624,112.559 1152.26,212.04 1171,240 C1217.76,309.786 1215.19,414.098 1210.19,466.496 " fill="none" style="stroke: #A80036; stroke-width: 1.0;"/><polygon fill="#A80036" points="1209.67,471.707,1214.5457,463.1497,1210.1675,466.7318,1206.5854,462.3537,1209.67,471.707" style="stroke: #A80036; stroke-width: 1.0;"/><path d="M892.529,60.759 C955.788,81.482 1046.55,111.215 1106.36,130.809 " fill="none" style="stroke: #A80036; stroke-width: 1.0;"/><polygon fill="#A80036" points="1111.33,132.437,1104.0233,125.8331,1106.5786,130.8799,1101.5319,133.4353,1111.33,132.437" style="stroke: #A80036; stroke-width: 1.0;"/><path d="M1214.81,64.196 C1225.05,80.684 1236.69,102.608 1242,124 C1253.71,171.2 1268.58,204.508 1233,412 C1229.83,430.505 1223.79,450.557 1218.23,466.741 " fill="none" style="stroke: #A80036; stroke-width: 1.0;"/><polygon fill="#A80036" points="1216.52,471.634,1223.2647,464.457,1218.1692,466.9138,1215.7124,461.8183,1216.52,471.634" style="stroke: #A80036; stroke-width: 1.0;"/><path d="M1189.36,64.016 C1185.35,80.366 1180.2,101.316 1175.97,118.559 " fill="none" style="stroke: #A80036; stroke-width: 1.0;"/><polygon fill="#A80036" points="1174.69,123.782,1180.7211,115.9957,1175.8825,118.9263,1172.9519,114.0877,1174.69,123.782" style="stroke: #A80036; stroke-width: 1.0;"/><path d="M1111.23,155.02 C998.385,161.372 762.112,187.636 827,296 C887.935,397.763 1019.25,451.409 1110.1,477.462 " fill="none" style="stroke: #A80036; stroke-width: 1.0;"/><polygon fill="#A80036" points="1114.93,478.835,1107.3539,472.542,1110.1178,477.4776,1105.1821,480.2415,1114.93,478.835" style="stroke: #A80036; stroke-width: 1.0;"/><path d="M1113.02,180.016 C1077.75,197.345 1031.97,219.842 995.8,237.616 " fill="none" style="stroke: #A80036; stroke-width: 1.0;"/><polygon fill="#A80036" points="990.988,239.98,1000.8295,239.6007,995.4755,237.7748,997.3013,232.4207,990.988,239.98" style="stroke: #A80036; stroke-width: 1.0;"/><path d="M1153.78,180.016 C1145.1,196.507 1133.96,217.678 1124.84,235.004 " fill="none" style="stroke: #A80036; stroke-width: 1.0;"/><polygon fill="#A80036" points="1122.33,239.782,1130.0671,233.6879,1124.6629,235.3596,1122.9912,229.9554,1122.33,239.782" style="stroke: #A80036; stroke-width: 1.0;"/><path d="M1335.1,64.016 C1301.81,81.345 1258.59,103.842 1224.45,121.616 " fill="none" style="stroke: #A80036; stroke-width: 1.0;"/><polygon fill="#A80036" points="1219.91,123.98,1229.7395,123.3632,1224.3429,121.6672,1226.039,116.2706,1219.91,123.98" style="stroke: #A80036; stroke-width: 1.0;"/><path d="M1379.78,64.035 C1369.01,106.791 1350,192.785 1350,267 C1350,267 1350,267 1350,385 C1350,466.54 1415.42,543.348 1457.45,584.284 " fill="none" style="stroke: #A80036; stroke-width: 1.0;"/><polygon fill="#A80036" points="1461.19,587.892,1457.4898,578.7647,1457.5915,584.4206,1451.9355,584.5223,1461.19,587.892" style="stroke: #A80036; stroke-width: 1.0;"/><path d="M712.041,59.425 C718.101,61.034 724.142,62.58 730,64 C863.155,96.288 1021.21,125.458 1106.32,140.428 " fill="none" style="stroke: #A80036; stroke-width: 1.0;"/><polygon fill="#A80036" points="1111.32,141.306,1103.1545,135.7993,1106.3965,140.435,1101.7608,143.677,1111.32,141.306" style="stroke: #A80036; stroke-width: 1.0;"/><path d="M670.621,64.126 C716.58,103.469 792,181.117 792,267 C792,267 792,267 792,501 C792,665.362 1388.65,715.622 1585.11,727.715 " fill="none" style="stroke: #A80036; stroke-width: 1.0;"/><polygon fill="#A80036" points="1590.24,728.028,1581.4962,723.4953,1585.249,727.728,1581.0162,731.4808,1590.24,728.028" style="stroke: #A80036; stroke-width: 1.0;"/><path d="M1483.85,58.205 C1477.83,60.201 1471.8,62.162 1466,64 C1384.66,89.758 1289.97,116.926 1229.54,133.912 " fill="none" style="stroke: #A80036; stroke-width: 1.0;"/><polygon fill="#A80036" points="1224.53,135.32,1234.2738,136.7548,1229.3462,133.9766,1232.1244,129.049,1224.53,135.32" style="stroke: #A80036; stroke-width: 1.0;"/><path d="M1518.7,64.187 C1482.3,104.809 1421,185.345 1421,267 C1421,267 1421,267 1421,385 C1421,479.168 1518.58,548.888 1585.5,585.631 " fill="none" style="stroke: #A80036; stroke-width: 1.0;"/><polygon fill="#A80036" points="1590.26,588.219,1584.259,580.4095,1585.8658,585.8334,1580.442,587.4402,1590.26,588.219" style="stroke: #A80036; stroke-width: 1.0;"/><path d="M1037.52,64.016 C1063.31,81.204 1096.71,103.475 1123.27,121.179 " fill="none" style="stroke: #A80036; stroke-width: 1.0;"/><polygon fill="#A80036" points="1127.47,123.98,1122.1977,115.6612,1123.3089,121.2078,1117.7622,122.319,1127.47,123.98" style="stroke: #A80036; stroke-width: 1.0;"/><path d="M1528.73,644.016 C1552.01,661.133 1582.13,683.292 1606.16,700.961 " fill="none" style="stroke: #A80036; stroke-width: 1.0;"/><polygon fill="#A80036" points="1610.26,703.98,1605.3732,695.429,1606.2298,701.0206,1600.6382,701.8773,1610.26,703.98" style="stroke: #A80036; stroke-width: 1.0;"/><path d="M1641.45,58.762 C1635.25,60.644 1629.02,62.428 1623,64 C1484.14,100.248 1317.79,128.234 1229.74,141.864 " fill="none" style="stroke: #A80036; stroke-width: 1.0;"/><polygon fill="#A80036" points="1224.57,142.662,1234.072,145.2528,1229.5123,141.9047,1232.8604,137.345,1224.57,142.662" style="stroke: #A80036; stroke-width: 1.0;"/><path d="M1691.44,64.246 C1660.52,132.035 1579.51,314.204 1528,472 C1515.76,509.5 1505.21,553.664 1498.75,582.884 " fill="none" style="stroke: #A80036; stroke-width: 1.0;"/><polygon fill="#A80036" points="1497.67,587.801,1503.5072,579.8684,1498.7424,582.9174,1495.6934,578.1525,1497.67,587.801" style="stroke: #A80036; stroke-width: 1.0;"/><path d="M1712.11,64.06 C1736.91,151.82 1805.12,434.946 1721,644 C1712.54,665.028 1696.88,684.624 1682.14,699.874 " fill="none" style="stroke: #A80036; stroke-width: 1.0;"/><polygon fill="#A80036" points="1678.41,703.655,1687.5699,700.0361,1681.9133,700.0875,1681.8619,694.4309,1678.41,703.655" style="stroke: #A80036; stroke-width: 1.0;"/><path d="M1723.07,64.222 C1734.11,80.898 1747.63,103.005 1757,124 C1791.98,202.356 1816.76,300.807 1828.08,350.748 " fill="none" style="stroke: #A80036; stroke-width: 1.0;"/><polygon fill="#A80036" points="1829.2,355.718,1831.1221,346.0585,1828.1001,350.8405,1823.3181,347.8184,1829.2,355.718" style="stroke: #A80036; stroke-width: 1.0;"/><path d="M1764.82,64.101 C1834.45,99.757 1939,169.523 1939,267 C1939,267 1939,267 1939,385 C1939,501.377 1794.09,567.929 1708.44,597.101 " fill="none" style="stroke: #A80036; stroke-width: 1.0;"/><polygon fill="#A80036" points="1703.65,598.716,1713.4542,599.6532,1708.3916,597.1293,1710.9154,592.0667,1703.65,598.716" style="stroke: #A80036; stroke-width: 1.0;"/><path d="M1595.77,528.016 C1575.51,545 1549.32,566.949 1528.33,584.549 " fill="none" style="stroke: #A80036; stroke-width: 1.0;"/><polygon fill="#A80036" points="1524.47,587.782,1533.9363,585.0638,1528.3011,584.5692,1528.7958,578.934,1524.47,587.782" style="stroke: #A80036; stroke-width: 1.0;"/><path d="M1816.79,637.777 C1779.48,655.539 1729.32,681.315 1693.03,701.263 " fill="none" style="stroke: #A80036; stroke-width: 1.0;"/><polygon fill="#A80036" points="1688.23,703.914,1698.0426,703.0698,1692.6082,701.4991,1694.1788,696.0647,1688.23,703.914" style="stroke: #A80036; stroke-width: 1.0;"/><path d="M1647,760.016 C1647,776.3659 1647,797.3164 1647,814.5594 " fill="none" style="stroke: #A80036; stroke-width: 1.0;"/><polygon fill="#A80036" points="1647,819.7824,1651,810.7824,1647,814.7824,1643,810.7824,1647,819.7824" style="stroke: #A80036; stroke-width: 1.0;"/><path d="M1816.11,412.012 C1795.35,441.265 1760.61,488.977 1728,528 C1711.88,547.287 1692.77,567.914 1677.16,584.24 " fill="none" style="stroke: #A80036; stroke-width: 1.0;"/><polygon fill="#A80036" points="1673.68,587.868,1682.8005,584.1509,1677.1447,584.2631,1677.0326,578.6073,1673.68,587.868" style="stroke: #A80036; stroke-width: 1.0;"/><path d="M1647,644.016 C1647,660.366 1647,681.316 1647,698.559 " fill="none" style="stroke: #A80036; stroke-width: 1.0;"/><polygon fill="#A80036" points="1647,703.782,1651,694.782,1647,698.782,1643,694.782,1647,703.782" style="stroke: #A80036; stroke-width: 1.0;"/><path d="M1826.54,644.016 C1797.18,660.369 1756.95,681.325 1721.9,698.57 " fill="none" style="stroke: #A80036; stroke-width: 1.0;"/><polygon fill="none" points="1724.65,705.017,1703.6,707.46,1718.53,692.425,1724.65,705.017" style="stroke: #A80036; stroke-width: 1.0;"/><path d="M2028,60.07 C2028,73.745 2028,91.516 2028,107.716 " fill="none" style="stroke: #A80036; stroke-width: 1.0;"/><polygon fill="none" points="2035,107.965,2028,127.965,2021,107.965,2035,107.965" style="stroke: #A80036; stroke-width: 1.0;"/></g></svg>