<?xml version="1.0" encoding="UTF-8" standalone="yes"?><svg xmlns="http://www.w3.org/2000/svg" xmlns:xlink="http://www.w3.org/1999/xlink" height="1210pt" style="width:3002px;height:1210px;" version="1.1" viewBox="0 0 3002 1210" width="3002pt"><defs><filter height="300%" id="f1" width="300%" x="-1" y="-1"><feGaussianBlur result="blurOut" stdDeviation="2"/><feColorMatrix in="blurOut" result="blurOut2" type="matrix" values="0 0 0 0 0 0 0 0 0 0 0 0 0 0 0 0 0 0 .4 0"/><feOffset dx="4" dy="4" in="blurOut2" result="blurOut3"/><feBlend in="SourceGraphic" in2="blurOut3" mode="normal"/></filter></defs><g><polygon fill="#FFFFFF" filter="url(#f1)" points="208,24,318,24,325,47.6094,2060,47.6094,2060,1203,208,1203,208,24" style="stroke: #000000; stroke-width: 2.0;"/><line style="stroke: #000000; stroke-width: 2.0;" x1="208" x2="325" y1="47.6094" y2="47.6094"/><text fill="#000000" font-size="14" font-weight="bold" lengthAdjust="spacingAndGlyphs" textLength="104" x="211" y="41">User_Interface</text><polygon fill="#FFFFFF" filter="url(#f1)" points="2249,84.5,2353,84.5,2360,108.1094,2706,108.1094,2706,459.5,2249,459.5,2249,84.5" style="stroke: #000000; stroke-width: 2.0;"/><line style="stroke: #000000; stroke-width: 2.0;" x1="2249" x2="2360" y1="108.1094" y2="108.1094"/><text fill="#000000" font-size="14" font-weight="bold" lengthAdjust="spacingAndGlyphs" textLength="98" x="2252" y="101.5">Object_Model</text><polygon fill="#FFFFFF" filter="url(#f1)" points="22,573.5,125,573.5,132,597.1094,184,597.1094,184,696.5,22,696.5,22,573.5" style="stroke: #000000; stroke-width: 2.0;"/><line style="stroke: #000000; stroke-width: 2.0;" x1="22" x2="132" y1="597.1094" y2="597.1094"/><text fill="#000000" font-size="14" font-weight="bold" lengthAdjust="spacingAndGlyphs" textLength="97" x="25" y="590.5">Network_Web</text><polygon fill="#FFFFFF" filter="url(#f1)" points="2108,573.5,2199,573.5,2206,597.1094,2513,597.1094,2513,696.5,2108,696.5,2108,573.5" style="stroke: #000000; stroke-width: 2.0;"/><line style="stroke: #000000; stroke-width: 2.0;" x1="2108" x2="2206" y1="597.1094" y2="597.1094"/><text fill="#000000" font-size="14" font-weight="bold" lengthAdjust="spacingAndGlyphs" textLength="85" x="2111" y="590.5">unidentified</text><rect fill="#D8BFD8" filter="url(#f1)" height="161.8438" style="stroke: #2E8B57; stroke-width: 1.5;" width="174" x="1200" y="786"/><ellipse cx="1215" cy="858.9219" fill="#ADD1B2" rx="11" ry="11" style="stroke: #2E8B57; stroke-width: 1.0;"/><path d="M1217.7656,860.4531 L1220.1563,861.2031 Q1219.6094,863.1875 1218.3359,864.1563 Q1217.0625,865.125 1215.0938,865.125 Q1212.6719,865.125 1211.1172,863.4688 Q1209.5625,861.8125 1209.5625,858.9375 Q1209.5625,855.9063 1211.125,854.2266 Q1212.6875,852.5469 1215.25,852.5469 Q1217.4844,852.5469 1218.875,853.8594 Q1219.7031,854.6406 1220.125,856.1094 L1217.6875,856.6875 Q1217.4688,855.7344 1216.7891,855.1875 Q1216.1094,854.6406 1215.125,854.6406 Q1213.7656,854.6406 1212.9297,855.6172 Q1212.0938,856.5938 1212.0938,858.7656 Q1212.0938,861.0625 1212.9219,862.0469 Q1213.75,863.0313 1215.0781,863.0313 Q1216.0625,863.0313 1216.7656,862.4063 Q1217.4688,861.7813 1217.7656,860.4531 Z "/><text fill="#000000" font-size="12" font-style="italic" lengthAdjust="spacingAndGlyphs" textLength="105" x="1247.5" y="803">&lt;&lt;User Interface&gt;&gt;</text><text fill="#000000" font-size="12" font-style="italic" lengthAdjust="spacingAndGlyphs" textLength="77" x="1261.5" y="818.0938">&lt;&lt;5497.0%&gt;&gt;</text><text fill="#000000" font-size="12" font-style="italic" lengthAdjust="spacingAndGlyphs" textLength="146" x="1227" y="833.1875">&lt;&lt;Event/Event Handling&gt;&gt;</text><text fill="#000000" font-size="12" font-style="italic" lengthAdjust="spacingAndGlyphs" textLength="63" x="1268.5" y="848.2813">&lt;&lt;38.0%&gt;&gt;</text><text fill="#000000" font-size="12" font-style="italic" lengthAdjust="spacingAndGlyphs" textLength="92" x="1254" y="863.375">&lt;&lt;Persistence&gt;&gt;</text><text fill="#000000" font-size="12" font-style="italic" lengthAdjust="spacingAndGlyphs" textLength="63" x="1268.5" y="878.4688">&lt;&lt;24.0%&gt;&gt;</text><text fill="#000000" font-size="12" font-style="italic" lengthAdjust="spacingAndGlyphs" textLength="44" x="1278" y="893.5625">&lt;&lt;I/O&gt;&gt;</text><text fill="#000000" font-size="12" font-style="italic" lengthAdjust="spacingAndGlyphs" textLength="56" x="1272" y="908.6563">&lt;&lt;4.0%&gt;&gt;</text><text fill="#000000" font-size="12" lengthAdjust="spacingAndGlyphs" textLength="53" x="1273.5" y="923.75">FAPainter</text><line style="stroke: #2E8B57; stroke-width: 1.5;" x1="1201" x2="1373" y1="931.8438" y2="931.8438"/><line style="stroke: #2E8B57; stroke-width: 1.5;" x1="1201" x2="1373" y1="939.8438" y2="939.8438"/><rect fill="#D8BFD8" filter="url(#f1)" height="161.8438" style="stroke: #2E8B57; stroke-width: 1.5;" width="174" x="1134" y="564"/><ellipse cx="1149" cy="636.9219" fill="#ADD1B2" rx="11" ry="11" style="stroke: #2E8B57; stroke-width: 1.0;"/><path d="M1151.7656,638.4531 L1154.1563,639.2031 Q1153.6094,641.1875 1152.3359,642.1563 Q1151.0625,643.125 1149.0938,643.125 Q1146.6719,643.125 1145.1172,641.4688 Q1143.5625,639.8125 1143.5625,636.9375 Q1143.5625,633.9063 1145.125,632.2266 Q1146.6875,630.5469 1149.25,630.5469 Q1151.4844,630.5469 1152.875,631.8594 Q1153.7031,632.6406 1154.125,634.1094 L1151.6875,634.6875 Q1151.4688,633.7344 1150.7891,633.1875 Q1150.1094,632.6406 1149.125,632.6406 Q1147.7656,632.6406 1146.9297,633.6172 Q1146.0938,634.5938 1146.0938,636.7656 Q1146.0938,639.0625 1146.9219,640.0469 Q1147.75,641.0313 1149.0781,641.0313 Q1150.0625,641.0313 1150.7656,640.4063 Q1151.4688,639.7813 1151.7656,638.4531 Z "/><text fill="#000000" font-size="12" font-style="italic" lengthAdjust="spacingAndGlyphs" textLength="105" x="1181.5" y="581">&lt;&lt;User Interface&gt;&gt;</text><text fill="#000000" font-size="12" font-style="italic" lengthAdjust="spacingAndGlyphs" textLength="77" x="1195.5" y="596.0938">&lt;&lt;6242.0%&gt;&gt;</text><text fill="#000000" font-size="12" font-style="italic" lengthAdjust="spacingAndGlyphs" textLength="146" x="1161" y="611.1875">&lt;&lt;Event/Event Handling&gt;&gt;</text><text fill="#000000" font-size="12" font-style="italic" lengthAdjust="spacingAndGlyphs" textLength="63" x="1202.5" y="626.2813">&lt;&lt;34.0%&gt;&gt;</text><text fill="#000000" font-size="12" font-style="italic" lengthAdjust="spacingAndGlyphs" textLength="92" x="1188" y="641.375">&lt;&lt;Persistence&gt;&gt;</text><text fill="#000000" font-size="12" font-style="italic" lengthAdjust="spacingAndGlyphs" textLength="63" x="1202.5" y="656.4688">&lt;&lt;24.0%&gt;&gt;</text><text fill="#000000" font-size="12" font-style="italic" lengthAdjust="spacingAndGlyphs" textLength="44" x="1212" y="671.5625">&lt;&lt;I/O&gt;&gt;</text><text fill="#000000" font-size="12" font-style="italic" lengthAdjust="spacingAndGlyphs" textLength="56" x="1206" y="686.6563">&lt;&lt;4.0%&gt;&gt;</text><text fill="#000000" font-size="12" lengthAdjust="spacingAndGlyphs" textLength="67" x="1200.5" y="701.75">FASimulator</text><line style="stroke: #2E8B57; stroke-width: 1.5;" x1="1135" x2="1307" y1="709.8438" y2="709.8438"/><line style="stroke: #2E8B57; stroke-width: 1.5;" x1="1135" x2="1307" y1="717.8438" y2="717.8438"/><rect fill="#D8BFD8" filter="url(#f1)" height="192.0313" style="stroke: #2E8B57; stroke-width: 1.5;" width="174" x="1701" y="60"/><ellipse cx="1716" cy="148.0156" fill="#ADD1B2" rx="11" ry="11" style="stroke: #2E8B57; stroke-width: 1.0;"/><path d="M1718.7656,149.5469 L1721.1563,150.2969 Q1720.6094,152.2813 1719.3359,153.25 Q1718.0625,154.2188 1716.0938,154.2188 Q1713.6719,154.2188 1712.1172,152.5625 Q1710.5625,150.9063 1710.5625,148.0313 Q1710.5625,145 1712.125,143.3203 Q1713.6875,141.6406 1716.25,141.6406 Q1718.4844,141.6406 1719.875,142.9531 Q1720.7031,143.7344 1721.125,145.2031 L1718.6875,145.7813 Q1718.4688,144.8281 1717.7891,144.2813 Q1717.1094,143.7344 1716.125,143.7344 Q1714.7656,143.7344 1713.9297,144.7109 Q1713.0938,145.6875 1713.0938,147.8594 Q1713.0938,150.1563 1713.9219,151.1406 Q1714.75,152.125 1716.0781,152.125 Q1717.0625,152.125 1717.7656,151.5 Q1718.4688,150.875 1718.7656,149.5469 Z "/><text fill="#000000" font-size="12" font-style="italic" lengthAdjust="spacingAndGlyphs" textLength="105" x="1748.5" y="77">&lt;&lt;User Interface&gt;&gt;</text><text fill="#000000" font-size="12" font-style="italic" lengthAdjust="spacingAndGlyphs" textLength="84" x="1759" y="92.0938">&lt;&lt;29477.0%&gt;&gt;</text><text fill="#000000" font-size="12" font-style="italic" lengthAdjust="spacingAndGlyphs" textLength="146" x="1728" y="107.1875">&lt;&lt;Event/Event Handling&gt;&gt;</text><text fill="#000000" font-size="12" font-style="italic" lengthAdjust="spacingAndGlyphs" textLength="70" x="1766" y="122.2813">&lt;&lt;212.0%&gt;&gt;</text><text fill="#000000" font-size="12" font-style="italic" lengthAdjust="spacingAndGlyphs" textLength="92" x="1755" y="137.375">&lt;&lt;Persistence&gt;&gt;</text><text fill="#000000" font-size="12" font-style="italic" lengthAdjust="spacingAndGlyphs" textLength="70" x="1766" y="152.4688">&lt;&lt;134.0%&gt;&gt;</text><text fill="#000000" font-size="12" font-style="italic" lengthAdjust="spacingAndGlyphs" textLength="44" x="1779" y="167.5625">&lt;&lt;I/O&gt;&gt;</text><text fill="#000000" font-size="12" font-style="italic" lengthAdjust="spacingAndGlyphs" textLength="63" x="1769.5" y="182.6563">&lt;&lt;26.0%&gt;&gt;</text><text fill="#000000" font-size="12" font-style="italic" lengthAdjust="spacingAndGlyphs" textLength="102" x="1750" y="197.75">&lt;&lt;Network/Web&gt;&gt;</text><text fill="#000000" font-size="12" font-style="italic" lengthAdjust="spacingAndGlyphs" textLength="63" x="1769.5" y="212.8438">&lt;&lt;14.0%&gt;&gt;</text><text fill="#000000" font-size="12" lengthAdjust="spacingAndGlyphs" textLength="26" x="1788" y="227.9375">Main</text><line style="stroke: #2E8B57; stroke-width: 1.5;" x1="1702" x2="1874" y1="236.0313" y2="236.0313"/><line style="stroke: #2E8B57; stroke-width: 1.5;" x1="1702" x2="1874" y1="244.0313" y2="244.0313"/><rect fill="#D8BFD8" filter="url(#f1)" height="161.8438" style="stroke: #2E8B57; stroke-width: 1.5;" width="174" x="851" y="75"/><ellipse cx="866" cy="147.9219" fill="#ADD1B2" rx="11" ry="11" style="stroke: #2E8B57; stroke-width: 1.0;"/><path d="M868.7656,149.4531 L871.1563,150.2031 Q870.6094,152.1875 869.3359,153.1563 Q868.0625,154.125 866.0938,154.125 Q863.6719,154.125 862.1172,152.4688 Q860.5625,150.8125 860.5625,147.9375 Q860.5625,144.9063 862.125,143.2266 Q863.6875,141.5469 866.25,141.5469 Q868.4844,141.5469 869.875,142.8594 Q870.7031,143.6406 871.125,145.1094 L868.6875,145.6875 Q868.4688,144.7344 867.7891,144.1875 Q867.1094,143.6406 866.125,143.6406 Q864.7656,143.6406 863.9297,144.6172 Q863.0938,145.5938 863.0938,147.7656 Q863.0938,150.0625 863.9219,151.0469 Q864.75,152.0313 866.0781,152.0313 Q867.0625,152.0313 867.7656,151.4063 Q868.4688,150.7813 868.7656,149.4531 Z "/><text fill="#000000" font-size="12" font-style="italic" lengthAdjust="spacingAndGlyphs" textLength="105" x="898.5" y="92">&lt;&lt;User Interface&gt;&gt;</text><text fill="#000000" font-size="12" font-style="italic" lengthAdjust="spacingAndGlyphs" textLength="77" x="912.5" y="107.0938">&lt;&lt;1197.0%&gt;&gt;</text><text fill="#000000" font-size="12" font-style="italic" lengthAdjust="spacingAndGlyphs" textLength="146" x="878" y="122.1875">&lt;&lt;Event/Event Handling&gt;&gt;</text><text fill="#000000" font-size="12" font-style="italic" lengthAdjust="spacingAndGlyphs" textLength="63" x="919.5" y="137.2813">&lt;&lt;11.0%&gt;&gt;</text><text fill="#000000" font-size="12" font-style="italic" lengthAdjust="spacingAndGlyphs" textLength="92" x="905" y="152.375">&lt;&lt;Persistence&gt;&gt;</text><text fill="#000000" font-size="12" font-style="italic" lengthAdjust="spacingAndGlyphs" textLength="56" x="923" y="167.4688">&lt;&lt;6.0%&gt;&gt;</text><text fill="#000000" font-size="12" font-style="italic" lengthAdjust="spacingAndGlyphs" textLength="44" x="929" y="182.5625">&lt;&lt;I/O&gt;&gt;</text><text fill="#000000" font-size="12" font-style="italic" lengthAdjust="spacingAndGlyphs" textLength="56" x="923" y="197.6563">&lt;&lt;1.0%&gt;&gt;</text><text fill="#000000" font-size="12" lengthAdjust="spacingAndGlyphs" textLength="113" x="894.5" y="212.75">FAAutoCompleteWin</text><line style="stroke: #2E8B57; stroke-width: 1.5;" x1="852" x2="1024" y1="220.8438" y2="220.8438"/><line style="stroke: #2E8B57; stroke-width: 1.5;" x1="852" x2="1024" y1="228.8438" y2="228.8438"/><rect fill="#D8BFD8" filter="url(#f1)" height="192.0313" style="stroke: #2E8B57; stroke-width: 1.5;" width="188" x="1060" y="60"/><ellipse cx="1075" cy="148.0156" fill="#ADD1B2" rx="11" ry="11" style="stroke: #2E8B57; stroke-width: 1.0;"/><path d="M1077.7656,149.5469 L1080.1563,150.2969 Q1079.6094,152.2813 1078.3359,153.25 Q1077.0625,154.2188 1075.0938,154.2188 Q1072.6719,154.2188 1071.1172,152.5625 Q1069.5625,150.9063 1069.5625,148.0313 Q1069.5625,145 1071.125,143.3203 Q1072.6875,141.6406 1075.25,141.6406 Q1077.4844,141.6406 1078.875,142.9531 Q1079.7031,143.7344 1080.125,145.2031 L1077.6875,145.7813 Q1077.4688,144.8281 1076.7891,144.2813 Q1076.1094,143.7344 1075.125,143.7344 Q1073.7656,143.7344 1072.9297,144.7109 Q1072.0938,145.6875 1072.0938,147.8594 Q1072.0938,150.1563 1072.9219,151.1406 Q1073.75,152.125 1075.0781,152.125 Q1076.0625,152.125 1076.7656,151.5 Q1077.4688,150.875 1077.7656,149.5469 Z "/><text fill="#000000" font-size="12" font-style="italic" lengthAdjust="spacingAndGlyphs" textLength="105" x="1114.5" y="77">&lt;&lt;User Interface&gt;&gt;</text><text fill="#000000" font-size="12" font-style="italic" lengthAdjust="spacingAndGlyphs" textLength="77" x="1128.5" y="92.0938">&lt;&lt;9603.0%&gt;&gt;</text><text fill="#000000" font-size="12" font-style="italic" lengthAdjust="spacingAndGlyphs" textLength="146" x="1094" y="107.1875">&lt;&lt;Event/Event Handling&gt;&gt;</text><text fill="#000000" font-size="12" font-style="italic" lengthAdjust="spacingAndGlyphs" textLength="63" x="1135.5" y="122.2813">&lt;&lt;81.0%&gt;&gt;</text><text fill="#000000" font-size="12" font-style="italic" lengthAdjust="spacingAndGlyphs" textLength="92" x="1121" y="137.375">&lt;&lt;Persistence&gt;&gt;</text><text fill="#000000" font-size="12" font-style="italic" lengthAdjust="spacingAndGlyphs" textLength="63" x="1135.5" y="152.4688">&lt;&lt;43.0%&gt;&gt;</text><text fill="#000000" font-size="12" font-style="italic" lengthAdjust="spacingAndGlyphs" textLength="44" x="1145" y="167.5625">&lt;&lt;I/O&gt;&gt;</text><text fill="#000000" font-size="12" font-style="italic" lengthAdjust="spacingAndGlyphs" textLength="56" x="1139" y="182.6563">&lt;&lt;9.0%&gt;&gt;</text><text fill="#000000" font-size="12" font-style="italic" lengthAdjust="spacingAndGlyphs" textLength="102" x="1116" y="197.75">&lt;&lt;Network/Web&gt;&gt;</text><text fill="#000000" font-size="12" font-style="italic" lengthAdjust="spacingAndGlyphs" textLength="56" x="1139" y="212.8438">&lt;&lt;7.0%&gt;&gt;</text><text fill="#000000" font-size="12" lengthAdjust="spacingAndGlyphs" textLength="156" x="1089" y="227.9375">FAAutoCreateAbsorbedState</text><line style="stroke: #2E8B57; stroke-width: 1.5;" x1="1061" x2="1247" y1="236.0313" y2="236.0313"/><line style="stroke: #2E8B57; stroke-width: 1.5;" x1="1061" x2="1247" y1="244.0313" y2="244.0313"/><rect fill="#D8BFD8" filter="url(#f1)" height="131.6563" style="stroke: #2E8B57; stroke-width: 1.5;" width="133" x="1910.5" y="90"/><ellipse cx="1925.5" cy="147.8281" fill="#ADD1B2" rx="11" ry="11" style="stroke: #2E8B57; stroke-width: 1.0;"/><path d="M1928.2656,149.3594 L1930.6563,150.1094 Q1930.1094,152.0938 1928.8359,153.0625 Q1927.5625,154.0313 1925.5938,154.0313 Q1923.1719,154.0313 1921.6172,152.375 Q1920.0625,150.7188 1920.0625,147.8438 Q1920.0625,144.8125 1921.625,143.1328 Q1923.1875,141.4531 1925.75,141.4531 Q1927.9844,141.4531 1929.375,142.7656 Q1930.2031,143.5469 1930.625,145.0156 L1928.1875,145.5938 Q1927.9688,144.6406 1927.2891,144.0938 Q1926.6094,143.5469 1925.625,143.5469 Q1924.2656,143.5469 1923.4297,144.5234 Q1922.5938,145.5 1922.5938,147.6719 Q1922.5938,149.9688 1923.4219,150.9531 Q1924.25,151.9375 1925.5781,151.9375 Q1926.5625,151.9375 1927.2656,151.3125 Q1927.9688,150.6875 1928.2656,149.3594 Z "/><text fill="#000000" font-size="12" font-style="italic" lengthAdjust="spacingAndGlyphs" textLength="105" x="1937.5" y="107">&lt;&lt;User Interface&gt;&gt;</text><text fill="#000000" font-size="12" font-style="italic" lengthAdjust="spacingAndGlyphs" textLength="63" x="1958.5" y="122.0938">&lt;&lt;19.0%&gt;&gt;</text><text fill="#000000" font-size="12" font-style="italic" lengthAdjust="spacingAndGlyphs" textLength="102" x="1939" y="137.1875">&lt;&lt;Network/Web&gt;&gt;</text><text fill="#000000" font-size="12" font-style="italic" lengthAdjust="spacingAndGlyphs" textLength="56" x="1962" y="152.2813">&lt;&lt;2.0%&gt;&gt;</text><text fill="#000000" font-size="12" font-style="italic" lengthAdjust="spacingAndGlyphs" textLength="44" x="1968" y="167.375">&lt;&lt;I/O&gt;&gt;</text><text fill="#000000" font-size="12" font-style="italic" lengthAdjust="spacingAndGlyphs" textLength="56" x="1962" y="182.4688">&lt;&lt;1.0%&gt;&gt;</text><text fill="#000000" font-size="12" lengthAdjust="spacingAndGlyphs" textLength="55" x="1962.5" y="197.5625">FAInfoWin</text><line style="stroke: #2E8B57; stroke-width: 1.5;" x1="1911.5" x2="2042.5" y1="205.6563" y2="205.6563"/><line style="stroke: #2E8B57; stroke-width: 1.5;" x1="1911.5" x2="2042.5" y1="213.6563" y2="213.6563"/><rect fill="#D8BFD8" filter="url(#f1)" height="192.0313" style="stroke: #2E8B57; stroke-width: 1.5;" width="174" x="851" y="312"/><ellipse cx="866" cy="400.0156" fill="#ADD1B2" rx="11" ry="11" style="stroke: #2E8B57; stroke-width: 1.0;"/><path d="M868.7656,401.5469 L871.1563,402.2969 Q870.6094,404.2813 869.3359,405.25 Q868.0625,406.2188 866.0938,406.2188 Q863.6719,406.2188 862.1172,404.5625 Q860.5625,402.9063 860.5625,400.0313 Q860.5625,397 862.125,395.3203 Q863.6875,393.6406 866.25,393.6406 Q868.4844,393.6406 869.875,394.9531 Q870.7031,395.7344 871.125,397.2031 L868.6875,397.7813 Q868.4688,396.8281 867.7891,396.2813 Q867.1094,395.7344 866.125,395.7344 Q864.7656,395.7344 863.9297,396.7109 Q863.0938,397.6875 863.0938,399.8594 Q863.0938,402.1563 863.9219,403.1406 Q864.75,404.125 866.0781,404.125 Q867.0625,404.125 867.7656,403.5 Q868.4688,402.875 868.7656,401.5469 Z "/><text fill="#000000" font-size="12" font-style="italic" lengthAdjust="spacingAndGlyphs" textLength="105" x="898.5" y="329">&lt;&lt;User Interface&gt;&gt;</text><text fill="#000000" font-size="12" font-style="italic" lengthAdjust="spacingAndGlyphs" textLength="77" x="912.5" y="344.0938">&lt;&lt;8496.0%&gt;&gt;</text><text fill="#000000" font-size="12" font-style="italic" lengthAdjust="spacingAndGlyphs" textLength="146" x="878" y="359.1875">&lt;&lt;Event/Event Handling&gt;&gt;</text><text fill="#000000" font-size="12" font-style="italic" lengthAdjust="spacingAndGlyphs" textLength="63" x="919.5" y="374.2813">&lt;&lt;72.0%&gt;&gt;</text><text fill="#000000" font-size="12" font-style="italic" lengthAdjust="spacingAndGlyphs" textLength="92" x="905" y="389.375">&lt;&lt;Persistence&gt;&gt;</text><text fill="#000000" font-size="12" font-style="italic" lengthAdjust="spacingAndGlyphs" textLength="63" x="919.5" y="404.4688">&lt;&lt;43.0%&gt;&gt;</text><text fill="#000000" font-size="12" font-style="italic" lengthAdjust="spacingAndGlyphs" textLength="44" x="929" y="419.5625">&lt;&lt;I/O&gt;&gt;</text><text fill="#000000" font-size="12" font-style="italic" lengthAdjust="spacingAndGlyphs" textLength="56" x="923" y="434.6563">&lt;&lt;9.0%&gt;&gt;</text><text fill="#000000" font-size="12" font-style="italic" lengthAdjust="spacingAndGlyphs" textLength="102" x="900" y="449.75">&lt;&lt;Network/Web&gt;&gt;</text><text fill="#000000" font-size="12" font-style="italic" lengthAdjust="spacingAndGlyphs" textLength="56" x="923" y="464.8438">&lt;&lt;7.0%&gt;&gt;</text><text fill="#000000" font-size="12" lengthAdjust="spacingAndGlyphs" textLength="61" x="920.5" y="479.9375">FAMainWin</text><line style="stroke: #2E8B57; stroke-width: 1.5;" x1="852" x2="1024" y1="488.0313" y2="488.0313"/><line style="stroke: #2E8B57; stroke-width: 1.5;" x1="852" x2="1024" y1="496.0313" y2="496.0313"/><rect fill="#D8BFD8" filter="url(#f1)" height="192.0313" style="stroke: #2E8B57; stroke-width: 1.5;" width="174" x="433" y="60"/><ellipse cx="448" cy="148.0156" fill="#ADD1B2" rx="11" ry="11" style="stroke: #2E8B57; stroke-width: 1.0;"/><path d="M450.7656,149.5469 L453.1563,150.2969 Q452.6094,152.2813 451.3359,153.25 Q450.0625,154.2188 448.0938,154.2188 Q445.6719,154.2188 444.1172,152.5625 Q442.5625,150.9063 442.5625,148.0313 Q442.5625,145 444.125,143.3203 Q445.6875,141.6406 448.25,141.6406 Q450.4844,141.6406 451.875,142.9531 Q452.7031,143.7344 453.125,145.2031 L450.6875,145.7813 Q450.4688,144.8281 449.7891,144.2813 Q449.1094,143.7344 448.125,143.7344 Q446.7656,143.7344 445.9297,144.7109 Q445.0938,145.6875 445.0938,147.8594 Q445.0938,150.1563 445.9219,151.1406 Q446.75,152.125 448.0781,152.125 Q449.0625,152.125 449.7656,151.5 Q450.4688,150.875 450.7656,149.5469 Z "/><text fill="#000000" font-size="12" font-style="italic" lengthAdjust="spacingAndGlyphs" textLength="105" x="480.5" y="77">&lt;&lt;User Interface&gt;&gt;</text><text fill="#000000" font-size="12" font-style="italic" lengthAdjust="spacingAndGlyphs" textLength="77" x="494.5" y="92.0938">&lt;&lt;9740.0%&gt;&gt;</text><text fill="#000000" font-size="12" font-style="italic" lengthAdjust="spacingAndGlyphs" textLength="146" x="460" y="107.1875">&lt;&lt;Event/Event Handling&gt;&gt;</text><text fill="#000000" font-size="12" font-style="italic" lengthAdjust="spacingAndGlyphs" textLength="63" x="501.5" y="122.2813">&lt;&lt;84.0%&gt;&gt;</text><text fill="#000000" font-size="12" font-style="italic" lengthAdjust="spacingAndGlyphs" textLength="92" x="487" y="137.375">&lt;&lt;Persistence&gt;&gt;</text><text fill="#000000" font-size="12" font-style="italic" lengthAdjust="spacingAndGlyphs" textLength="63" x="501.5" y="152.4688">&lt;&lt;43.0%&gt;&gt;</text><text fill="#000000" font-size="12" font-style="italic" lengthAdjust="spacingAndGlyphs" textLength="44" x="511" y="167.5625">&lt;&lt;I/O&gt;&gt;</text><text fill="#000000" font-size="12" font-style="italic" lengthAdjust="spacingAndGlyphs" textLength="56" x="505" y="182.6563">&lt;&lt;9.0%&gt;&gt;</text><text fill="#000000" font-size="12" font-style="italic" lengthAdjust="spacingAndGlyphs" textLength="102" x="482" y="197.75">&lt;&lt;Network/Web&gt;&gt;</text><text fill="#000000" font-size="12" font-style="italic" lengthAdjust="spacingAndGlyphs" textLength="56" x="505" y="212.8438">&lt;&lt;7.0%&gt;&gt;</text><text fill="#000000" font-size="12" lengthAdjust="spacingAndGlyphs" textLength="92" x="487" y="227.9375">FAPropertiesWin</text><line style="stroke: #2E8B57; stroke-width: 1.5;" x1="434" x2="606" y1="236.0313" y2="236.0313"/><line style="stroke: #2E8B57; stroke-width: 1.5;" x1="434" x2="606" y1="244.0313" y2="244.0313"/><rect fill="#D8BFD8" filter="url(#f1)" height="192.0313" style="stroke: #2E8B57; stroke-width: 1.5;" width="174" x="224" y="60"/><ellipse cx="239" cy="148.0156" fill="#ADD1B2" rx="11" ry="11" style="stroke: #2E8B57; stroke-width: 1.0;"/><path d="M241.7656,149.5469 L244.1563,150.2969 Q243.6094,152.2813 242.3359,153.25 Q241.0625,154.2188 239.0938,154.2188 Q236.6719,154.2188 235.1172,152.5625 Q233.5625,150.9063 233.5625,148.0313 Q233.5625,145 235.125,143.3203 Q236.6875,141.6406 239.25,141.6406 Q241.4844,141.6406 242.875,142.9531 Q243.7031,143.7344 244.125,145.2031 L241.6875,145.7813 Q241.4688,144.8281 240.7891,144.2813 Q240.1094,143.7344 239.125,143.7344 Q237.7656,143.7344 236.9297,144.7109 Q236.0938,145.6875 236.0938,147.8594 Q236.0938,150.1563 236.9219,151.1406 Q237.75,152.125 239.0781,152.125 Q240.0625,152.125 240.7656,151.5 Q241.4688,150.875 241.7656,149.5469 Z "/><text fill="#000000" font-size="12" font-style="italic" lengthAdjust="spacingAndGlyphs" textLength="105" x="271.5" y="77">&lt;&lt;User Interface&gt;&gt;</text><text fill="#000000" font-size="12" font-style="italic" lengthAdjust="spacingAndGlyphs" textLength="77" x="285.5" y="92.0938">&lt;&lt;8572.0%&gt;&gt;</text><text fill="#000000" font-size="12" font-style="italic" lengthAdjust="spacingAndGlyphs" textLength="146" x="251" y="107.1875">&lt;&lt;Event/Event Handling&gt;&gt;</text><text fill="#000000" font-size="12" font-style="italic" lengthAdjust="spacingAndGlyphs" textLength="63" x="292.5" y="122.2813">&lt;&lt;73.0%&gt;&gt;</text><text fill="#000000" font-size="12" font-style="italic" lengthAdjust="spacingAndGlyphs" textLength="92" x="278" y="137.375">&lt;&lt;Persistence&gt;&gt;</text><text fill="#000000" font-size="12" font-style="italic" lengthAdjust="spacingAndGlyphs" textLength="63" x="292.5" y="152.4688">&lt;&lt;43.0%&gt;&gt;</text><text fill="#000000" font-size="12" font-style="italic" lengthAdjust="spacingAndGlyphs" textLength="44" x="302" y="167.5625">&lt;&lt;I/O&gt;&gt;</text><text fill="#000000" font-size="12" font-style="italic" lengthAdjust="spacingAndGlyphs" textLength="56" x="296" y="182.6563">&lt;&lt;9.0%&gt;&gt;</text><text fill="#000000" font-size="12" font-style="italic" lengthAdjust="spacingAndGlyphs" textLength="102" x="273" y="197.75">&lt;&lt;Network/Web&gt;&gt;</text><text fill="#000000" font-size="12" font-style="italic" lengthAdjust="spacingAndGlyphs" textLength="56" x="296" y="212.8438">&lt;&lt;7.0%&gt;&gt;</text><text fill="#000000" font-size="12" lengthAdjust="spacingAndGlyphs" textLength="120" x="264" y="227.9375">FAStatePropertiesWin</text><line style="stroke: #2E8B57; stroke-width: 1.5;" x1="225" x2="397" y1="236.0313" y2="236.0313"/><line style="stroke: #2E8B57; stroke-width: 1.5;" x1="225" x2="397" y1="244.0313" y2="244.0313"/><rect fill="#D8BFD8" filter="url(#f1)" height="192.0313" style="stroke: #2E8B57; stroke-width: 1.5;" width="174" x="1283" y="60"/><ellipse cx="1298" cy="148.0156" fill="#ADD1B2" rx="11" ry="11" style="stroke: #2E8B57; stroke-width: 1.0;"/><path d="M1300.7656,149.5469 L1303.1563,150.2969 Q1302.6094,152.2813 1301.3359,153.25 Q1300.0625,154.2188 1298.0938,154.2188 Q1295.6719,154.2188 1294.1172,152.5625 Q1292.5625,150.9063 1292.5625,148.0313 Q1292.5625,145 1294.125,143.3203 Q1295.6875,141.6406 1298.25,141.6406 Q1300.4844,141.6406 1301.875,142.9531 Q1302.7031,143.7344 1303.125,145.2031 L1300.6875,145.7813 Q1300.4688,144.8281 1299.7891,144.2813 Q1299.1094,143.7344 1298.125,143.7344 Q1296.7656,143.7344 1295.9297,144.7109 Q1295.0938,145.6875 1295.0938,147.8594 Q1295.0938,150.1563 1295.9219,151.1406 Q1296.75,152.125 1298.0781,152.125 Q1299.0625,152.125 1299.7656,151.5 Q1300.4688,150.875 1300.7656,149.5469 Z "/><text fill="#000000" font-size="12" font-style="italic" lengthAdjust="spacingAndGlyphs" textLength="105" x="1330.5" y="77">&lt;&lt;User Interface&gt;&gt;</text><text fill="#000000" font-size="12" font-style="italic" lengthAdjust="spacingAndGlyphs" textLength="77" x="1344.5" y="92.0938">&lt;&lt;8637.0%&gt;&gt;</text><text fill="#000000" font-size="12" font-style="italic" lengthAdjust="spacingAndGlyphs" textLength="146" x="1310" y="107.1875">&lt;&lt;Event/Event Handling&gt;&gt;</text><text fill="#000000" font-size="12" font-style="italic" lengthAdjust="spacingAndGlyphs" textLength="63" x="1351.5" y="122.2813">&lt;&lt;73.0%&gt;&gt;</text><text fill="#000000" font-size="12" font-style="italic" lengthAdjust="spacingAndGlyphs" textLength="92" x="1337" y="137.375">&lt;&lt;Persistence&gt;&gt;</text><text fill="#000000" font-size="12" font-style="italic" lengthAdjust="spacingAndGlyphs" textLength="63" x="1351.5" y="152.4688">&lt;&lt;43.0%&gt;&gt;</text><text fill="#000000" font-size="12" font-style="italic" lengthAdjust="spacingAndGlyphs" textLength="44" x="1361" y="167.5625">&lt;&lt;I/O&gt;&gt;</text><text fill="#000000" font-size="12" font-style="italic" lengthAdjust="spacingAndGlyphs" textLength="56" x="1355" y="182.6563">&lt;&lt;9.0%&gt;&gt;</text><text fill="#000000" font-size="12" font-style="italic" lengthAdjust="spacingAndGlyphs" textLength="102" x="1332" y="197.75">&lt;&lt;Network/Web&gt;&gt;</text><text fill="#000000" font-size="12" font-style="italic" lengthAdjust="spacingAndGlyphs" textLength="56" x="1355" y="212.8438">&lt;&lt;7.0%&gt;&gt;</text><text fill="#000000" font-size="12" lengthAdjust="spacingAndGlyphs" textLength="90" x="1338" y="227.9375">FATransitionWin</text><line style="stroke: #2E8B57; stroke-width: 1.5;" x1="1284" x2="1456" y1="236.0313" y2="236.0313"/><line style="stroke: #2E8B57; stroke-width: 1.5;" x1="1284" x2="1456" y1="244.0313" y2="244.0313"/><rect fill="#D8BFD8" filter="url(#f1)" height="192.0313" style="stroke: #2E8B57; stroke-width: 1.5;" width="174" x="642" y="60"/><ellipse cx="657" cy="148.0156" fill="#ADD1B2" rx="11" ry="11" style="stroke: #2E8B57; stroke-width: 1.0;"/><path d="M659.7656,149.5469 L662.1563,150.2969 Q661.6094,152.2813 660.3359,153.25 Q659.0625,154.2188 657.0938,154.2188 Q654.6719,154.2188 653.1172,152.5625 Q651.5625,150.9063 651.5625,148.0313 Q651.5625,145 653.125,143.3203 Q654.6875,141.6406 657.25,141.6406 Q659.4844,141.6406 660.875,142.9531 Q661.7031,143.7344 662.125,145.2031 L659.6875,145.7813 Q659.4688,144.8281 658.7891,144.2813 Q658.1094,143.7344 657.125,143.7344 Q655.7656,143.7344 654.9297,144.7109 Q654.0938,145.6875 654.0938,147.8594 Q654.0938,150.1563 654.9219,151.1406 Q655.75,152.125 657.0781,152.125 Q658.0625,152.125 658.7656,151.5 Q659.4688,150.875 659.7656,149.5469 Z "/><text fill="#000000" font-size="12" font-style="italic" lengthAdjust="spacingAndGlyphs" textLength="105" x="689.5" y="77">&lt;&lt;User Interface&gt;&gt;</text><text fill="#000000" font-size="12" font-style="italic" lengthAdjust="spacingAndGlyphs" textLength="77" x="703.5" y="92.0938">&lt;&lt;1195.0%&gt;&gt;</text><text fill="#000000" font-size="12" font-style="italic" lengthAdjust="spacingAndGlyphs" textLength="146" x="669" y="107.1875">&lt;&lt;Event/Event Handling&gt;&gt;</text><text fill="#000000" font-size="12" font-style="italic" lengthAdjust="spacingAndGlyphs" textLength="63" x="710.5" y="122.2813">&lt;&lt;10.0%&gt;&gt;</text><text fill="#000000" font-size="12" font-style="italic" lengthAdjust="spacingAndGlyphs" textLength="92" x="696" y="137.375">&lt;&lt;Persistence&gt;&gt;</text><text fill="#000000" font-size="12" font-style="italic" lengthAdjust="spacingAndGlyphs" textLength="56" x="714" y="152.4688">&lt;&lt;7.0%&gt;&gt;</text><text fill="#000000" font-size="12" font-style="italic" lengthAdjust="spacingAndGlyphs" textLength="102" x="691" y="167.5625">&lt;&lt;Network/Web&gt;&gt;</text><text fill="#000000" font-size="12" font-style="italic" lengthAdjust="spacingAndGlyphs" textLength="56" x="714" y="182.6563">&lt;&lt;2.0%&gt;&gt;</text><text fill="#000000" font-size="12" font-style="italic" lengthAdjust="spacingAndGlyphs" textLength="44" x="720" y="197.75">&lt;&lt;I/O&gt;&gt;</text><text fill="#000000" font-size="12" font-style="italic" lengthAdjust="spacingAndGlyphs" textLength="56" x="714" y="212.8438">&lt;&lt;2.0%&gt;&gt;</text><text fill="#000000" font-size="12" lengthAdjust="spacingAndGlyphs" textLength="87" x="698.5" y="227.9375">FAWelcomeWin</text><line style="stroke: #2E8B57; stroke-width: 1.5;" x1="643" x2="815" y1="236.0313" y2="236.0313"/><line style="stroke: #2E8B57; stroke-width: 1.5;" x1="643" x2="815" y1="244.0313" y2="244.0313"/><rect fill="#D8BFD8" filter="url(#f1)" height="71.2813" style="stroke: #2E8B57; stroke-width: 1.5;" width="133" x="899.5" y="609.5"/><ellipse cx="914.5" cy="637.1406" fill="#ADD1B2" rx="11" ry="11" style="stroke: #2E8B57; stroke-width: 1.0;"/><path d="M917.2656,638.6719 L919.6563,639.4219 Q919.1094,641.4063 917.8359,642.375 Q916.5625,643.3438 914.5938,643.3438 Q912.1719,643.3438 910.6172,641.6875 Q909.0625,640.0313 909.0625,637.1563 Q909.0625,634.125 910.625,632.4453 Q912.1875,630.7656 914.75,630.7656 Q916.9844,630.7656 918.375,632.0781 Q919.2031,632.8594 919.625,634.3281 L917.1875,634.9063 Q916.9688,633.9531 916.2891,633.4063 Q915.6094,632.8594 914.625,632.8594 Q913.2656,632.8594 912.4297,633.8359 Q911.5938,634.8125 911.5938,636.9844 Q911.5938,639.2813 912.4219,640.2656 Q913.25,641.25 914.5781,641.25 Q915.5625,641.25 916.2656,640.625 Q916.9688,640 917.2656,638.6719 Z "/><text fill="#000000" font-size="12" font-style="italic" lengthAdjust="spacingAndGlyphs" textLength="105" x="926.5" y="626.5">&lt;&lt;User Interface&gt;&gt;</text><text fill="#000000" font-size="12" font-style="italic" lengthAdjust="spacingAndGlyphs" textLength="70" x="944" y="641.5938">&lt;&lt;117.0%&gt;&gt;</text><text fill="#000000" font-size="12" lengthAdjust="spacingAndGlyphs" textLength="60" x="949" y="656.6875">PaintPanel</text><line style="stroke: #2E8B57; stroke-width: 1.5;" x1="900.5" x2="1031.5" y1="664.7813" y2="664.7813"/><line style="stroke: #2E8B57; stroke-width: 1.5;" x1="900.5" x2="1031.5" y1="672.7813" y2="672.7813"/><rect fill="#D8BFD8" filter="url(#f1)" height="101.4688" style="stroke: #2E8B57; stroke-width: 1.5;" width="174" x="785" y="816.5"/><ellipse cx="800" cy="859.2344" fill="#ADD1B2" rx="11" ry="11" style="stroke: #2E8B57; stroke-width: 1.0;"/><path d="M802.7656,860.7656 L805.1563,861.5156 Q804.6094,863.5 803.3359,864.4688 Q802.0625,865.4375 800.0938,865.4375 Q797.6719,865.4375 796.1172,863.7813 Q794.5625,862.125 794.5625,859.25 Q794.5625,856.2188 796.125,854.5391 Q797.6875,852.8594 800.25,852.8594 Q802.4844,852.8594 803.875,854.1719 Q804.7031,854.9531 805.125,856.4219 L802.6875,857 Q802.4688,856.0469 801.7891,855.5 Q801.1094,854.9531 800.125,854.9531 Q798.7656,854.9531 797.9297,855.9297 Q797.0938,856.9063 797.0938,859.0781 Q797.0938,861.375 797.9219,862.3594 Q798.75,863.3438 800.0781,863.3438 Q801.0625,863.3438 801.7656,862.7188 Q802.4688,862.0938 802.7656,860.7656 Z "/><text fill="#000000" font-size="12" font-style="italic" lengthAdjust="spacingAndGlyphs" textLength="105" x="832.5" y="833.5">&lt;&lt;User Interface&gt;&gt;</text><text fill="#000000" font-size="12" font-style="italic" lengthAdjust="spacingAndGlyphs" textLength="70" x="850" y="848.5938">&lt;&lt;544.0%&gt;&gt;</text><text fill="#000000" font-size="12" font-style="italic" lengthAdjust="spacingAndGlyphs" textLength="146" x="812" y="863.6875">&lt;&lt;Event/Event Handling&gt;&gt;</text><text fill="#000000" font-size="12" font-style="italic" lengthAdjust="spacingAndGlyphs" textLength="56" x="857" y="878.7813">&lt;&lt;4.0%&gt;&gt;</text><text fill="#000000" font-size="12" lengthAdjust="spacingAndGlyphs" textLength="14" x="878" y="893.875">FA</text><line style="stroke: #2E8B57; stroke-width: 1.5;" x1="786" x2="958" y1="901.9688" y2="901.9688"/><line style="stroke: #2E8B57; stroke-width: 1.5;" x1="786" x2="958" y1="909.9688" y2="909.9688"/><rect fill="#D8BFD8" filter="url(#f1)" height="161.8438" style="stroke: #2E8B57; stroke-width: 1.5;" width="174" x="1492" y="75"/><ellipse cx="1507" cy="147.9219" fill="#ADD1B2" rx="11" ry="11" style="stroke: #2E8B57; stroke-width: 1.0;"/><path d="M1509.7656,149.4531 L1512.1563,150.2031 Q1511.6094,152.1875 1510.3359,153.1563 Q1509.0625,154.125 1507.0938,154.125 Q1504.6719,154.125 1503.1172,152.4688 Q1501.5625,150.8125 1501.5625,147.9375 Q1501.5625,144.9063 1503.125,143.2266 Q1504.6875,141.5469 1507.25,141.5469 Q1509.4844,141.5469 1510.875,142.8594 Q1511.7031,143.6406 1512.125,145.1094 L1509.6875,145.6875 Q1509.4688,144.7344 1508.7891,144.1875 Q1508.1094,143.6406 1507.125,143.6406 Q1505.7656,143.6406 1504.9297,144.6172 Q1504.0938,145.5938 1504.0938,147.7656 Q1504.0938,150.0625 1504.9219,151.0469 Q1505.75,152.0313 1507.0781,152.0313 Q1508.0625,152.0313 1508.7656,151.4063 Q1509.4688,150.7813 1509.7656,149.4531 Z "/><text fill="#000000" font-size="12" font-style="italic" lengthAdjust="spacingAndGlyphs" textLength="105" x="1539.5" y="92">&lt;&lt;User Interface&gt;&gt;</text><text fill="#000000" font-size="12" font-style="italic" lengthAdjust="spacingAndGlyphs" textLength="70" x="1557" y="107.0938">&lt;&lt;999.0%&gt;&gt;</text><text fill="#000000" font-size="12" font-style="italic" lengthAdjust="spacingAndGlyphs" textLength="92" x="1546" y="122.1875">&lt;&lt;Persistence&gt;&gt;</text><text fill="#000000" font-size="12" font-style="italic" lengthAdjust="spacingAndGlyphs" textLength="63" x="1560.5" y="137.2813">&lt;&lt;12.0%&gt;&gt;</text><text fill="#000000" font-size="12" font-style="italic" lengthAdjust="spacingAndGlyphs" textLength="146" x="1519" y="152.375">&lt;&lt;Event/Event Handling&gt;&gt;</text><text fill="#000000" font-size="12" font-style="italic" lengthAdjust="spacingAndGlyphs" textLength="56" x="1564" y="167.4688">&lt;&lt;9.0%&gt;&gt;</text><text fill="#000000" font-size="12" font-style="italic" lengthAdjust="spacingAndGlyphs" textLength="44" x="1570" y="182.5625">&lt;&lt;I/O&gt;&gt;</text><text fill="#000000" font-size="12" font-style="italic" lengthAdjust="spacingAndGlyphs" textLength="56" x="1564" y="197.6563">&lt;&lt;2.0%&gt;&gt;</text><text fill="#000000" font-size="12" lengthAdjust="spacingAndGlyphs" textLength="46" x="1569" y="212.75">FAEditor</text><line style="stroke: #2E8B57; stroke-width: 1.5;" x1="1493" x2="1665" y1="220.8438" y2="220.8438"/><line style="stroke: #2E8B57; stroke-width: 1.5;" x1="1493" x2="1665" y1="228.8438" y2="228.8438"/><rect fill="#D8BFD8" filter="url(#f1)" height="71.2813" style="stroke: #2E8B57; stroke-width: 1.5;" width="209" x="1683.5" y="372.5"/><ellipse cx="1698.5" cy="400.1406" fill="#ADD1B2" rx="11" ry="11" style="stroke: #2E8B57; stroke-width: 1.0;"/><path d="M1701.2656,401.6719 L1703.6563,402.4219 Q1703.1094,404.4063 1701.8359,405.375 Q1700.5625,406.3438 1698.5938,406.3438 Q1696.1719,406.3438 1694.6172,404.6875 Q1693.0625,403.0313 1693.0625,400.1563 Q1693.0625,397.125 1694.625,395.4453 Q1696.1875,393.7656 1698.75,393.7656 Q1700.9844,393.7656 1702.375,395.0781 Q1703.2031,395.8594 1703.625,397.3281 L1701.1875,397.9063 Q1700.9688,396.9531 1700.2891,396.4063 Q1699.6094,395.8594 1698.625,395.8594 Q1697.2656,395.8594 1696.4297,396.8359 Q1695.5938,397.8125 1695.5938,399.9844 Q1695.5938,402.2813 1696.4219,403.2656 Q1697.25,404.25 1698.5781,404.25 Q1699.5625,404.25 1700.2656,403.625 Q1700.9688,403 1701.2656,401.6719 Z "/><text fill="#000000" font-size="12" font-style="italic" lengthAdjust="spacingAndGlyphs" textLength="105" x="1748.5" y="389.5">&lt;&lt;User Interface&gt;&gt;</text><text fill="#000000" font-size="12" font-style="italic" lengthAdjust="spacingAndGlyphs" textLength="56" x="1773" y="404.5938">&lt;&lt;4.0%&gt;&gt;</text><text fill="#000000" font-size="12" lengthAdjust="spacingAndGlyphs" textLength="177" x="1712.5" y="419.6875">FATransitionTableColumnModel</text><line style="stroke: #2E8B57; stroke-width: 1.5;" x1="1684.5" x2="1891.5" y1="427.7813" y2="427.7813"/><line style="stroke: #2E8B57; stroke-width: 1.5;" x1="1684.5" x2="1891.5" y1="435.7813" y2="435.7813"/><rect fill="#D8BFD8" filter="url(#f1)" height="101.4688" style="stroke: #2E8B57; stroke-width: 1.5;" width="174" x="605" y="594.5"/><ellipse cx="620" cy="637.2344" fill="#ADD1B2" rx="11" ry="11" style="stroke: #2E8B57; stroke-width: 1.0;"/><path d="M622.7656,638.7656 L625.1563,639.5156 Q624.6094,641.5 623.3359,642.4688 Q622.0625,643.4375 620.0938,643.4375 Q617.6719,643.4375 616.1172,641.7813 Q614.5625,640.125 614.5625,637.25 Q614.5625,634.2188 616.125,632.5391 Q617.6875,630.8594 620.25,630.8594 Q622.4844,630.8594 623.875,632.1719 Q624.7031,632.9531 625.125,634.4219 L622.6875,635 Q622.4688,634.0469 621.7891,633.5 Q621.1094,632.9531 620.125,632.9531 Q618.7656,632.9531 617.9297,633.9297 Q617.0938,634.9063 617.0938,637.0781 Q617.0938,639.375 617.9219,640.3594 Q618.75,641.3438 620.0781,641.3438 Q621.0625,641.3438 621.7656,640.7188 Q622.4688,640.0938 622.7656,638.7656 Z "/><text fill="#000000" font-size="12" font-style="italic" lengthAdjust="spacingAndGlyphs" textLength="105" x="652.5" y="611.5">&lt;&lt;User Interface&gt;&gt;</text><text fill="#000000" font-size="12" font-style="italic" lengthAdjust="spacingAndGlyphs" textLength="63" x="673.5" y="626.5938">&lt;&lt;65.0%&gt;&gt;</text><text fill="#000000" font-size="12" font-style="italic" lengthAdjust="spacingAndGlyphs" textLength="146" x="632" y="641.6875">&lt;&lt;Event/Event Handling&gt;&gt;</text><text fill="#000000" font-size="12" font-style="italic" lengthAdjust="spacingAndGlyphs" textLength="56" x="677" y="656.7813">&lt;&lt;2.0%&gt;&gt;</text><text fill="#000000" font-size="12" lengthAdjust="spacingAndGlyphs" textLength="133" x="638.5" y="671.875">FATransitionTableModel</text><line style="stroke: #2E8B57; stroke-width: 1.5;" x1="606" x2="778" y1="679.9688" y2="679.9688"/><line style="stroke: #2E8B57; stroke-width: 1.5;" x1="606" x2="778" y1="687.9688" y2="687.9688"/><rect fill="#D8BFD8" filter="url(#f1)" height="71.2813" style="stroke: #2E8B57; stroke-width: 1.5;" width="133" x="1031.5" y="831.5"/><ellipse cx="1046.5" cy="859.1406" fill="#ADD1B2" rx="11" ry="11" style="stroke: #2E8B57; stroke-width: 1.0;"/><path d="M1049.2656,860.6719 L1051.6563,861.4219 Q1051.1094,863.4063 1049.8359,864.375 Q1048.5625,865.3438 1046.5938,865.3438 Q1044.1719,865.3438 1042.6172,863.6875 Q1041.0625,862.0313 1041.0625,859.1563 Q1041.0625,856.125 1042.625,854.4453 Q1044.1875,852.7656 1046.75,852.7656 Q1048.9844,852.7656 1050.375,854.0781 Q1051.2031,854.8594 1051.625,856.3281 L1049.1875,856.9063 Q1048.9688,855.9531 1048.2891,855.4063 Q1047.6094,854.8594 1046.625,854.8594 Q1045.2656,854.8594 1044.4297,855.8359 Q1043.5938,856.8125 1043.5938,858.9844 Q1043.5938,861.2813 1044.4219,862.2656 Q1045.25,863.25 1046.5781,863.25 Q1047.5625,863.25 1048.2656,862.625 Q1048.9688,862 1049.2656,860.6719 Z "/><text fill="#000000" font-size="12" font-style="italic" lengthAdjust="spacingAndGlyphs" textLength="105" x="1058.5" y="848.5">&lt;&lt;User Interface&gt;&gt;</text><text fill="#000000" font-size="12" font-style="italic" lengthAdjust="spacingAndGlyphs" textLength="56" x="1083" y="863.5938">&lt;&lt;2.0%&gt;&gt;</text><text fill="#000000" font-size="12" lengthAdjust="spacingAndGlyphs" textLength="68" x="1077" y="878.6875">SquareState</text><line style="stroke: #2E8B57; stroke-width: 1.5;" x1="1032.5" x2="1163.5" y1="886.7813" y2="886.7813"/><line style="stroke: #2E8B57; stroke-width: 1.5;" x1="1032.5" x2="1163.5" y1="894.7813" y2="894.7813"/><rect fill="#D8BFD8" filter="url(#f1)" height="71.2813" style="stroke: #2E8B57; stroke-width: 1.5;" width="133" x="1031.5" y="1008"/><ellipse cx="1046.5" cy="1035.6406" fill="#ADD1B2" rx="11" ry="11" style="stroke: #2E8B57; stroke-width: 1.0;"/><path d="M1049.2656,1037.1719 L1051.6563,1037.9219 Q1051.1094,1039.9063 1049.8359,1040.875 Q1048.5625,1041.8438 1046.5938,1041.8438 Q1044.1719,1041.8438 1042.6172,1040.1875 Q1041.0625,1038.5313 1041.0625,1035.6563 Q1041.0625,1032.625 1042.625,1030.9453 Q1044.1875,1029.2656 1046.75,1029.2656 Q1048.9844,1029.2656 1050.375,1030.5781 Q1051.2031,1031.3594 1051.625,1032.8281 L1049.1875,1033.4063 Q1048.9688,1032.4531 1048.2891,1031.9063 Q1047.6094,1031.3594 1046.625,1031.3594 Q1045.2656,1031.3594 1044.4297,1032.3359 Q1043.5938,1033.3125 1043.5938,1035.4844 Q1043.5938,1037.7813 1044.4219,1038.7656 Q1045.25,1039.75 1046.5781,1039.75 Q1047.5625,1039.75 1048.2656,1039.125 Q1048.9688,1038.5 1049.2656,1037.1719 Z "/><text fill="#000000" font-size="12" font-style="italic" lengthAdjust="spacingAndGlyphs" textLength="105" x="1058.5" y="1025">&lt;&lt;User Interface&gt;&gt;</text><text fill="#000000" font-size="12" font-style="italic" lengthAdjust="spacingAndGlyphs" textLength="63" x="1079.5" y="1040.0938">&lt;&lt;32.0%&gt;&gt;</text><text fill="#000000" font-size="12" lengthAdjust="spacingAndGlyphs" textLength="28" x="1097" y="1055.1875">State</text><line style="stroke: #2E8B57; stroke-width: 1.5;" x1="1032.5" x2="1163.5" y1="1063.2813" y2="1063.2813"/><line style="stroke: #2E8B57; stroke-width: 1.5;" x1="1032.5" x2="1163.5" y1="1071.2813" y2="1071.2813"/><rect fill="#D8BFD8" filter="url(#f1)" height="71.2813" style="stroke: #2E8B57; stroke-width: 1.5;" width="133" x="1409.5" y="831.5"/><ellipse cx="1424.5" cy="859.1406" fill="#ADD1B2" rx="11" ry="11" style="stroke: #2E8B57; stroke-width: 1.0;"/><path d="M1427.2656,860.6719 L1429.6563,861.4219 Q1429.1094,863.4063 1427.8359,864.375 Q1426.5625,865.3438 1424.5938,865.3438 Q1422.1719,865.3438 1420.6172,863.6875 Q1419.0625,862.0313 1419.0625,859.1563 Q1419.0625,856.125 1420.625,854.4453 Q1422.1875,852.7656 1424.75,852.7656 Q1426.9844,852.7656 1428.375,854.0781 Q1429.2031,854.8594 1429.625,856.3281 L1427.1875,856.9063 Q1426.9688,855.9531 1426.2891,855.4063 Q1425.6094,854.8594 1424.625,854.8594 Q1423.2656,854.8594 1422.4297,855.8359 Q1421.5938,856.8125 1421.5938,858.9844 Q1421.5938,861.2813 1422.4219,862.2656 Q1423.25,863.25 1424.5781,863.25 Q1425.5625,863.25 1426.2656,862.625 Q1426.9688,862 1427.2656,860.6719 Z "/><text fill="#000000" font-size="12" font-style="italic" lengthAdjust="spacingAndGlyphs" textLength="105" x="1436.5" y="848.5">&lt;&lt;User Interface&gt;&gt;</text><text fill="#000000" font-size="12" font-style="italic" lengthAdjust="spacingAndGlyphs" textLength="63" x="1457.5" y="863.5938">&lt;&lt;64.0%&gt;&gt;</text><text fill="#000000" font-size="12" lengthAdjust="spacingAndGlyphs" textLength="55" x="1461.5" y="878.6875">Transition</text><line style="stroke: #2E8B57; stroke-width: 1.5;" x1="1410.5" x2="1541.5" y1="886.7813" y2="886.7813"/><line style="stroke: #2E8B57; stroke-width: 1.5;" x1="1410.5" x2="1541.5" y1="894.7813" y2="894.7813"/><rect fill="#FFF8DC" filter="url(#f1)" height="48" style="stroke: #2E8B57; stroke-width: 1.5;" width="124" x="1036" y="1139"/><ellipse cx="1051" cy="1155" fill="#ADD1B2" rx="11" ry="11" style="stroke: #2E8B57; stroke-width: 1.0;"/><path d="M1053.7656,1156.5313 L1056.1563,1157.2813 Q1055.6094,1159.2656 1054.3359,1160.2344 Q1053.0625,1161.2031 1051.0938,1161.2031 Q1048.6719,1161.2031 1047.1172,1159.5469 Q1045.5625,1157.8906 1045.5625,1155.0156 Q1045.5625,1151.9844 1047.125,1150.3047 Q1048.6875,1148.625 1051.25,1148.625 Q1053.4844,1148.625 1054.875,1149.9375 Q1055.7031,1150.7188 1056.125,1152.1875 L1053.6875,1152.7656 Q1053.4688,1151.8125 1052.7891,1151.2656 Q1052.1094,1150.7188 1051.125,1150.7188 Q1049.7656,1150.7188 1048.9297,1151.6953 Q1048.0938,1152.6719 1048.0938,1154.8438 Q1048.0938,1157.1406 1048.9219,1158.125 Q1049.75,1159.1094 1051.0781,1159.1094 Q1052.0625,1159.1094 1052.7656,1158.4844 Q1053.4688,1157.8594 1053.7656,1156.5313 Z "/><text fill="#000000" font-size="12" lengthAdjust="spacingAndGlyphs" textLength="92" x="1065" y="1159.4531">State_Properties</text><line style="stroke: #2E8B57; stroke-width: 1.5;" x1="1037" x2="1159" y1="1171" y2="1171"/><line style="stroke: #2E8B57; stroke-width: 1.5;" x1="1037" x2="1159" y1="1179" y2="1179"/><rect fill="#5F9EA0" filter="url(#f1)" height="71.2813" style="stroke: #2E8B57; stroke-width: 1.5;" width="205" x="2265.5" y="120.5"/><ellipse cx="2280.5" cy="148.1406" fill="#ADD1B2" rx="11" ry="11" style="stroke: #2E8B57; stroke-width: 1.0;"/><path d="M2283.2656,149.6719 L2285.6563,150.4219 Q2285.1094,152.4063 2283.8359,153.375 Q2282.5625,154.3438 2280.5938,154.3438 Q2278.1719,154.3438 2276.6172,152.6875 Q2275.0625,151.0313 2275.0625,148.1563 Q2275.0625,145.125 2276.625,143.4453 Q2278.1875,141.7656 2280.75,141.7656 Q2282.9844,141.7656 2284.375,143.0781 Q2285.2031,143.8594 2285.625,145.3281 L2283.1875,145.9063 Q2282.9688,144.9531 2282.2891,144.4063 Q2281.6094,143.8594 2280.625,143.8594 Q2279.2656,143.8594 2278.4297,144.8359 Q2277.5938,145.8125 2277.5938,147.9844 Q2277.5938,150.2813 2278.4219,151.2656 Q2279.25,152.25 2280.5781,152.25 Q2281.5625,152.25 2282.2656,151.625 Q2282.9688,151 2283.2656,149.6719 Z "/><text fill="#000000" font-size="12" font-style="italic" lengthAdjust="spacingAndGlyphs" textLength="100" x="2331" y="137.5">&lt;&lt;Object Model&gt;&gt;</text><text fill="#000000" font-size="12" font-style="italic" lengthAdjust="spacingAndGlyphs" textLength="77" x="2342.5" y="152.5938">&lt;&lt;100.00%&gt;&gt;</text><text fill="#000000" font-size="12" lengthAdjust="spacingAndGlyphs" textLength="173" x="2294.5" y="167.6875">IncompleteAutomatonException</text><line style="stroke: #2E8B57; stroke-width: 1.5;" x1="2266.5" x2="2469.5" y1="175.7813" y2="175.7813"/><line style="stroke: #2E8B57; stroke-width: 1.5;" x1="2266.5" x2="2469.5" y1="183.7813" y2="183.7813"/><rect fill="#5F9EA0" filter="url(#f1)" height="71.2813" style="stroke: #2E8B57; stroke-width: 1.5;" width="184" x="2506" y="120.5"/><ellipse cx="2521" cy="148.1406" fill="#ADD1B2" rx="11" ry="11" style="stroke: #2E8B57; stroke-width: 1.0;"/><path d="M2523.7656,149.6719 L2526.1563,150.4219 Q2525.6094,152.4063 2524.3359,153.375 Q2523.0625,154.3438 2521.0938,154.3438 Q2518.6719,154.3438 2517.1172,152.6875 Q2515.5625,151.0313 2515.5625,148.1563 Q2515.5625,145.125 2517.125,143.4453 Q2518.6875,141.7656 2521.25,141.7656 Q2523.4844,141.7656 2524.875,143.0781 Q2525.7031,143.8594 2526.125,145.3281 L2523.6875,145.9063 Q2523.4688,144.9531 2522.7891,144.4063 Q2522.1094,143.8594 2521.125,143.8594 Q2519.7656,143.8594 2518.9297,144.8359 Q2518.0938,145.8125 2518.0938,147.9844 Q2518.0938,150.2813 2518.9219,151.2656 Q2519.75,152.25 2521.0781,152.25 Q2522.0625,152.25 2522.7656,151.625 Q2523.4688,151 2523.7656,149.6719 Z "/><text fill="#000000" font-size="12" font-style="italic" lengthAdjust="spacingAndGlyphs" textLength="100" x="2561" y="137.5">&lt;&lt;Object Model&gt;&gt;</text><text fill="#000000" font-size="12" font-style="italic" lengthAdjust="spacingAndGlyphs" textLength="77" x="2572.5" y="152.5938">&lt;&lt;100.00%&gt;&gt;</text><text fill="#000000" font-size="12" lengthAdjust="spacingAndGlyphs" textLength="152" x="2535" y="167.6875">NoSuchTransitionException</text><line style="stroke: #2E8B57; stroke-width: 1.5;" x1="2507" x2="2689" y1="175.7813" y2="175.7813"/><line style="stroke: #2E8B57; stroke-width: 1.5;" x1="2507" x2="2689" y1="183.7813" y2="183.7813"/><rect fill="#5F9EA0" filter="url(#f1)" height="71.2813" style="stroke: #2E8B57; stroke-width: 1.5;" width="128" x="2304" y="372.5"/><ellipse cx="2319" cy="400.1406" fill="#ADD1B2" rx="11" ry="11" style="stroke: #2E8B57; stroke-width: 1.0;"/><path d="M2321.7656,401.6719 L2324.1563,402.4219 Q2323.6094,404.4063 2322.3359,405.375 Q2321.0625,406.3438 2319.0938,406.3438 Q2316.6719,406.3438 2315.1172,404.6875 Q2313.5625,403.0313 2313.5625,400.1563 Q2313.5625,397.125 2315.125,395.4453 Q2316.6875,393.7656 2319.25,393.7656 Q2321.4844,393.7656 2322.875,395.0781 Q2323.7031,395.8594 2324.125,397.3281 L2321.6875,397.9063 Q2321.4688,396.9531 2320.7891,396.4063 Q2320.1094,395.8594 2319.125,395.8594 Q2317.7656,395.8594 2316.9297,396.8359 Q2316.0938,397.8125 2316.0938,399.9844 Q2316.0938,402.2813 2316.9219,403.2656 Q2317.75,404.25 2319.0781,404.25 Q2320.0625,404.25 2320.7656,403.625 Q2321.4688,403 2321.7656,401.6719 Z "/><text fill="#000000" font-size="12" font-style="italic" lengthAdjust="spacingAndGlyphs" textLength="100" x="2331" y="389.5">&lt;&lt;Object Model&gt;&gt;</text><text fill="#000000" font-size="12" font-style="italic" lengthAdjust="spacingAndGlyphs" textLength="77" x="2342.5" y="404.5938">&lt;&lt;100.00%&gt;&gt;</text><text fill="#000000" font-size="12" lengthAdjust="spacingAndGlyphs" textLength="92" x="2335" y="419.6875">State_Properties</text><line style="stroke: #2E8B57; stroke-width: 1.5;" x1="2305" x2="2431" y1="427.7813" y2="427.7813"/><line style="stroke: #2E8B57; stroke-width: 1.5;" x1="2305" x2="2431" y1="435.7813" y2="435.7813"/><rect fill="#4682B4" filter="url(#f1)" height="71.2813" style="stroke: #2E8B57; stroke-width: 1.5;" width="130" x="38" y="609.5"/><ellipse cx="53" cy="637.1406" fill="#ADD1B2" rx="11" ry="11" style="stroke: #2E8B57; stroke-width: 1.0;"/><path d="M55.7656,638.6719 L58.1563,639.4219 Q57.6094,641.4063 56.3359,642.375 Q55.0625,643.3438 53.0938,643.3438 Q50.6719,643.3438 49.1172,641.6875 Q47.5625,640.0313 47.5625,637.1563 Q47.5625,634.125 49.125,632.4453 Q50.6875,630.7656 53.25,630.7656 Q55.4844,630.7656 56.875,632.0781 Q57.7031,632.8594 58.125,634.3281 L55.6875,634.9063 Q55.4688,633.9531 54.7891,633.4063 Q54.1094,632.8594 53.125,632.8594 Q51.7656,632.8594 50.9297,633.8359 Q50.0938,634.8125 50.0938,636.9844 Q50.0938,639.2813 50.9219,640.2656 Q51.75,641.25 53.0781,641.25 Q54.0625,641.25 54.7656,640.625 Q55.4688,640 55.7656,638.6719 Z "/><text fill="#000000" font-size="12" font-style="italic" lengthAdjust="spacingAndGlyphs" textLength="102" x="65" y="626.5">&lt;&lt;Network/Web&gt;&gt;</text><text fill="#000000" font-size="12" font-style="italic" lengthAdjust="spacingAndGlyphs" textLength="56" x="88" y="641.5938">&lt;&lt;3.0%&gt;&gt;</text><text fill="#000000" font-size="12" lengthAdjust="spacingAndGlyphs" textLength="85" x="73.5" y="656.6875">HelpFileLoader</text><line style="stroke: #2E8B57; stroke-width: 1.5;" x1="39" x2="167" y1="664.7813" y2="664.7813"/><line style="stroke: #2E8B57; stroke-width: 1.5;" x1="39" x2="167" y1="672.7813" y2="672.7813"/><rect fill="#D8BFD8" filter="url(#f1)" height="71.2813" style="stroke: #2E8B57; stroke-width: 1.5;" width="204" x="2293" y="609.5"/><ellipse cx="2308" cy="637.1406" fill="#ADD1B2" rx="11" ry="11" style="stroke: #2E8B57; stroke-width: 1.0;"/><path d="M2310.7656,638.6719 L2313.1563,639.4219 Q2312.6094,641.4063 2311.3359,642.375 Q2310.0625,643.3438 2308.0938,643.3438 Q2305.6719,643.3438 2304.1172,641.6875 Q2302.5625,640.0313 2302.5625,637.1563 Q2302.5625,634.125 2304.125,632.4453 Q2305.6875,630.7656 2308.25,630.7656 Q2310.4844,630.7656 2311.875,632.0781 Q2312.7031,632.8594 2313.125,634.3281 L2310.6875,634.9063 Q2310.4688,633.9531 2309.7891,633.4063 Q2309.1094,632.8594 2308.125,632.8594 Q2306.7656,632.8594 2305.9297,633.8359 Q2305.0938,634.8125 2305.0938,636.9844 Q2305.0938,639.2813 2305.9219,640.2656 Q2306.75,641.25 2308.0781,641.25 Q2309.0625,641.25 2309.7656,640.625 Q2310.4688,640 2310.7656,638.6719 Z "/><text fill="#000000" font-size="12" font-style="italic" lengthAdjust="spacingAndGlyphs" textLength="105" x="2355.5" y="626.5">&lt;&lt;User Interface&gt;&gt;</text><text fill="#000000" font-size="12" font-style="italic" lengthAdjust="spacingAndGlyphs" textLength="56" x="2380" y="641.5938">&lt;&lt;2.0%&gt;&gt;</text><text fill="#000000" font-size="12" lengthAdjust="spacingAndGlyphs" textLength="172" x="2322" y="656.6875">AutoCompleteComboBoxModel</text><line style="stroke: #2E8B57; stroke-width: 1.5;" x1="2294" x2="2496" y1="664.7813" y2="664.7813"/><line style="stroke: #2E8B57; stroke-width: 1.5;" x1="2294" x2="2496" y1="672.7813" y2="672.7813"/><rect fill="#D8BFD8" filter="url(#f1)" height="71.2813" style="stroke: #2E8B57; stroke-width: 1.5;" width="133" x="2124.5" y="609.5"/><ellipse cx="2139.5" cy="637.1406" fill="#ADD1B2" rx="11" ry="11" style="stroke: #2E8B57; stroke-width: 1.0;"/><path d="M2142.2656,638.6719 L2144.6563,639.4219 Q2144.1094,641.4063 2142.8359,642.375 Q2141.5625,643.3438 2139.5938,643.3438 Q2137.1719,643.3438 2135.6172,641.6875 Q2134.0625,640.0313 2134.0625,637.1563 Q2134.0625,634.125 2135.625,632.4453 Q2137.1875,630.7656 2139.75,630.7656 Q2141.9844,630.7656 2143.375,632.0781 Q2144.2031,632.8594 2144.625,634.3281 L2142.1875,634.9063 Q2141.9688,633.9531 2141.2891,633.4063 Q2140.6094,632.8594 2139.625,632.8594 Q2138.2656,632.8594 2137.4297,633.8359 Q2136.5938,634.8125 2136.5938,636.9844 Q2136.5938,639.2813 2137.4219,640.2656 Q2138.25,641.25 2139.5781,641.25 Q2140.5625,641.25 2141.2656,640.625 Q2141.9688,640 2142.2656,638.6719 Z "/><text fill="#000000" font-size="12" font-style="italic" lengthAdjust="spacingAndGlyphs" textLength="105" x="2151.5" y="626.5">&lt;&lt;User Interface&gt;&gt;</text><text fill="#000000" font-size="12" font-style="italic" lengthAdjust="spacingAndGlyphs" textLength="56" x="2176" y="641.5938">&lt;&lt;4.0%&gt;&gt;</text><text fill="#000000" font-size="12" lengthAdjust="spacingAndGlyphs" textLength="69" x="2169.5" y="656.6875">TouchButton</text><line style="stroke: #2E8B57; stroke-width: 1.5;" x1="2125.5" x2="2256.5" y1="664.7813" y2="664.7813"/><line style="stroke: #2E8B57; stroke-width: 1.5;" x1="2125.5" x2="2256.5" y1="672.7813" y2="672.7813"/><rect fill="#FFF8DC" filter="url(#f1)" height="48" style="stroke: #2E8B57; stroke-width: 1.5;" width="53" x="2725.5" y="132"/><ellipse cx="2740.5" cy="148" fill="#ADD1B2" rx="11" ry="11" style="stroke: #2E8B57; stroke-width: 1.0;"/><path d="M2743.2656,149.5313 L2745.6563,150.2813 Q2745.1094,152.2656 2743.8359,153.2344 Q2742.5625,154.2031 2740.5938,154.2031 Q2738.1719,154.2031 2736.6172,152.5469 Q2735.0625,150.8906 2735.0625,148.0156 Q2735.0625,144.9844 2736.625,143.3047 Q2738.1875,141.625 2740.75,141.625 Q2742.9844,141.625 2744.375,142.9375 Q2745.2031,143.7188 2745.625,145.1875 L2743.1875,145.7656 Q2742.9688,144.8125 2742.2891,144.2656 Q2741.6094,143.7188 2740.625,143.7188 Q2739.2656,143.7188 2738.4297,144.6953 Q2737.5938,145.6719 2737.5938,147.8438 Q2737.5938,150.1406 2738.4219,151.125 Q2739.25,152.1094 2740.5781,152.1094 Q2741.5625,152.1094 2742.2656,151.4844 Q2742.9688,150.8594 2743.2656,149.5313 Z "/><text fill="#000000" font-size="12" lengthAdjust="spacingAndGlyphs" textLength="21" x="2754.5" y="152.4531">htm</text><line style="stroke: #2E8B57; stroke-width: 1.5;" x1="2726.5" x2="2777.5" y1="164" y2="164"/><line style="stroke: #2E8B57; stroke-width: 1.5;" x1="2726.5" x2="2777.5" y1="172" y2="172"/><rect fill="#FFF8DC" filter="url(#f1)" height="48" style="stroke: #2E8B57; stroke-width: 1.5;" width="72" x="2814" y="132"/><ellipse cx="2829" cy="148" fill="#ADD1B2" rx="11" ry="11" style="stroke: #2E8B57; stroke-width: 1.0;"/><path d="M2831.7656,149.5313 L2834.1563,150.2813 Q2833.6094,152.2656 2832.3359,153.2344 Q2831.0625,154.2031 2829.0938,154.2031 Q2826.6719,154.2031 2825.1172,152.5469 Q2823.5625,150.8906 2823.5625,148.0156 Q2823.5625,144.9844 2825.125,143.3047 Q2826.6875,141.625 2829.25,141.625 Q2831.4844,141.625 2832.875,142.9375 Q2833.7031,143.7188 2834.125,145.1875 L2831.6875,145.7656 Q2831.4688,144.8125 2830.7891,144.2656 Q2830.1094,143.7188 2829.125,143.7188 Q2827.7656,143.7188 2826.9297,144.6953 Q2826.0938,145.6719 2826.0938,147.8438 Q2826.0938,150.1406 2826.9219,151.125 Q2827.75,152.1094 2829.0781,152.1094 Q2830.0625,152.1094 2830.7656,151.4844 Q2831.4688,150.8594 2831.7656,149.5313 Z "/><text fill="#000000" font-size="12" lengthAdjust="spacingAndGlyphs" textLength="40" x="2843" y="152.4531">Class1</text><line style="stroke: #2E8B57; stroke-width: 1.5;" x1="2815" x2="2885" y1="164" y2="164"/><line style="stroke: #2E8B57; stroke-width: 1.5;" x1="2815" x2="2885" y1="172" y2="172"/><rect fill="#FFF8DC" filter="url(#f1)" height="48" style="stroke: #2E8B57; stroke-width: 1.5;" width="72" x="2814" y="384"/><ellipse cx="2829" cy="400" fill="#ADD1B2" rx="11" ry="11" style="stroke: #2E8B57; stroke-width: 1.0;"/><path d="M2831.7656,401.5313 L2834.1563,402.2813 Q2833.6094,404.2656 2832.3359,405.2344 Q2831.0625,406.2031 2829.0938,406.2031 Q2826.6719,406.2031 2825.1172,404.5469 Q2823.5625,402.8906 2823.5625,400.0156 Q2823.5625,396.9844 2825.125,395.3047 Q2826.6875,393.625 2829.25,393.625 Q2831.4844,393.625 2832.875,394.9375 Q2833.7031,395.7188 2834.125,397.1875 L2831.6875,397.7656 Q2831.4688,396.8125 2830.7891,396.2656 Q2830.1094,395.7188 2829.125,395.7188 Q2827.7656,395.7188 2826.9297,396.6953 Q2826.0938,397.6719 2826.0938,399.8438 Q2826.0938,402.1406 2826.9219,403.125 Q2827.75,404.1094 2829.0781,404.1094 Q2830.0625,404.1094 2830.7656,403.4844 Q2831.4688,402.8594 2831.7656,401.5313 Z "/><text fill="#000000" font-size="12" lengthAdjust="spacingAndGlyphs" textLength="40" x="2843" y="404.4531">Class2</text><line style="stroke: #2E8B57; stroke-width: 1.5;" x1="2815" x2="2885" y1="416" y2="416"/><line style="stroke: #2E8B57; stroke-width: 1.5;" x1="2815" x2="2885" y1="424" y2="424"/><rect fill="#FFF8DC" filter="url(#f1)" height="48" style="stroke: #2E8B57; stroke-width: 1.5;" width="72" x="2921" y="132"/><ellipse cx="2936" cy="148" fill="#ADD1B2" rx="11" ry="11" style="stroke: #2E8B57; stroke-width: 1.0;"/><path d="M2938.7656,149.5313 L2941.1563,150.2813 Q2940.6094,152.2656 2939.3359,153.2344 Q2938.0625,154.2031 2936.0938,154.2031 Q2933.6719,154.2031 2932.1172,152.5469 Q2930.5625,150.8906 2930.5625,148.0156 Q2930.5625,144.9844 2932.125,143.3047 Q2933.6875,141.625 2936.25,141.625 Q2938.4844,141.625 2939.875,142.9375 Q2940.7031,143.7188 2941.125,145.1875 L2938.6875,145.7656 Q2938.4688,144.8125 2937.7891,144.2656 Q2937.1094,143.7188 2936.125,143.7188 Q2934.7656,143.7188 2933.9297,144.6953 Q2933.0938,145.6719 2933.0938,147.8438 Q2933.0938,150.1406 2933.9219,151.125 Q2934.75,152.1094 2936.0781,152.1094 Q2937.0625,152.1094 2937.7656,151.4844 Q2938.4688,150.8594 2938.7656,149.5313 Z "/><text fill="#000000" font-size="12" lengthAdjust="spacingAndGlyphs" textLength="40" x="2950" y="152.4531">Class3</text><line style="stroke: #2E8B57; stroke-width: 1.5;" x1="2922" x2="2992" y1="164" y2="164"/><line style="stroke: #2E8B57; stroke-width: 1.5;" x1="2922" x2="2992" y1="172" y2="172"/><rect fill="#FFF8DC" filter="url(#f1)" height="48" style="stroke: #2E8B57; stroke-width: 1.5;" width="85" x="2076.5" y="384"/><ellipse cx="2091.5" cy="400" fill="#ADD1B2" rx="11" ry="11" style="stroke: #2E8B57; stroke-width: 1.0;"/><path d="M2094.2656,401.5313 L2096.6563,402.2813 Q2096.1094,404.2656 2094.8359,405.2344 Q2093.5625,406.2031 2091.5938,406.2031 Q2089.1719,406.2031 2087.6172,404.5469 Q2086.0625,402.8906 2086.0625,400.0156 Q2086.0625,396.9844 2087.625,395.3047 Q2089.1875,393.625 2091.75,393.625 Q2093.9844,393.625 2095.375,394.9375 Q2096.2031,395.7188 2096.625,397.1875 L2094.1875,397.7656 Q2093.9688,396.8125 2093.2891,396.2656 Q2092.6094,395.7188 2091.625,395.7188 Q2090.2656,395.7188 2089.4297,396.6953 Q2088.5938,397.6719 2088.5938,399.8438 Q2088.5938,402.1406 2089.4219,403.125 Q2090.25,404.1094 2091.5781,404.1094 Q2092.5625,404.1094 2093.2656,403.4844 Q2093.9688,402.8594 2094.2656,401.5313 Z "/><text fill="#000000" font-size="12" lengthAdjust="spacingAndGlyphs" textLength="53" x="2105.5" y="404.4531">FAPainter</text><line style="stroke: #2E8B57; stroke-width: 1.5;" x1="2077.5" x2="2160.5" y1="416" y2="416"/><line style="stroke: #2E8B57; stroke-width: 1.5;" x1="2077.5" x2="2160.5" y1="424" y2="424"/><path d="M2111.05,432.182 C2102.2,454.334 2085.65,486.82 2060,504 C1938.77,585.206 1504.73,624.466 1313.08,638.148 " fill="none" style="stroke: #A80036; stroke-width: 1.0;"/><polygon fill="#A80036" points="1308.03,638.506,1317.2927,641.8531,1313.0172,638.149,1316.7214,633.8735,1308.03,638.506" style="stroke: #A80036; stroke-width: 1.0;"/><path d="M1021.81,680.538 C1065.89,708.203 1128.64,748.459 1182,786 C1187.9,790.154 1193.95,794.496 1200,798.919 " fill="none" style="stroke: #A80036; stroke-width: 1.0;"/><path d="M1545.93,237.297 C1489.71,373.797 1376.16,649.512 1319.99,785.887 " fill="none" style="stroke: #A80036; stroke-width: 1.0;"/><path d="M1133.82,709.165 C1124.88,715.04 1115.83,720.751 1107,726 C1055.4,756.662 1037.6,755.338 986,786 C971.872,794.395 957.21,803.971 943.293,813.51 " fill="none" style="stroke: #A80036; stroke-width: 1.0;"/><polygon fill="#A80036" points="938.999,816.467,948.6795,814.6539,943.1161,813.6299,944.1401,808.0665,938.999,816.467" style="stroke: #A80036; stroke-width: 1.0;"/><path d="M1515.23,237.344 C1496.57,261.21 1476.28,287.518 1458,312 C1394.55,396.974 1324.23,496.139 1276.8,563.816 " fill="none" style="stroke: #A80036; stroke-width: 1.0;"/><path d="M1133.79,707.716 C1124.78,713.94 1115.73,720.127 1107,726 C1066.19,753.466 1037.54,742.807 1014,786 C979.55,849.223 988.413,880.7 1014,948 C1021.98,968.996 1037,988.305 1052.16,1003.922 " fill="none" style="stroke: #A80036; stroke-width: 1.0;"/><polygon fill="#A80036" points="1056.02,1007.812,1052.5346,998.6005,1052.5038,1004.2572,1046.847,1004.2264,1056.02,1007.812" style="stroke: #A80036; stroke-width: 1.0;"/><path d="M1308.41,716.131 C1335.22,738.133 1364.6,762.753 1391,786 C1406.01,799.221 1422.09,814.142 1436.17,827.486 " fill="none" style="stroke: #A80036; stroke-width: 1.0;"/><polygon fill="#A80036" points="1440.09,831.205,1436.3179,822.1071,1436.4642,827.7621,1430.8093,827.9084,1440.09,831.205" style="stroke: #A80036; stroke-width: 1.0;"/><path d="M994.014,237.295 C1010,261.044 1027.1,287.303 1042,312 C1091.62,394.275 1143.17,491.302 1178.13,559.143 " fill="none" style="stroke: #A80036; stroke-width: 1.0;"/><polygon fill="#A80036" points="1180.61,563.976,1180.0446,554.1434,1178.3204,559.5311,1172.9327,557.8068,1180.61,563.976" style="stroke: #A80036; stroke-width: 1.0;"/><path d="M938,237.133 C938,259.174 938,283.361 938,306.398 " fill="none" style="stroke: #A80036; stroke-width: 1.0;"/><polygon fill="#A80036" points="938,311.604,942,302.604,938,306.604,934,302.604,938,311.604" style="stroke: #A80036; stroke-width: 1.0;"/><path d="M1167.08,252.055 C1179.32,341.074 1197.46,472.898 1209.26,558.633 " fill="none" style="stroke: #A80036; stroke-width: 1.0;"/><polygon fill="#A80036" points="1209.95,563.701,1212.6834,554.239,1209.2672,558.7478,1204.7584,555.3316,1209.95,563.701" style="stroke: #A80036; stroke-width: 1.0;"/><path d="M1071.72,252.227 C1056.1,270.316 1039.7,289.287 1023.96,307.504 " fill="none" style="stroke: #A80036; stroke-width: 1.0;"/><polygon fill="#A80036" points="1020.41,311.623,1029.3193,307.4248,1023.6776,307.8384,1023.264,302.1967,1020.41,311.623" style="stroke: #A80036; stroke-width: 1.0;"/><path d="M1025.12,481.641 C1034.19,489.195 1043.28,496.756 1052,504 C1077.17,524.916 1104.48,547.559 1129.66,568.415 " fill="none" style="stroke: #A80036; stroke-width: 1.0;"/><polygon fill="#A80036" points="1133.68,571.747,1129.3138,562.9188,1129.8342,568.5517,1124.2014,569.0721,1133.68,571.747" style="stroke: #A80036; stroke-width: 1.0;"/><path d="M850.964,415.09 C710.07,427.612 425.854,464.048 208,564 C185.149,574.484 162.601,590.673 144.292,605.753 " fill="none" style="stroke: #A80036; stroke-width: 1.0;"/><polygon fill="#A80036" points="140.213,609.153,149.6877,606.4642,144.0541,605.9521,144.5663,600.3185,140.213,609.153" style="stroke: #A80036; stroke-width: 1.0;"/><path d="M949.348,504.245 C953.515,539.219 958.008,576.924 961.275,604.345 " fill="none" style="stroke: #A80036; stroke-width: 1.0;"/><polygon fill="#A80036" points="961.871,609.343,964.7785,599.9331,961.2797,604.3781,956.8347,600.8792,961.871,609.343" style="stroke: #A80036; stroke-width: 1.0;"/><path d="M607.296,241.45 C612.778,245.251 618.363,248.803 624,252 C704.728,297.776 742.253,268.071 824,312 C831.659,316.116 839.28,320.798 846.74,325.825 " fill="none" style="stroke: #A80036; stroke-width: 1.0;"/><polygon fill="#A80036" points="850.867,328.651,845.7019,320.2652,846.7418,325.8256,841.1813,326.8655,850.867,328.651" style="stroke: #A80036; stroke-width: 1.0;"/><path d="M598.648,252.026 C660.447,331.075 744.425,448.885 796,564 C832.821,646.184 853.901,749.273 864.136,811.271 " fill="none" style="stroke: #A80036; stroke-width: 1.0;"/><polygon fill="#A80036" points="864.974,816.401,867.4713,806.874,864.1682,811.4664,859.5759,808.1633,864.974,816.401" style="stroke: #A80036; stroke-width: 1.0;"/><path d="M398.283,241.473 C403.769,245.268 409.357,248.813 415,252 C554.205,330.628 737.254,372.959 845.783,392.672 " fill="none" style="stroke: #A80036; stroke-width: 1.0;"/><polygon fill="#A80036" points="850.894,393.594,842.7464,388.0608,845.9733,392.707,841.3271,395.9339,850.894,393.594" style="stroke: #A80036; stroke-width: 1.0;"/><path d="M335.505,252.149 C385.055,423.411 514.553,781.23 767,948 C846.494,1000.515 955.346,1024.271 1026.16,1034.722 " fill="none" style="stroke: #A80036; stroke-width: 1.0;"/><polygon fill="#A80036" points="1031.19,1035.451,1022.8686,1030.1827,1026.2433,1034.7227,1021.7034,1038.0974,1031.19,1035.451" style="stroke: #A80036; stroke-width: 1.0;"/><path d="M1282.92,240.31 C1277.03,244.506 1271.04,248.446 1265,252 C1193.78,293.921 1163.59,276.421 1089,312 C1069.12,321.483 1048.63,333.029 1029.4,344.761 " fill="none" style="stroke: #A80036; stroke-width: 1.0;"/><polygon fill="#A80036" points="1025.06,347.425,1034.8231,346.1283,1029.3219,344.8104,1030.6398,339.3092,1025.06,347.425" style="stroke: #A80036; stroke-width: 1.0;"/><path d="M1384.24,252.251 C1407.75,409.505 1453.71,716.913 1470.06,826.238 " fill="none" style="stroke: #A80036; stroke-width: 1.0;"/><polygon fill="#A80036" points="1470.81,831.293,1473.4334,821.8,1470.0697,826.3481,1465.5215,822.9844,1470.81,831.293" style="stroke: #A80036; stroke-width: 1.0;"/><path d="M808.61,252.227 C823.732,270.316 839.592,289.287 854.821,307.504 " fill="none" style="stroke: #A80036; stroke-width: 1.0;"/><polygon fill="#A80036" points="858.265,311.623,855.5606,302.1527,855.0578,307.7872,849.4233,307.2843,858.265,311.623" style="stroke: #A80036; stroke-width: 1.0;"/><path d="M936.158,917.538 C972.023,945.23 1016.02,979.198 1049.08,1004.726 " fill="none" style="stroke: #A80036; stroke-width: 1.0;"/><polygon fill="#A80036" points="1053.05,1007.796,1048.3718,999.1291,1049.0927,1004.7399,1043.482,1005.4608,1053.05,1007.796" style="stroke: #A80036; stroke-width: 1.0;"/><path d="M1499.22,237.161 C1491.11,242.798 1482.65,247.873 1474,252 C1317.69,326.548 1251.19,251.305 1089,312 C1068.94,319.505 1048.71,329.886 1029.85,341.042 " fill="none" style="stroke: #A80036; stroke-width: 1.0;"/><polygon fill="#A80036" points="1025.09,343.893,1034.8659,342.6968,1029.3786,341.3224,1030.753,335.8351,1025.09,343.893" style="stroke: #A80036; stroke-width: 1.0;"/><path d="M1495.78,237.151 C1488.65,242.496 1481.35,247.524 1474,252 C1409.14,291.509 1375.29,267.146 1314,312 C1199.06,396.122 1187.57,440.848 1116,564 C1076.94,631.22 1096.78,663.901 1050,726 C1034.51,746.569 988.258,782.747 946.788,813.173 " fill="none" style="stroke: #A80036; stroke-width: 1.0;"/><polygon fill="#A80036" points="942.534,816.287,952.159,814.1991,946.5687,813.3338,947.4339,807.7435,942.534,816.287" style="stroke: #A80036; stroke-width: 1.0;"/><path d="M1606.1,237.139 C1653.52,393.83 1731.19,743.318 1560,948 C1510.9,1006.709 1287.08,1030.069 1169.95,1038.398 " fill="none" style="stroke: #A80036; stroke-width: 1.0;"/><polygon fill="#A80036" points="1164.8,1038.76,1174.0627,1042.1071,1169.7872,1038.403,1173.4914,1034.1275,1164.8,1038.76" style="stroke: #A80036; stroke-width: 1.0;"/><path d="M1657.19,237.052 C1665.46,242.795 1674.11,247.92 1683,252 C1783.91,298.313 2103.87,230.256 2179,312 C2252.85,392.347 2224.09,535.286 2204.06,604.402 " fill="none" style="stroke: #A80036; stroke-width: 1.0;"/><polygon fill="#A80036" points="2202.63,609.249,2209.0044,601.7412,2204.0392,604.4517,2201.3287,599.4865,2202.63,609.249" style="stroke: #A80036; stroke-width: 1.0;"/><path d="M1567.33,237.297 C1545.27,389.151 1498.18,713.303 1481.78,826.222 " fill="none" style="stroke: #A80036; stroke-width: 1.0;"/><polygon fill="#A80036" points="1481.02,831.438,1486.2732,823.1071,1481.7393,826.49,1478.3564,821.9562,1481.02,831.438" style="stroke: #A80036; stroke-width: 1.0;"/><path d="M732.62,695.647 C760.918,730.233 798.648,776.348 827.716,811.875 " fill="none" style="stroke: #A80036; stroke-width: 1.0;"/><polygon fill="#A80036" points="831.217,816.154,828.6146,806.6552,828.0512,812.2839,822.4225,811.7205,831.217,816.154" style="stroke: #A80036; stroke-width: 1.0;"/><path d="M1087.56,902.893 C1084.64,931.758 1084.49,972.754 1087.11,1002.855 " fill="none" style="stroke: #A80036; stroke-width: 1.0;"/><polygon fill="#A80036" points="1087.6,1007.965,1090.735,998.6284,1087.1293,1002.9872,1082.7705,999.3815,1087.6,1007.965" style="stroke: #A80036; stroke-width: 1.0;"/><path d="M1098,1079.118 C1098,1096.391 1098,1117.032 1098,1133.3943 " fill="none" style="stroke: #A80036; stroke-width: 1.0;"/><polygon fill="#A80036" points="1098,1138.7682,1102,1129.7682,1098,1133.7682,1094,1129.7682,1098,1138.7682" style="stroke: #A80036; stroke-width: 1.0;"/><path d="M2142.56,680.615 C2118.66,696.362 2088.82,714.095 2060,726 C1883.57,798.888 1660.78,839.129 1548.19,856.138 " fill="none" style="stroke: #A80036; stroke-width: 1.0;"/><polygon fill="#A80036" points="1542.91,856.93,1552.4044,859.5484,1547.8545,856.1871,1551.2158,851.6372,1542.91,856.93" style="stroke: #A80036; stroke-width: 1.0;"/><path d="M1445.7,902.882 C1430.59,918.498 1411.24,936.044 1391,948 C1321.28,989.18 1231.48,1014.715 1169.77,1028.7 " fill="none" style="stroke: #A80036; stroke-width: 1.0;"/><polygon fill="#A80036" points="1164.63,1029.853,1174.284,1031.8024,1169.5106,1028.7668,1172.5461,1023.9934,1164.63,1029.853" style="stroke: #A80036; stroke-width: 1.0;"/><path d="M1109.05,902.893 C1111.66,927.225 1112.19,960.178 1110.62,987.958 " fill="none" style="stroke: #A80036; stroke-width: 1.0;"/><polygon fill="none" points="1117.59,988.589,1109.01,1007.965,1103.64,987.469,1117.59,988.589" style="stroke: #A80036; stroke-width: 1.0;"/><path d="M2850,180.07 C2850,221.837 2850,310.578 2850,363.872 " fill="none" style="stroke: #A80036; stroke-width: 1.0;"/><polygon fill="none" points="2857,363.985,2850,383.984,2843,363.984,2857,363.985" style="stroke: #A80036; stroke-width: 1.0;"/></g></svg>