<?xml version="1.0" encoding="UTF-8" standalone="yes"?><svg xmlns="http://www.w3.org/2000/svg" xmlns:xlink="http://www.w3.org/1999/xlink" height="1031pt" style="width:726px;height:1031px;" version="1.1" viewBox="0 0 726 1031" width="726pt"><defs><filter height="300%" id="f1" width="300%" x="-1" y="-1"><feGaussianBlur result="blurOut" stdDeviation="2"/><feColorMatrix in="blurOut" result="blurOut2" type="matrix" values="0 0 0 0 0 0 0 0 0 0 0 0 0 0 0 0 0 0 .4 0"/><feOffset dx="4" dy="4" in="blurOut2" result="blurOut3"/><feBlend in="SourceGraphic" in2="blurOut3" mode="normal"/></filter></defs><g><rect fill="#FFF8DC" filter="url(#f1)" height="48" style="stroke: #2E8B57; stroke-width: 1.5;" width="106" x="6" y="437"/><ellipse cx="21" cy="453" fill="#ADD1B2" rx="11" ry="11" style="stroke: #2E8B57; stroke-width: 1.0;"/><path d="M23.7656,454.5313 L26.1563,455.2813 Q25.6094,457.2656 24.3359,458.2344 Q23.0625,459.2031 21.0938,459.2031 Q18.6719,459.2031 17.1172,457.5469 Q15.5625,455.8906 15.5625,453.0156 Q15.5625,449.9844 17.125,448.3047 Q18.6875,446.625 21.25,446.625 Q23.4844,446.625 24.875,447.9375 Q25.7031,448.7188 26.125,450.1875 L23.6875,450.7656 Q23.4688,449.8125 22.7891,449.2656 Q22.1094,448.7188 21.125,448.7188 Q19.7656,448.7188 18.9297,449.6953 Q18.0938,450.6719 18.0938,452.8438 Q18.0938,455.1406 18.9219,456.125 Q19.75,457.1094 21.0781,457.1094 Q22.0625,457.1094 22.7656,456.4844 Q23.4688,455.8594 23.7656,454.5313 Z "/><text fill="#000000" font-size="12" lengthAdjust="spacingAndGlyphs" textLength="74" x="35" y="457.4531">EARootClass</text><line style="stroke: #2E8B57; stroke-width: 1.5;" x1="7" x2="111" y1="469" y2="469"/><line style="stroke: #2E8B57; stroke-width: 1.5;" x1="7" x2="111" y1="477" y2="477"/><rect fill="#FFF8DC" filter="url(#f1)" height="48" style="stroke: #2E8B57; stroke-width: 1.5;" width="72" x="521" y="437"/><ellipse cx="536" cy="453" fill="#ADD1B2" rx="11" ry="11" style="stroke: #2E8B57; stroke-width: 1.0;"/><path d="M538.7656,454.5313 L541.1563,455.2813 Q540.6094,457.2656 539.3359,458.2344 Q538.0625,459.2031 536.0938,459.2031 Q533.6719,459.2031 532.1172,457.5469 Q530.5625,455.8906 530.5625,453.0156 Q530.5625,449.9844 532.125,448.3047 Q533.6875,446.625 536.25,446.625 Q538.4844,446.625 539.875,447.9375 Q540.7031,448.7188 541.125,450.1875 L538.6875,450.7656 Q538.4688,449.8125 537.7891,449.2656 Q537.1094,448.7188 536.125,448.7188 Q534.7656,448.7188 533.9297,449.6953 Q533.0938,450.6719 533.0938,452.8438 Q533.0938,455.1406 533.9219,456.125 Q534.75,457.1094 536.0781,457.1094 Q537.0625,457.1094 537.7656,456.4844 Q538.4688,455.8594 538.7656,454.5313 Z "/><text fill="#000000" font-size="12" lengthAdjust="spacingAndGlyphs" textLength="40" x="550" y="457.4531">Class1</text><line style="stroke: #2E8B57; stroke-width: 1.5;" x1="522" x2="592" y1="469" y2="469"/><line style="stroke: #2E8B57; stroke-width: 1.5;" x1="522" x2="592" y1="477" y2="477"/><rect fill="#FFF8DC" filter="url(#f1)" height="48" style="stroke: #2E8B57; stroke-width: 1.5;" width="72" x="467" y="974"/><ellipse cx="482" cy="990" fill="#ADD1B2" rx="11" ry="11" style="stroke: #2E8B57; stroke-width: 1.0;"/><path d="M484.7656,991.5313 L487.1563,992.2813 Q486.6094,994.2656 485.3359,995.2344 Q484.0625,996.2031 482.0938,996.2031 Q479.6719,996.2031 478.1172,994.5469 Q476.5625,992.8906 476.5625,990.0156 Q476.5625,986.9844 478.125,985.3047 Q479.6875,983.625 482.25,983.625 Q484.4844,983.625 485.875,984.9375 Q486.7031,985.7188 487.125,987.1875 L484.6875,987.7656 Q484.4688,986.8125 483.7891,986.2656 Q483.1094,985.7188 482.125,985.7188 Q480.7656,985.7188 479.9297,986.6953 Q479.0938,987.6719 479.0938,989.8438 Q479.0938,992.1406 479.9219,993.125 Q480.75,994.1094 482.0781,994.1094 Q483.0625,994.1094 483.7656,993.4844 Q484.4688,992.8594 484.7656,991.5313 Z "/><text fill="#000000" font-size="12" lengthAdjust="spacingAndGlyphs" textLength="40" x="496" y="994.4531">Class3</text><line style="stroke: #2E8B57; stroke-width: 1.5;" x1="468" x2="538" y1="1006" y2="1006"/><line style="stroke: #2E8B57; stroke-width: 1.5;" x1="468" x2="538" y1="1014" y2="1014"/><rect fill="#FFF8DC" filter="url(#f1)" height="48" style="stroke: #2E8B57; stroke-width: 1.5;" width="72" x="574" y="974"/><ellipse cx="589" cy="990" fill="#ADD1B2" rx="11" ry="11" style="stroke: #2E8B57; stroke-width: 1.0;"/><path d="M591.7656,991.5313 L594.1563,992.2813 Q593.6094,994.2656 592.3359,995.2344 Q591.0625,996.2031 589.0938,996.2031 Q586.6719,996.2031 585.1172,994.5469 Q583.5625,992.8906 583.5625,990.0156 Q583.5625,986.9844 585.125,985.3047 Q586.6875,983.625 589.25,983.625 Q591.4844,983.625 592.875,984.9375 Q593.7031,985.7188 594.125,987.1875 L591.6875,987.7656 Q591.4688,986.8125 590.7891,986.2656 Q590.1094,985.7188 589.125,985.7188 Q587.7656,985.7188 586.9297,986.6953 Q586.0938,987.6719 586.0938,989.8438 Q586.0938,992.1406 586.9219,993.125 Q587.75,994.1094 589.0781,994.1094 Q590.0625,994.1094 590.7656,993.4844 Q591.4688,992.8594 591.7656,991.5313 Z "/><text fill="#000000" font-size="12" lengthAdjust="spacingAndGlyphs" textLength="40" x="603" y="994.4531">Class2</text><line style="stroke: #2E8B57; stroke-width: 1.5;" x1="575" x2="645" y1="1006" y2="1006"/><line style="stroke: #2E8B57; stroke-width: 1.5;" x1="575" x2="645" y1="1014" y2="1014"/><rect fill="#FFF8DC" filter="url(#f1)" height="698.2891" style="stroke: #2E8B57; stroke-width: 1.5;" width="160" x="147" y="112"/><ellipse cx="184.05" cy="128" fill="#ADD1B2" rx="11" ry="11" style="stroke: #2E8B57; stroke-width: 1.0;"/><path d="M186.8156,129.5313 L189.2063,130.2813 Q188.6594,132.2656 187.3859,133.2344 Q186.1125,134.2031 184.1438,134.2031 Q181.7219,134.2031 180.1672,132.5469 Q178.6125,130.8906 178.6125,128.0156 Q178.6125,124.9844 180.175,123.3047 Q181.7375,121.625 184.3,121.625 Q186.5344,121.625 187.925,122.9375 Q188.7531,123.7188 189.175,125.1875 L186.7375,125.7656 Q186.5188,124.8125 185.8391,124.2656 Q185.1594,123.7188 184.175,123.7188 Q182.8156,123.7188 181.9797,124.6953 Q181.1438,125.6719 181.1438,127.8438 Q181.1438,130.1406 181.9719,131.125 Q182.8,132.1094 184.1281,132.1094 Q185.1125,132.1094 185.8156,131.4844 Q186.5188,130.8594 186.8156,129.5313 Z "/><text fill="#000000" font-size="12" lengthAdjust="spacingAndGlyphs" textLength="79" x="202.95" y="132.4531">Administration</text><line style="stroke: #2E8B57; stroke-width: 1.5;" x1="148" x2="306" y1="144" y2="144"/><text fill="#000000" font-size="11" lengthAdjust="spacingAndGlyphs" textLength="86" x="153" y="159">AREA_DETECTED</text><text fill="#000000" font-size="11" lengthAdjust="spacingAndGlyphs" textLength="110" x="153" y="172.8359">AREA_START_VALUE</text><text fill="#000000" font-size="11" lengthAdjust="spacingAndGlyphs" textLength="37" x="153" y="186.6719">dataFile</text><text fill="#000000" font-size="11" lengthAdjust="spacingAndGlyphs" textLength="95" x="153" y="200.5078">DETECTION_PHASE</text><text fill="#000000" font-size="11" lengthAdjust="spacingAndGlyphs" textLength="79" x="153" y="214.3438">EXISTS_SIGNAL</text><text fill="#000000" font-size="11" lengthAdjust="spacingAndGlyphs" textLength="55" x="153" y="228.1797">fileHandling</text><text fill="#000000" font-size="11" lengthAdjust="spacingAndGlyphs" textLength="41" x="153" y="242.0156">instance</text><text fill="#000000" font-size="11" lengthAdjust="spacingAndGlyphs" textLength="40" x="153" y="255.8516">INVALID</text><text fill="#000000" font-size="11" lengthAdjust="spacingAndGlyphs" textLength="62" x="153" y="269.6875">processFiles</text><text fill="#000000" font-size="11" lengthAdjust="spacingAndGlyphs" textLength="121" x="153" y="283.5234">RECORD_AREA_ACTION</text><text fill="#000000" font-size="11" lengthAdjust="spacingAndGlyphs" textLength="141" x="153" y="297.3594">RECORD_AREA_SERVICE_ID</text><text fill="#000000" font-size="11" lengthAdjust="spacingAndGlyphs" textLength="82" x="153" y="311.1953">recordAreaIntent</text><text fill="#000000" font-size="11" lengthAdjust="spacingAndGlyphs" textLength="128" x="153" y="325.0313">REGISTER_AREA_ACTION</text><text fill="#000000" font-size="11" lengthAdjust="spacingAndGlyphs" textLength="148" x="153" y="338.8672">REGISTER_AREA_SERVICE_ID</text><text fill="#000000" font-size="11" lengthAdjust="spacingAndGlyphs" textLength="87" x="153" y="352.7031">registerAreaIntent</text><text fill="#000000" font-size="11" lengthAdjust="spacingAndGlyphs" textLength="96" x="153" y="366.5391">registerAreaStarted</text><text fill="#000000" font-size="11" lengthAdjust="spacingAndGlyphs" textLength="113" x="153" y="380.375">REGISTERING_PAUSED</text><text fill="#000000" font-size="11" lengthAdjust="spacingAndGlyphs" textLength="85" x="153" y="394.2109">STREET_DRIVING</text><text fill="#000000" font-size="11" lengthAdjust="spacingAndGlyphs" textLength="44" x="153" y="408.0469">TURNING</text><text fill="#000000" font-size="11" lengthAdjust="spacingAndGlyphs" textLength="97" x="153" y="421.8828">WAITING_FOR_GPS</text><text fill="#000000" font-size="11" lengthAdjust="spacingAndGlyphs" textLength="85" x="153" y="435.7188">winetrackAreaDir</text><text fill="#000000" font-size="11" lengthAdjust="spacingAndGlyphs" textLength="83" x="153" y="449.5547">winetrackMainDir</text><text fill="#000000" font-size="11" lengthAdjust="spacingAndGlyphs" textLength="101" x="153" y="463.3906">winetrackProcessDir</text><line style="stroke: #2E8B57; stroke-width: 1.5;" x1="148" x2="306" y1="470.2266" y2="470.2266"/><text fill="#000000" font-size="11" lengthAdjust="spacingAndGlyphs" textLength="76" x="153" y="485.2266">Administration()</text><text fill="#000000" font-size="11" lengthAdjust="spacingAndGlyphs" textLength="61" x="153" y="499.0625">deleteArea()</text><text fill="#000000" font-size="11" lengthAdjust="spacingAndGlyphs" textLength="77" x="153" y="512.8984">deleteProcess()</text><text fill="#000000" font-size="11" lengthAdjust="spacingAndGlyphs" textLength="45" x="153" y="526.7344">getData()</text><text fill="#000000" font-size="11" lengthAdjust="spacingAndGlyphs" textLength="61" x="153" y="540.5703">getDataFile()</text><text fill="#000000" font-size="11" lengthAdjust="spacingAndGlyphs" textLength="80" x="153" y="554.4063">getFileHandling()</text><text fill="#000000" font-size="11" lengthAdjust="spacingAndGlyphs" textLength="85" x="153" y="568.2422">getProcessFiles()</text><text fill="#000000" font-size="11" lengthAdjust="spacingAndGlyphs" textLength="108" x="153" y="582.0781">getRecordAreaIntent()</text><text fill="#000000" font-size="11" lengthAdjust="spacingAndGlyphs" textLength="113" x="153" y="595.9141">getRegisterAreaIntent()</text><text fill="#000000" font-size="11" lengthAdjust="spacingAndGlyphs" textLength="108" x="153" y="609.75">getWinetrackAreaDir()</text><text fill="#000000" font-size="11" lengthAdjust="spacingAndGlyphs" textLength="106" x="153" y="623.5859">getWinetrackMainDir()</text><text fill="#000000" font-size="11" lengthAdjust="spacingAndGlyphs" textLength="124" x="153" y="637.4219">getWinetrackProcessDir()</text><text fill="#000000" font-size="11" lengthAdjust="spacingAndGlyphs" textLength="49" x="153" y="651.2578">instance()</text><text fill="#000000" font-size="11" lengthAdjust="spacingAndGlyphs" textLength="115" x="153" y="665.0938">isRegisterAreaStarted()</text><text fill="#000000" font-size="11" lengthAdjust="spacingAndGlyphs" textLength="60" x="153" y="678.9297">readAreas()</text><text fill="#000000" font-size="11" lengthAdjust="spacingAndGlyphs" textLength="52" x="153" y="692.7656">readData()</text><text fill="#000000" font-size="11" lengthAdjust="spacingAndGlyphs" textLength="52" x="153" y="706.6016">readFiles()</text><text fill="#000000" font-size="11" lengthAdjust="spacingAndGlyphs" textLength="55" x="153" y="720.4375">readWork()</text><text fill="#000000" font-size="11" lengthAdjust="spacingAndGlyphs" textLength="108" x="153" y="734.2734">setRecordAreaIntent()</text><text fill="#000000" font-size="11" lengthAdjust="spacingAndGlyphs" textLength="113" x="153" y="748.1094">setRegisterAreaIntent()</text><text fill="#000000" font-size="11" lengthAdjust="spacingAndGlyphs" textLength="122" x="153" y="761.9453">setRegisterAreaStarted()</text><text fill="#000000" font-size="11" lengthAdjust="spacingAndGlyphs" textLength="73" x="153" y="775.7813">writeAreaFile()</text><text fill="#000000" font-size="11" lengthAdjust="spacingAndGlyphs" textLength="55" x="153" y="789.6172">writeData()</text><text fill="#000000" font-size="11" lengthAdjust="spacingAndGlyphs" textLength="89" x="153" y="803.4531">writeProcessFile()</text><rect fill="#FFF8DC" filter="url(#f1)" height="297.0469" style="stroke: #2E8B57; stroke-width: 1.5;" width="89" x="628.5" y="312.5"/><ellipse cx="657.9" cy="328.5" fill="#ADD1B2" rx="11" ry="11" style="stroke: #2E8B57; stroke-width: 1.0;"/><path d="M660.6656,330.0313 L663.0563,330.7813 Q662.5094,332.7656 661.2359,333.7344 Q659.9625,334.7031 657.9938,334.7031 Q655.5719,334.7031 654.0172,333.0469 Q652.4625,331.3906 652.4625,328.5156 Q652.4625,325.4844 654.025,323.8047 Q655.5875,322.125 658.15,322.125 Q660.3844,322.125 661.775,323.4375 Q662.6031,324.2188 663.025,325.6875 L660.5875,326.2656 Q660.3688,325.3125 659.6891,324.7656 Q659.0094,324.2188 658.025,324.2188 Q656.6656,324.2188 655.8297,325.1953 Q654.9938,326.1719 654.9938,328.3438 Q654.9938,330.6406 655.8219,331.625 Q656.65,332.6094 657.9781,332.6094 Q658.9625,332.6094 659.6656,331.9844 Q660.3688,331.3594 660.6656,330.0313 Z "/><text fill="#000000" font-size="12" lengthAdjust="spacingAndGlyphs" textLength="25" x="675.1" y="332.9531">Area</text><line style="stroke: #2E8B57; stroke-width: 1.5;" x1="629.5" x2="716.5" y1="344.5" y2="344.5"/><text fill="#000000" font-size="11" lengthAdjust="spacingAndGlyphs" textLength="14" x="634.5" y="359.5">aId</text><text fill="#000000" font-size="11" lengthAdjust="spacingAndGlyphs" textLength="53" x="634.5" y="373.3359">description</text><text fill="#000000" font-size="11" lengthAdjust="spacingAndGlyphs" textLength="46" x="634.5" y="387.1719">latLonList</text><text fill="#000000" font-size="11" lengthAdjust="spacingAndGlyphs" textLength="20" x="634.5" y="401.0078">poly</text><text fill="#000000" font-size="11" lengthAdjust="spacingAndGlyphs" textLength="20" x="634.5" y="414.8438">size</text><text fill="#000000" font-size="11" lengthAdjust="spacingAndGlyphs" textLength="29" x="634.5" y="428.6797">xyList</text><line style="stroke: #2E8B57; stroke-width: 1.5;" x1="629.5" x2="716.5" y1="435.5156" y2="435.5156"/><text fill="#000000" font-size="11" lengthAdjust="spacingAndGlyphs" textLength="32" x="634.5" y="450.5156">Area()</text><text fill="#000000" font-size="11" lengthAdjust="spacingAndGlyphs" textLength="45" x="634.5" y="464.3516">convert()</text><text fill="#000000" font-size="11" lengthAdjust="spacingAndGlyphs" textLength="39" x="634.5" y="478.1875">getAId()</text><text fill="#000000" font-size="11" lengthAdjust="spacingAndGlyphs" textLength="35" x="634.5" y="492.0234">getAr()</text><text fill="#000000" font-size="11" lengthAdjust="spacingAndGlyphs" textLength="77" x="634.5" y="505.8594">getDescription()</text><text fill="#000000" font-size="11" lengthAdjust="spacingAndGlyphs" textLength="36" x="634.5" y="519.6953">getHa()</text><text fill="#000000" font-size="11" lengthAdjust="spacingAndGlyphs" textLength="73" x="634.5" y="533.5313">getLatLonList()</text><text fill="#000000" font-size="11" lengthAdjust="spacingAndGlyphs" textLength="43" x="634.5" y="547.3672">getPoly()</text><text fill="#000000" font-size="11" lengthAdjust="spacingAndGlyphs" textLength="39" x="634.5" y="561.2031">getQm()</text><text fill="#000000" font-size="11" lengthAdjust="spacingAndGlyphs" textLength="44" x="634.5" y="575.0391">getSize()</text><text fill="#000000" font-size="11" lengthAdjust="spacingAndGlyphs" textLength="53" x="634.5" y="588.875">getXyList()</text><text fill="#000000" font-size="11" lengthAdjust="spacingAndGlyphs" textLength="39" x="634.5" y="602.7109">setAId()</text><rect fill="#FFF8DC" filter="url(#f1)" height="905.8281" style="stroke: #2E8B57; stroke-width: 1.5;" width="143" x="342.5" y="8"/><ellipse cx="396.75" cy="24" fill="#ADD1B2" rx="11" ry="11" style="stroke: #2E8B57; stroke-width: 1.0;"/><path d="M399.5156,25.5313 L401.9063,26.2813 Q401.3594,28.2656 400.0859,29.2344 Q398.8125,30.2031 396.8438,30.2031 Q394.4219,30.2031 392.8672,28.5469 Q391.3125,26.8906 391.3125,24.0156 Q391.3125,20.9844 392.875,19.3047 Q394.4375,17.625 397,17.625 Q399.2344,17.625 400.625,18.9375 Q401.4531,19.7188 401.875,21.1875 L399.4375,21.7656 Q399.2188,20.8125 398.5391,20.2656 Q397.8594,19.7188 396.875,19.7188 Q395.5156,19.7188 394.6797,20.6953 Q393.8438,21.6719 393.8438,23.8438 Q393.8438,26.1406 394.6719,27.125 Q395.5,28.1094 396.8281,28.1094 Q397.8125,28.1094 398.5156,27.4844 Q399.2188,26.8594 399.5156,25.5313 Z "/><text fill="#000000" font-size="12" lengthAdjust="spacingAndGlyphs" textLength="26" x="417.25" y="28.4531">Data</text><line style="stroke: #2E8B57; stroke-width: 1.5;" x1="343.5" x2="484.5" y1="40" y2="40"/><text fill="#000000" font-size="11" lengthAdjust="spacingAndGlyphs" textLength="40" x="348.5" y="55">address</text><text fill="#000000" font-size="11" lengthAdjust="spacingAndGlyphs" textLength="47" x="348.5" y="68.8359">areaCode</text><text fill="#000000" font-size="11" lengthAdjust="spacingAndGlyphs" textLength="46" x="348.5" y="82.6719">areaIdSet</text><text fill="#000000" font-size="11" lengthAdjust="spacingAndGlyphs" textLength="39" x="348.5" y="96.5078">areaList</text><text fill="#000000" font-size="11" lengthAdjust="spacingAndGlyphs" textLength="42" x="348.5" y="110.3438">areaMap</text><text fill="#000000" font-size="11" lengthAdjust="spacingAndGlyphs" textLength="17" x="348.5" y="124.1797">city</text><text fill="#000000" font-size="11" lengthAdjust="spacingAndGlyphs" textLength="53" x="348.5" y="138.0156">description</text><text fill="#000000" font-size="11" lengthAdjust="spacingAndGlyphs" textLength="52" x="348.5" y="151.8516">driverIdSet</text><text fill="#000000" font-size="11" lengthAdjust="spacingAndGlyphs" textLength="45" x="348.5" y="165.6875">driverList</text><text fill="#000000" font-size="11" lengthAdjust="spacingAndGlyphs" textLength="48" x="348.5" y="179.5234">driverMap</text><text fill="#000000" font-size="11" lengthAdjust="spacingAndGlyphs" textLength="41" x="348.5" y="193.3594">instance</text><text fill="#000000" font-size="11" lengthAdjust="spacingAndGlyphs" textLength="53" x="348.5" y="207.1953">licenseKey</text><text fill="#000000" font-size="11" lengthAdjust="spacingAndGlyphs" textLength="32" x="348.5" y="221.0313">owner</text><text fill="#000000" font-size="11" lengthAdjust="spacingAndGlyphs" textLength="108" x="348.5" y="234.8672">processDefinitionIdSet</text><text fill="#000000" font-size="11" lengthAdjust="spacingAndGlyphs" textLength="101" x="348.5" y="248.7031">processDefinitionList</text><text fill="#000000" font-size="11" lengthAdjust="spacingAndGlyphs" textLength="104" x="348.5" y="262.5391">processDefinitionMap</text><text fill="#000000" font-size="11" lengthAdjust="spacingAndGlyphs" textLength="64" x="348.5" y="276.375">processIdSet</text><text fill="#000000" font-size="11" lengthAdjust="spacingAndGlyphs" textLength="57" x="348.5" y="290.2109">processList</text><text fill="#000000" font-size="11" lengthAdjust="spacingAndGlyphs" textLength="60" x="348.5" y="304.0469">processMap</text><text fill="#000000" font-size="11" lengthAdjust="spacingAndGlyphs" textLength="58" x="348.5" y="317.8828">vehicleIdSet</text><text fill="#000000" font-size="11" lengthAdjust="spacingAndGlyphs" textLength="51" x="348.5" y="331.7188">vehicleList</text><text fill="#000000" font-size="11" lengthAdjust="spacingAndGlyphs" textLength="54" x="348.5" y="345.5547">vehicleMap</text><line style="stroke: #2E8B57; stroke-width: 1.5;" x1="343.5" x2="484.5" y1="352.3906" y2="352.3906"/><text fill="#000000" font-size="11" lengthAdjust="spacingAndGlyphs" textLength="50" x="348.5" y="367.3906">addArea()</text><text fill="#000000" font-size="11" lengthAdjust="spacingAndGlyphs" textLength="48" x="348.5" y="381.2266">addData()</text><text fill="#000000" font-size="11" lengthAdjust="spacingAndGlyphs" textLength="55" x="348.5" y="395.0625">addDriver()</text><text fill="#000000" font-size="11" lengthAdjust="spacingAndGlyphs" textLength="66" x="348.5" y="408.8984">addProcess()</text><text fill="#000000" font-size="11" lengthAdjust="spacingAndGlyphs" textLength="110" x="348.5" y="422.7344">addProcessDefinition()</text><text fill="#000000" font-size="11" lengthAdjust="spacingAndGlyphs" textLength="62" x="348.5" y="436.5703">addVehicle()</text><text fill="#000000" font-size="11" lengthAdjust="spacingAndGlyphs" textLength="54" x="348.5" y="450.4063">clearData()</text><text fill="#000000" font-size="11" lengthAdjust="spacingAndGlyphs" textLength="30" x="348.5" y="464.2422">Data()</text><text fill="#000000" font-size="11" lengthAdjust="spacingAndGlyphs" textLength="61" x="348.5" y="478.0781">deleteArea()</text><text fill="#000000" font-size="11" lengthAdjust="spacingAndGlyphs" textLength="66" x="348.5" y="491.9141">deleteDriver()</text><text fill="#000000" font-size="11" lengthAdjust="spacingAndGlyphs" textLength="77" x="348.5" y="505.75">deleteProcess()</text><text fill="#000000" font-size="11" lengthAdjust="spacingAndGlyphs" textLength="121" x="348.5" y="519.5859">deleteProcessDefinition()</text><text fill="#000000" font-size="11" lengthAdjust="spacingAndGlyphs" textLength="73" x="348.5" y="533.4219">deleteVehicle()</text><text fill="#000000" font-size="11" lengthAdjust="spacingAndGlyphs" textLength="65" x="348.5" y="547.2578">getAddress()</text><text fill="#000000" font-size="11" lengthAdjust="spacingAndGlyphs" textLength="72" x="348.5" y="561.0938">getAreaCode()</text><text fill="#000000" font-size="11" lengthAdjust="spacingAndGlyphs" textLength="71" x="348.5" y="574.9297">getAreaIdSet()</text><text fill="#000000" font-size="11" lengthAdjust="spacingAndGlyphs" textLength="64" x="348.5" y="588.7656">getAreaList()</text><text fill="#000000" font-size="11" lengthAdjust="spacingAndGlyphs" textLength="67" x="348.5" y="602.6016">getAreaMap()</text><text fill="#000000" font-size="11" lengthAdjust="spacingAndGlyphs" textLength="41" x="348.5" y="616.4375">getCity()</text><text fill="#000000" font-size="11" lengthAdjust="spacingAndGlyphs" textLength="77" x="348.5" y="630.2734">getDescription()</text><text fill="#000000" font-size="11" lengthAdjust="spacingAndGlyphs" textLength="76" x="348.5" y="644.1094">getDriverIdSet()</text><text fill="#000000" font-size="11" lengthAdjust="spacingAndGlyphs" textLength="69" x="348.5" y="657.9453">getDriverList()</text><text fill="#000000" font-size="11" lengthAdjust="spacingAndGlyphs" textLength="72" x="348.5" y="671.7813">getDriverMap()</text><text fill="#000000" font-size="11" lengthAdjust="spacingAndGlyphs" textLength="80" x="348.5" y="685.6172">getLicenseKey()</text><text fill="#000000" font-size="11" lengthAdjust="spacingAndGlyphs" textLength="57" x="348.5" y="699.4531">getOwner()</text><text fill="#000000" font-size="11" lengthAdjust="spacingAndGlyphs" textLength="131" x="348.5" y="713.2891">getProcessDefinitionIdSet()</text><text fill="#000000" font-size="11" lengthAdjust="spacingAndGlyphs" textLength="124" x="348.5" y="727.125">getProcessDefinitionList()</text><text fill="#000000" font-size="11" lengthAdjust="spacingAndGlyphs" textLength="127" x="348.5" y="740.9609">getProcessDefinitionMap()</text><text fill="#000000" font-size="11" lengthAdjust="spacingAndGlyphs" textLength="87" x="348.5" y="754.7969">getProcessIdSet()</text><text fill="#000000" font-size="11" lengthAdjust="spacingAndGlyphs" textLength="80" x="348.5" y="768.6328">getProcessList()</text><text fill="#000000" font-size="11" lengthAdjust="spacingAndGlyphs" textLength="83" x="348.5" y="782.4688">getProcessMap()</text><text fill="#000000" font-size="11" lengthAdjust="spacingAndGlyphs" textLength="83" x="348.5" y="796.3047">getVehicleIdSet()</text><text fill="#000000" font-size="11" lengthAdjust="spacingAndGlyphs" textLength="76" x="348.5" y="810.1406">getVehicleList()</text><text fill="#000000" font-size="11" lengthAdjust="spacingAndGlyphs" textLength="79" x="348.5" y="823.9766">getVehicleMap()</text><text fill="#000000" font-size="11" lengthAdjust="spacingAndGlyphs" textLength="49" x="348.5" y="837.8125">instance()</text><text fill="#000000" font-size="11" lengthAdjust="spacingAndGlyphs" textLength="61" x="348.5" y="851.6484">nextAreaId()</text><text fill="#000000" font-size="11" lengthAdjust="spacingAndGlyphs" textLength="66" x="348.5" y="865.4844">nextDriverId()</text><text fill="#000000" font-size="11" lengthAdjust="spacingAndGlyphs" textLength="121" x="348.5" y="879.3203">nextProcessDefinitionId()</text><text fill="#000000" font-size="11" lengthAdjust="spacingAndGlyphs" textLength="77" x="348.5" y="893.1563">nextProcessId()</text><text fill="#000000" font-size="11" lengthAdjust="spacingAndGlyphs" textLength="73" x="348.5" y="906.9922">nextVehicleId()</text><path d="M554.645,485.332 C545.909,571.886 515.37,874.443 505.854,968.7252 " fill="none" style="stroke: #A80036; stroke-width: 1.0;"/><polygon fill="#A80036" points="505.337,973.8464,510.2207,965.2937,505.8392,968.8717,502.2612,964.4902,505.337,973.8464" style="stroke: #A80036; stroke-width: 1.0;"/><path d="M559.311,485.332 C567.476,567.752 595.045,846.035 605.724,953.837 " fill="none" style="stroke: #A80036; stroke-width: 1.0;"/><polygon fill="none" points="612.7,953.2537,607.706,973.8464,598.769,954.6339,612.7,953.2537" style="stroke: #A80036; stroke-width: 1.0;"/></g></svg>